SplineFontDB: 3.0
FontName: TudorRoseBoldOblique
FullName: Tudor Rose Bold Oblique
FamilyName: TudorRose
Weight: Bold
Copyright: Created by James Kilfiger with FontForge 2.0 (http://fontforge.sf.net)\nReleased to public domain.
UComments: "2009-7-12: Created." 
Version: 001.000
ItalicAngle: 0
UnderlinePosition: -100
UnderlineWidth: 50
Ascent: 850
Descent: 250
LayerCount: 2
Layer: 0 0 "Back"  1
Layer: 1 0 "Fore"  0
XUID: [1021 73 598634083 4737580]
FSType: 0
OS2Version: 0
OS2_WeightWidthSlopeOnly: 0
OS2_UseTypoMetrics: 1
CreationTime: 1247431371
ModificationTime: 1312027577
PfmFamily: 17
TTFWeight: 500
TTFWidth: 5
LineGap: 90
VLineGap: 90
OS2TypoAscent: 0
OS2TypoAOffset: 1
OS2TypoDescent: 0
OS2TypoDOffset: 1
OS2TypoLinegap: 90
OS2WinAscent: 0
OS2WinAOffset: 1
OS2WinDescent: 0
OS2WinDOffset: 1
HheadAscent: 0
HheadAOffset: 1
HheadDescent: 0
HheadDOffset: 1
OS2Vendor: 'PfEd'
Lookup: 258 0 0 "'kern' Horizontal Kerning in Latin lookup 0"  {"'kern' Horizontal Kerning in Latin lookup 0-1"  } ['kern' ('DFLT' <'dflt' > 'latn' <'dflt' > ) ]
MarkAttachClasses: 1
DEI: 91125

StartChar: C
Encoding: 67 67 1
Width: 827
VWidth: -1282
Flags: W
HStem: 0.0732422 147.177<284.369 491.896> 401 21G<636.797 703.805> 556.104 146.899<388.138 572.86>
VStem: 52.8051 150.871<220.383 383.839>
LayerCount: 2
Fore
SplineSet
746.871 237.5 m 0
 736.772 180.225 597.866 0.0732422 358.905 0.0732422 c 0
 172.494 0.0732422 52.8051 107.068 52.8051 262.867 c 0
 52.8051 281.497 54.5166 300.826 58.0303 320.753 c 0
 88.6846 494.604 243.026 679.395 479.458 700.788 c 1
 489.903 702.08 499.008 702.916 506.055 703.003 c 1
 512.229 703.208 514.829 703.235 516.95 703.235 c 0
 519.109 703.231 l 0
 693.245 703.231 772.409 591.116 772.409 491.625 c 0
 772.409 489.54 772.374 487.461 772.305 485.389 c 0
 772.24 483.454 l 1
 771.721 480.507 771.907 475.895 771.661 474.5 c 0
 763.995 431.025 722.409 401 685.201 401 c 0
 588.394 401 626.542 508.955 566.984 539.235 c 0
 544.4 550.717 517.496 556.104 491.565 556.104 c 0
 358.708 556.104 227.9 444.518 206.342 322.256 c 0
 204.55 312.094 203.676 302.223 203.676 292.687 c 0
 203.676 206.255 275.493 147.25 386.993 147.25 c 0
 491.197 147.25 576.656 212.062 609.096 264.316 c 1
 627.085 294.558 659.862 311 686.332 311 c 0
 724.99 311 747.954 282.304 747.954 249.784 c 0
 747.954 245.733 747.598 241.622 746.871 237.5 c 0
EndSplineSet
EndChar

StartChar: D
Encoding: 68 68 2
Width: 868
VWidth: -1282
Flags: W
HStem: -0.103516 147.067<302.044 524.034> 43.3193 169.053<87.052 149.838> 504.449 146.623<394.777 617.482> 703 20G<271.96 292.57>
VStem: 236.383 158.395<388.087 504.491> 661.797 149.964<277.812 459.118>
LayerCount: 2
Back
SplineSet
156 714 m 0xb0
 161 714 169 712 174 710 c 0
 214 693 248 663 270 625 c 0
 288 594 298 560 302 528 c 0
 304.354 509.433 305.271 491.208 305.271 473.379 c 0
 305.271 423.029 297.954 375.833 295 333 c 0
 292 292 293 246 285 197 c 0
 278.569 159.331 268.761 128.415 268.761 104.251 c 0
 268.761 102.115 268.838 100.031 269 98 c 0
 270 86 273 73 278 62 c 0
 281 57 284 47 284 41 c 0
 284 16 262 -5 237 -5 c 0
 221 -5 203 7 196 22 c 0
 186 44 179 68 177 92 c 0
 176.715 96.6477 176.584 101.205 176.584 105.676 c 0
 176.584 148.335 188.569 183.035 194 212 c 0
 201 250 200 293 203 339 c 0
 206.777 388.857 213.407 434.719 213.407 476.587 c 0
 213.407 490.144 212.712 503.281 211 516 c 0
 208 539 201 561 191 578 c 0
 179 599 160 616 138 626 c 0
 122 633 109 651 109 668 c 0
 109 693 130 714 155 714 c 0
 156 714 l 0xb0
186 723 m 0
 187 723 187 723 188 723 c 0
 201 723 217 715 225 704 c 0
 244 678 275 658 307 653 c 0
 314.943 651.619 323.482 651.072 332.577 651.072 c 0
 349.816 651.072 369.051 653.036 390 655 c 0
 407.274 656.619 425.714 658.53 445.319 658.53 c 0
 462.032 658.53 479.593 657.142 498 653 c 0
 564 639 616 594 648 540 c 0
 680 487 694 428 698 371 c 0
 698.971 359.111 699.47 347.162 699.47 335.169 c 0
 699.47 297.736 694.603 259.868 684 222 c 0
 670 172 646 125 607 87 c 0
 546.165 27.1304 461.085 -0.103204 380.576 -0.103204 c 0
 377.711 -0.103204 374.852 -0.0687212 372 0 c 0
 290 2 213 28 143 60 c 0
 125 68 107 77 89 87 c 0
 75 94 64 112 64 128 c 0
 64 153 85 174 110 174 c 0
 117 174 127 171 133 168 c 0
 149 159 165 152 182 144 c 0
 245 115 310 93 374 92 c 0x70
 375.5 91.9762 377.001 91.9643 378.501 91.9643 c 0
 440.035 91.9643 501.976 111.976 542 152 c 0
 567 177 586 210 596 247 c 0
 603.55 274.935 607.11 304.58 607.11 335.075 c 0
 607.11 344.97 606.735 354.955 606 365 c 0
 603 412 592 457 570 493 c 0
 549 528 515 555 479 563 c 0
 468 565.5 455.75 566.5 442.375 566.5 c 0
 429 566.5 414.5 565.5 399 564 c 0
 379.553 562.118 357.746 559.449 334.564 559.449 c 0
 320.792 559.449 306.535 560.391 292 563 c 0
 236 572 185 604 151 650 c 0
 146 657 142 669 142 677 c 0
 142 701 162 722 186 723 c 0
EndSplineSet
Fore
SplineSet
26.1064 144.095 m 0x7c
 33.2275 184.479 74.4375 212.372 111.646 212.372 c 0x7c
 129.659 212.372 140.22 206.285 158.775 197.126 c 1
 164.197 209.832 168.39 219.422 171.137 226.754 c 0
 183.414 259.526 189.554 299.312 200.052 341.898 c 1
 212.829 391.445 226.415 432.77 232.611 467.91 c 0
 235.164 482.39 236.383 495.284 236.383 506.756 c 0
 236.383 548.376 220.35 571.291 193.861 583.375 c 1
 171.373 593.22 158.686 613.932 158.686 635.808 c 0
 158.686 639.097 158.973 642.413 159.557 645.722 c 0
 166.682 686.128 207.223 712.624 243.126 713.979 c 1
 258.796 721.583 266.811 722.573 277.109 723 c 1
 279.683 723 l 0
 305.457 723 324.371 709.276 333.548 692.726 c 0
 340.736 679.805 365.132 651.072 424.527 651.072 c 0
 463.006 651.072 510.906 658.53 557.775 658.53 c 0
 727.721 658.53 811.761 550.89 811.761 406.997 c 0
 811.761 383.747 809.567 359.551 805.187 334.71 c 0
 768.07 124.214 589.941 -0.103516 367.402 -0.103516 c 0xbc
 330.916 -0.103516 293.462 3.42676 255.188 10.6621 c 1
 234.321 -1.42773 216.354 -5 200.317 -5 c 0
 156.359 -5 143.803 27.6631 139.06 43.3193 c 1
 116.816 52.3906 82.6016 67.8594 55.3711 83.2393 c 1
 33.8072 94.9547 25.1073 113.882 25.1073 132.839 c 0
 25.1073 136.609 25.4513 140.379 26.1064 144.095 c 0x7c
400.999 504.449 m 0
 396.237 504.449 395.888 504.479 394.777 504.491 c 1
 394.788 488.805 393.142 471.787 389.95 453.688 c 0
 381.537 405.975 365.423 364.938 358.073 330.343 c 1
 348.391 295.068 342.161 253.867 324.913 210.235 c 1
 315.407 186.789 306.334 169.407 300.582 156.167 c 1
 345.405 147.418 371.889 146.964 390.922 146.964 c 0xbc
 493.852 146.964 630.967 182.375 657.672 333.826 c 0
 660.397 349.283 661.797 364.255 661.797 378.516 c 0
 661.797 455.331 621.187 511.5 528.404 511.5 c 0
 489.215 511.5 447.675 504.449 400.999 504.449 c 0
EndSplineSet
EndChar

StartChar: E
Encoding: 69 69 3
Width: 735
VWidth: -1282
Flags: W
HStem: -0.662109 146.574<217.062 455.505> 312.923 144.852<333.173 498.333> 324.518 143.982<423.869 544.626> 490 21G<568.723 601.556> 579.885 146.115<310.067 473.65>
VStem: 41.1891 153.856<169.721 264.045> 138.58 158.354<488.782 565.408>
LayerCount: 2
Fore
SplineSet
174.044 402.216 m 1xdc
 150.987 433.324 138.58 468.186 138.58 506.479 c 0
 138.58 517.203 139.553 528.196 141.538 539.451 c 0
 161.649 653.51 274.975 726 404.08 726 c 0
 579.958 726 646.337 632.531 660.658 609.489 c 1
 667.795 598.148 670.536 586.845 670.536 575.923 c 0
 670.536 571.719 670.13 567.572 669.412 563.5 c 0
 661.746 520.025 620.16 490 582.952 490 c 0
 554.494 490 532.669 503.416 521.171 518.293 c 1
 481.846 568.744 413.157 579.885 382.554 579.885 c 0
 323.607 579.885 301.358 556.012 297.402 533.571 c 0
 297.089 531.793 296.935 529.998 296.935 528.192 c 0
 296.935 494.795 349.663 457.774 422.125 457.774 c 0xda
 459.812 457.774 466.568 468.5 499.875 468.5 c 0
 546.321 468.5 572.677 439.077 572.677 406.055 c 0
 572.677 402.402 572.355 398.706 571.701 395 c 0
 565.444 359.519 533.371 333.041 498.782 324.518 c 1xba
 461.299 314.888 427.981 310.984 394.76 310.984 c 0
 381.292 310.984 369.312 311.786 361.389 312.5 c 1
 352.507 312.5 l 1
 351.316 312.575 l 0
 345.781 312.925 342.638 312.923 340.273 312.923 c 0
 263.984 312.923 204.923 269.035 196.587 221.756 c 0
 195.483 215.494 195.045 209.619 195.045 204.406 c 0
 195.045 192.405 197.365 183.905 199.218 182.231 c 0
 229.068 155.264 287.187 145.912 344.034 145.912 c 0
 425.509 145.912 491.729 182.296 530.844 213.913 c 1
 548.541 230.526 570.727 239 589.693 239 c 0
 628.352 239 651.317 210.303 651.317 177.784 c 0
 651.317 173.732 650.96 169.622 650.233 165.5 c 0
 646.557 144.647 635.329 127.713 621.37 115.09 c 1
 545.079 44.5479 435.257 -0.662109 314.466 -0.662109 c 0
 216.377 -0.662109 125.931 19.2012 71.1777 78.8721 c 0
 50.3011 101.624 41.1891 133.852 41.1891 170.58 c 0
 41.1891 185.524 42.6977 201.212 45.5361 217.311 c 0
 58.3887 290.2 106.495 358.176 174.044 402.216 c 1xdc
EndSplineSet
EndChar

StartChar: F
Encoding: 70 70 4
Width: 769
VWidth: -1282
Flags: W
HStem: -19 21G<116.299 155.072> 284.594 146.99<335.961 554.224> 501 21G<606.933 657.706> 545.216 146.309<398.003 581.118> 680 20G<159.688 193.418>
VStem: 57.7542 159.241<61.7671 213.302> 171.286 168.526<415.953 511.417>
LayerCount: 2
Fore
SplineSet
70.7295 23.9385 m 1xf4
 61.8988 51.4427 57.7542 79.716 57.7542 108.019 c 0xf4
 57.7542 125.626 59.3581 143.244 62.4355 160.696 c 0
 83.3955 279.565 153.92 353.19 168.149 433.889 c 0
 170.265 445.885 171.286 457.467 171.286 468.509 c 0
 171.286 492.495 166.468 513.928 157.587 531.497 c 1
 153.665 537.676 l 1
 129.599 552.608 93.4466 582.594 93.4466 621.16 c 0
 93.4466 624.712 93.7533 628.337 94.4043 632.029 c 0
 101.467 672.082 141.037 698.629 178.34 700 c 1
 179.89 700 l 0xea
 206.946 700 230.599 684.27 267.517 644.996 c 1
 273.967 643.44 280.706 643 286.797 643 c 0
 339.658 643 436.285 691.524 544.907 691.524 c 0
 616.602 691.524 669.975 668.799 707.318 631.746 c 1
 720.498 619.472 725.366 602.639 725.366 587.208 c 0
 725.366 582.813 724.971 578.531 724.261 574.5 c 0
 716.738 531.837 676.611 501 638.801 501 c 0
 575.065 501 585.013 545.216 515.532 545.216 c 0
 474.27 545.216 405.104 523.002 336.163 512.031 c 1
 338.694 498.908 339.811 486.432 339.811 474.36 c 0xf2
 339.811 461.627 338.569 449.343 336.432 437.222 c 0
 334.848 428.242 333.153 420.971 331.858 415.705 c 1
 337.058 413.136 l 1
 381.292 425.862 419.95 431.584 459.434 431.584 c 0
 503.005 431.584 546.68 423.102 586.347 404.992 c 1
 608.666 393.642 617.656 371.483 617.656 350.588 c 0
 617.656 346.304 617.278 342.073 616.56 338 c 0
 609.036 295.337 568.91 264.5 529.985 264.5 c 0
 480.711 264.5 473.751 284.594 430.085 284.594 c 0
 373.199 284.594 358.672 262.501 310.593 262.501 c 0
 291.989 262.501 289.22 265.555 286.999 266.005 c 0
 283.853 266.643 l 1
 271.41 271.723 l 1
 239.686 214.76 225.681 193.601 219.276 157.281 c 0
 217.663 148.128 216.995 140.169 216.995 133.106 c 0
 216.995 99.2109 232.372 85.9614 232.372 60.5864 c 0
 232.372 56.8248 232.034 52.7968 231.258 48.3955 c 0
 224.229 8.53223 176.863 -19 133.28 -19 c 0
 99.3184 -19 77.4453 0.808594 70.7295 23.9385 c 1xf4
EndSplineSet
EndChar

StartChar: G
Encoding: 71 71 5
Width: 842
VWidth: -1282
Flags: W
HStem: -252 136.493<325.707 394.535> -0.279297 146.491<337.936 504.593> 232.885 147.382<449.803 556.312> 447 21G<711.425 746.427> 587.128 146.872<402.491 602.68>
VStem: 80.4946 151.511<245.784 422.91>
LayerCount: 2
Fore
SplineSet
414.279 -0.279297 m 0
 227.224 -0.279297 80.4946 120.671 80.4946 303.468 c 0
 80.4946 324.151 82.3731 345.626 86.2842 367.807 c 0
 121.479 567.406 308.571 731.744 536.137 734 c 1
 747.571 734 815.001 586.053 815.001 529.646 c 0
 815.001 526.248 814.756 523.182 814.283 520.5 c 0
 806.617 477.025 765.031 447 727.823 447 c 0
 695.026 447 674.942 469.164 667.427 490.87 c 0
 650.566 538.027 595.625 587.128 514.33 587.128 c 0
 383.296 587.128 257.431 491.617 235.33 366.279 c 0
 233.071 353.47 232.005 341.221 232.005 329.532 c 0
 232.005 207.184 348.828 146.212 437.864 146.212 c 0
 526.339 146.212 556.344 181.962 561.084 199.951 c 1
 559.915 206.368 560.782 210.401 560.782 215.137 c 0
 560.782 228.875 532.967 232.885 522.096 232.885 c 0
 512.625 232.885 506.226 226.5 480.014 226.5 c 0
 435.095 226.5 407.947 256.107 407.947 289.254 c 0
 407.947 292.806 408.259 296.399 408.894 300 c 0
 420.626 366.537 504.619 380.267 551.526 380.267 c 0
 654.22 380.267 719.276 315.785 719.276 229.782 c 0
 719.276 224.065 718.988 218.252 718.405 212.356 c 1
 718.607 207.181 718.705 202.063 718.705 196.997 c 0
 718.705 172.109 716.339 148.502 712.329 125.76 c 0
 670.359 -112.262 442.539 -252 376.194 -252 c 0
 331.275 -252 304.127 -222.394 304.127 -189.247 c 0
 304.127 -185.695 304.439 -182.102 305.074 -178.5 c 0
 310.061 -150.218 332.105 -128.075 357.338 -115.507 c 1
 414.6 -86.3906 469.063 -40.8184 506.113 10.6602 c 1
 471.423 2.35645 443.83 -0.279297 414.279 -0.279297 c 0
EndSplineSet
EndChar

StartChar: L
Encoding: 76 76 6
Width: 761
VWidth: -1282
Flags: W
HStem: -3 147<277.642 549.089> 15.1387 144.823<233.245 441.55> 690 20G<197.756 245.35>
VStem: 160.494 161.981<373.978 603.466>
LayerCount: 2
Fore
SplineSet
80.6973 3 m 0x70
 41.6896 3 18.2894 30.1087 18.2894 60.6165 c 0
 18.2894 64.11 18.5963 67.6482 19.2217 71.1953 c 0
 30.5332 135.343 96.4863 137.598 131.274 334.892 c 0
 139.431 381.147 145.086 428.222 152.468 475.214 c 1
 158.087 512.09 160.494 535.461 160.494 551.191 c 0
 160.494 576.808 154.11 582.16 144.82 592.577 c 1
 133.348 604.391 129.725 617.495 129.725 629.674 c 0
 129.725 633.857 130.153 637.93 130.836 641.805 c 0
 137.948 682.142 179.152 710 216.36 710 c 0
 274.339 710 300.053 653.366 310.511 625.975 c 1
 319.518 602.966 322.475 580.56 322.475 559.608 c 0
 322.475 530.447 316.748 504.102 313.638 482.868 c 1
 306.788 437.905 302.125 392.044 293.948 345.67 c 0
 277.201 250.691 252.261 195.677 232.634 159.962 c 1x70
 253.596 161.196 272.732 161.885 290.391 161.885 c 0
 378.88 161.885 434.078 144 471.477 144 c 0
 545.8 144 554.761 190 615.671 190 c 0
 654.33 190 677.294 161.303 677.294 128.783 c 0
 677.294 124.732 676.938 120.621 676.211 116.5 c 0
 671.694 90.8887 654.887 72.2432 639.994 60.7998 c 1
 582.549 17.8818 516.361 -3 445.556 -3 c 0xb0
 359.061 -3 339.527 15.1387 256.945 15.1387 c 0
 238.418 15.1387 220.821 14.2832 205.134 13.1123 c 1
 85.9795 3 l 1
 80.6973 3 l 0x70
EndSplineSet
EndChar

StartChar: H
Encoding: 72 72 7
Width: 790
VWidth: -1282
Flags: W
HStem: -15 22G<126.895 167.467 524.228 563.719> 683 20G<205.565 261.301 599.338 638.653>
VStem: 75.8943 162.261<10.5505 229.128> 178.376 162.405<433.086 578.769> 467.227 159.874<8.4282 263.255> 555.709 162.766<417.753 585.682>
LayerCount: 2
Fore
SplineSet
524.924 361.318 m 1xd0
 537.078 399.228 545.888 430.329 551.053 459.617 c 0
 554.349 478.311 555.709 493.76 555.709 506.777 c 0
 555.709 568.296 525.326 575.468 525.326 613.857 c 0
 525.326 618.552 525.781 623.714 526.801 629.5 c 0
 534.297 672.01 577.419 701.482 621.258 703 c 1
 623.038 703 l 0
 654.269 703 676.102 688.765 685.769 671.221 c 1
 705.163 635.559 718.476 595.035 718.476 542.249 c 0xd4
 718.476 522.234 716.562 500.457 712.34 476.514 c 0
 708.488 454.676 702.964 432.966 698.495 417 c 1
 729.968 410.768 746.087 387.168 746.087 361.37 c 0
 746.087 357.697 745.76 353.98 745.104 350.262 c 0
 741.22 328.233 726.022 308.601 708.644 297.217 c 1
 689.608 284.291 669.492 274.273 652.147 267.229 c 1
 644.024 238.825 637.889 213.562 633.736 190.014 c 0
 628.695 161.422 627.1 140.211 627.1 123.634 c 0
 627.1 95.0897 631.829 80.2854 631.829 65.1963 c 0
 631.829 61.5592 631.554 57.9056 630.872 54.0391 c 0
 623.776 13.7949 582.583 -14 544.854 -14 c 0
 503.601 -14 477.46 12.7422 473.438 40.042 c 0
 469.18 68.9475 467.227 94.1525 467.227 118.163 c 0
 467.227 148.826 470.413 177.542 476.053 209.529 c 0
 480.023 232.049 484.879 252.749 489.455 270.448 c 1
 407.067 282.081 347.178 312.335 293.01 325.346 c 1
 270.146 265.885 250.375 214.652 242.289 168.797 c 0
 239.243 151.519 238.155 138.415 238.155 127.917 c 0
 238.155 101.739 244.915 91.7646 244.915 73.6906 c 0
 244.915 69.2393 244.505 64.2968 243.483 58.5 c 0
 235.817 15.0254 188.836 -15 146.098 -15 c 0
 107.691 -15 85.3926 8.1123 81.3535 34.5342 c 1
 77.6212 57.2145 75.8943 76.1939 75.8943 94.4168 c 0xe8
 75.8943 115.273 78.1563 135.138 82.2627 158.426 c 0
 89.793 201.135 102.823 240.842 115.362 275.679 c 1
 76.5995 276.418 54.0428 303.142 54.0428 333.223 c 0
 54.0428 336.757 54.3542 340.338 54.9873 343.929 c 0
 65.3857 402.898 144.836 425.132 169.199 432.621 c 1
 171.648 442.579 173.097 449.759 174.222 456.14 c 0
 177.152 472.76 178.376 487.404 178.376 500.311 c 0
 178.376 551.377 159.223 575.26 150.861 586.865 c 1
 141.664 598.021 138.799 609.835 138.799 620.621 c 0
 138.799 624.854 139.24 628.929 139.913 632.743 c 0
 146.92 672.481 187.253 699.593 223.877 701 c 1
 225.449 701 l 0
 297.154 701 340.781 609.285 340.781 502.982 c 0
 340.781 480.417 338.815 457.194 334.734 434.051 c 0
 333.372 426.325 332.166 420.673 331.336 416.816 c 1
 414.386 399.869 472.874 369.825 524.924 361.318 c 1xd0
EndSplineSet
EndChar

StartChar: O
Encoding: 79 79 8
Width: 845
VWidth: -1282
Flags: W
HStem: -3.7041 146.749<295.83 494.329> 538.024 146.451<355.886 552.875>
VStem: 54.7342 151.396<226.636 398.918> 641.708 151.651<285.548 456.723>
LayerCount: 2
Fore
SplineSet
60.3057 342.992 m 0
 94.5254 537.062 278.34 681.521 482.631 684.476 c 1
 492.688 685 l 0
 506.509 685 501.072 684.24 502.394 684.004 c 1
 503.331 683.957 l 0
 686.779 675.477 793.359 555.992 793.359 402.978 c 0
 793.359 383.033 791.548 362.518 787.86 341.604 c 0
 751.585 135.878 562.525 -3.7041 365.057 -3.7041 c 0
 175.561 -3.7041 54.7342 117.285 54.7342 280.888 c 0
 54.7342 300.995 56.5591 321.744 60.3057 342.992 c 0
392.896 143.045 m 0
 497.445 143.045 617.29 220.308 638.578 341.041 c 0
 640.702 353.084 641.708 364.602 641.708 375.587 c 0
 641.708 481.62 547.996 538.024 461.196 538.024 c 0
 346.291 538.024 229.358 456.141 208.959 340.453 c 0
 207.051 329.634 206.13 319.055 206.13 308.773 c 0
 206.13 213.09 285.903 143.045 392.896 143.045 c 0
EndSplineSet
EndChar

StartChar: Q
Encoding: 81 81 9
Width: 862
VWidth: -1282
Flags: W
HStem: -162.543 147.091<639.385 765.903> -2.7041 265.204<248.664 444.681> 539.024 146.451<372.166 508.185 508.24 557.57>
VStem: 73.5103 145.533<230.227 397.45> 639.368 163.675<274.921 457.769>
LayerCount: 2
Fore
SplineSet
222.158 334.302 m 0
 220.045 322.32 219.044 310.156 219.044 298.168 c 0
 219.044 273.485 223.289 249.545 230.822 229.459 c 1
 273.862 253.182 311.102 261.195 352.69 262.5 c 1
 450.406 262.5 505.494 211.811 535.291 170.107 c 1
 586.795 209.438 624.194 268.562 635.894 334.91 c 0
 638.254 348.299 639.368 361.062 639.368 373.189 c 0
 639.368 481.458 550.572 539.024 467.614 539.024 c 0
 356.959 539.024 243.295 454.177 222.158 334.302 c 0
75.3975 343.992 m 0
 109.618 538.062 292.458 682.521 489.212 685.476 c 1
 498.9 686 l 0
 512.21 686 506.969 685.24 508.24 685.004 c 1
 509.143 684.957 l 0
 687.346 676.388 803.044 554.644 803.044 399.43 c 0
 803.044 380.771 801.372 361.63 797.936 342.143 c 0
 770.742 187.919 660.261 99.7852 600.75 62.873 c 1
 625.584 13.2197 648.976 -15.4521 693.422 -15.4521 c 0
 736.447 -15.4521 774.919 10.2578 797.721 35.7285 c 1
 819.291 62.0898 846.069 70 866.693 70 c 0
 905.352 70 928.316 41.3027 928.316 8.78255 c 0
 928.316 4.73166 927.96 0.621448 927.233 -3.5 c 0
 916.373 -65.0898 795.438 -162.543 666.806 -162.543 c 0
 527.855 -162.543 473.56 -59.9746 446.347 4.44336 c 1
 410.628 -2.20117 386.771 -2.7041 371.498 -2.7041 c 0
 296.319 -2.7041 240.791 16.4277 194.473 44.1113 c 1
 183.888 42.9053 185.34 43.3213 182.359 43.3213 c 0
 141.196 43.3213 117.564 70.4142 117.564 100.888 c 0
 117.564 104.354 117.87 107.863 118.49 111.382 c 0
 119.573 117.521 120.064 123.713 120.064 129.953 c 0
 120.064 190.722 73.5103 256.051 73.5103 321.847 c 0
 73.5103 329.225 74.0956 336.609 75.3975 343.992 c 0
EndSplineSet
EndChar

StartChar: U
Encoding: 85 85 10
Width: 868
VWidth: -1282
Flags: W
HStem: -2.82812 146.301<314.557 506.493>
VStem: 60.2356 152.197<242.038 439.915> 671.148 149.389<306.924 500.917>
LayerCount: 2
Fore
SplineSet
216.174 379.063 m 0
 213.643 364.713 212.432 350.77 212.432 337.309 c 0
 212.432 223.057 299.677 143.473 408.067 143.473 c 0
 524.653 143.473 645.66 244.041 667.744 369.286 c 0
 670.075 382.506 671.148 395.215 671.148 407.401 c 0
 671.148 478.384 634.744 531.641 598.479 564.76 c 1
 586.054 576.407 580.164 590.634 580.164 604.629 c 0
 580.164 607.549 580.421 610.46 580.928 613.334 c 0
 587.75 652.03 631.794 680 674.426 680 c 0
 675.553 680 l 0
 701.677 680 719.474 668.663 729.506 658.116 c 1
 778.568 606.766 820.537 528.437 820.537 427.985 c 0
 820.537 406.726 818.657 384.477 814.567 361.283 c 0
 779.672 163.38 597.475 -2.82812 381.15 -2.82812 c 0
 181.765 -2.82812 60.2356 132.186 60.2356 305.291 c 0
 60.2356 327.544 62.244 350.426 66.3535 373.732 c 0
 83.9072 473.285 137.55 570.244 217.352 646.679 c 0
 217.896 647.236 l 1
 218.464 647.77 l 0
 235.97 664.205 259.722 675 283.433 675 c 0
 328.089 675 355.347 647.702 355.347 617.348 c 0
 355.347 614.384 355.087 611.392 354.559 608.393 c 0
 351.608 591.664 341.429 576.438 328.659 566.162 c 1
 267.562 514.509 227.822 445.125 216.174 379.063 c 0
EndSplineSet
EndChar

StartChar: X
Encoding: 88 88 11
Width: 886
VWidth: -1282
Flags: W
HStem: -9 129.763<31.8097 108.824> -3 134.254<636.749 708.255> 548.333 133.667<164.377 232.317 703.151 823.254>
LayerCount: 2
Fore
SplineSet
777.141 683 m 1xa0
 780.378 683.503 784.208 684 786.598 684 c 2
 787.598 684 l 0
 826.614 684 850.026 656.936 850.026 626.484 c 0
 850.026 623.005 849.721 619.481 849.098 615.948 c 0
 842.866 580.604 809.108 554.767 777.021 549.277 c 1
 678.665 532.773 591.098 460.02 513.549 367.924 c 1
 546.471 256.187 582.151 160.179 690.484 131.254 c 1
 718.85 124.032 734.854 100.247 734.854 75.2587 c 0
 734.854 71.8657 734.559 68.4506 733.96 65.0518 c 0
 726.862 24.7998 685.669 -3 648.461 -3 c 0x60
 614.606 -3 561.114 22.1211 521.953 48.8779 c 1
 447.143 100.214 409.675 170.675 389.607 239.169 c 1
 346.359 178.705 288.645 111.992 231.003 70.3818 c 1
 190.423 41.2764 114.641 -9 73.4023 -9 c 0
 34.3874 -9 10.9779 18.0731 10.9779 48.5368 c 0
 10.9779 52.0191 11.2838 55.5456 11.9072 59.0811 c 0
 16.8223 86.9531 39.7227 110.384 63.9463 120.763 c 1
 177.795 172.486 233.753 246.306 333.213 373.963 c 1
 301.003 467.523 255.662 527.986 182.341 548.333 c 1
 151.138 557.104 137.766 579.627 137.766 602.924 c 0
 137.766 606.586 138.096 610.268 138.74 613.919 c 0
 145.708 653.437 185.435 682 223.245 682 c 0
 224.245 682 l 0
 242.868 682 372.063 659.908 452.545 506.573 c 1
 454.488 502.438 454.688 501.642 454.886 501.146 c 1
 461.291 509.813 464.518 513.301 468.556 517.18 c 1
 557.845 603.296 654.018 661.083 772.934 682.466 c 0
 775.698 683 l 1
 777.141 683 l 1xa0
EndSplineSet
EndChar

StartChar: P
Encoding: 80 80 12
Width: 778
VWidth: -1282
Flags: W
HStem: -19 21G<157.651 199.259> 119.741 102.762<321.31 493.568> 475.099 129.071<66.7289 159.887> 513.044 147.087<358.65 495.234> 678 20G<233.896 278.945>
VStem: 99.5842 175.015<9.8063 137.295> 585.034 155.497<316.518 441.501>
LayerCount: 2
Fore
SplineSet
325.334 657.439 m 1xee
 349.889 659.529 368.291 660.131 387.152 660.131 c 0xde
 614.386 660.131 740.531 559.352 740.531 422.5 c 0
 740.531 408.921 739.289 394.986 736.78 380.76 c 0
 711.548 237.661 565.967 119.741 385.261 119.741 c 0
 346.486 119.741 304.405 125.972 268.235 138.459 c 1
 267.984 133.443 267.872 128.782 267.872 124.431 c 0
 267.872 90.624 274.599 75.5904 274.599 59.053 c 0
 274.599 55.8086 274.34 52.5064 273.721 48.9932 c 0
 266.629 8.77637 220.431 -19 178.087 -19 c 0
 137.215 -19 111.024 5.83789 106.741 31.1914 c 0
 102.014 60.3537 99.5842 83.9495 99.5842 107.464 c 0
 99.5842 131.647 102.155 155.744 107.44 185.722 c 0
 112.448 214.121 119.037 240.462 125.675 264.375 c 1
 124.1 274.667 124.576 280.381 125.584 286.097 c 0
 128.4 302.074 136.627 314.496 143.392 322.344 c 1
 155.538 358.2 l 1
 169.944 400.484 182.203 438.751 188.131 472.373 c 0
 190.142 483.774 191.253 494.123 191.745 501.196 c 1
 149.166 488.061 139.725 475.099 109.41 475.099 c 0
 70.4073 475.099 47.012 502.227 47.012 532.761 c 0
 47.012 536.262 47.3195 539.808 47.9463 543.362 c 0
 52.7012 570.33 74.8223 593.955 98.6211 604.17 c 1
 121.651 614.521 145.07 623.33 165.206 629.962 c 1
 173.44 671.631 212.839 696.633 254.953 698 c 1
 256.717 698 l 0
 301.174 698 318.03 669.936 325.334 657.439 c 1xee
358.65 513.012 m 1
 357.942 489.63 355.5 471.316 352.284 453.079 c 0
 341.664 392.85 319.775 334.766 298.031 265.842 c 1
 325.126 236.125 365.054 222.503 405.926 222.503 c 0
 485.781 222.503 569.32 279.67 583.168 358.204 c 0
 584.418 365.294 585.034 372.232 585.034 378.998 c 0
 585.034 457.614 501.914 513.044 364.724 513.044 c 0
 360.371 513.044 359.021 513.016 358.65 513.012 c 1
EndSplineSet
EndChar

StartChar: S
Encoding: 83 83 13
Width: 790
VWidth: -1282
Flags: W
HStem: 0.918945 147.081<232.438 507.337> 526.286 146.819<295.84 485.47>
VStem: 121.865 154.535<442.255 508.533> 536.839 153.872<174.132 232.194>
LayerCount: 2
Fore
SplineSet
126.465 504.116 m 1
 126.671 504.942 l 2
 146.866 585.728 240.963 673.105 406.642 673.105 c 0
 413.958 673.105 414.138 673 416.133 673 c 0
 481.723 673 598.387 651.667 667.39 565.852 c 1
 676.922 554.278 680.434 540.398 680.434 527.414 c 0
 680.434 522.961 680.021 518.613 679.296 514.5 c 0
 671.63 471.025 630.044 441 592.836 441 c 0
 570.449 441 553.463 450.967 542.112 464.015 c 1
 507.582 498.527 446.571 526.286 381.258 526.286 c 0
 298.077 526.286 276.4 492.72 276.4 475.506 c 0
 276.4 436.426 371.212 408.939 411.817 397.988 c 1
 502.474 374.148 583.969 348.024 675.241 275.984 c 1
 685.043 255.834 690.711 234.058 690.711 211.142 c 0
 690.711 203.092 690.011 194.901 688.546 186.59 c 0
 667.957 69.826 535.133 0.918945 352.858 0.918945 c 0
 347.187 0.918945 347.067 1 345.092 1 c 0
 216.715 2.09473 112.648 34.0625 51.8213 89.9795 c 1
 38.1483 102.714 32.6728 119.878 32.6728 136.046 c 0
 32.6728 140.299 33.0516 144.484 33.7598 148.5 c 0
 35.6582 159.265 38.7734 164.871 40.3486 168.269 c 1
 56.8545 206.414 l 1
 72.0039 240.884 107.531 262 138.273 262 c 0
 178.039 262 209.156 231.637 209.156 197.982 c 0
 209.156 194.843 208.885 191.675 208.325 188.5 c 0
 206.982 180.884 206.611 181.632 206.443 181.089 c 1
 259.048 158.817 315.826 148.762 372.422 148 c 0
 510.772 148 536.839 186.285 536.839 202.511 c 0
 536.839 242.291 412.828 272.893 356.486 285.933 c 1
 247.607 310.96 163.312 339.445 132.579 412.876 c 1
 125.486 430.607 121.865 448.331 121.865 466.868 c 0
 121.865 475.575 122.664 484.462 124.277 493.612 c 0
 125.596 501.094 125.998 501.469 126.318 503.287 c 0
 126.465 504.116 l 1
EndSplineSet
EndChar

StartChar: I
Encoding: 73 73 14
Width: 620
VWidth: -1282
Flags: W
HStem: -4.21387 159.856<43.9865 114.467 394.098 478.893> 25.4316 133.587<55.4614 171.167> 494.474 21G<112.478 142.994>
LayerCount: 2
Back
SplineSet
185.361 670.481 m 0x18
 191.879 670.607 198.481 670.289 205.021 669.469 c 0
 235.997 665.585 259.717 652.696 278.596 642.722 c 0
 297.29 632.845 311.961 625.594 322.977 623.484 c 0
 331.609 621.831 341.107 622.467 349.471 625.172 c 0
 357.834 627.877 365.887 632.95 371.914 639.347 c 0
 379.445 647.555 394.596 654.215 405.738 654.215 c 0
 431.077 654.215 451.639 633.648 451.639 608.311 c 0
 451.639 598.062 445.858 583.771 438.738 576.403 c 0
 421.954 558.595 401.019 545.293 377.736 537.76 c 0
 354.454 530.227 329.796 528.769 305.765 533.372 c 0
 276.06 539.062 253.694 552.062 235.733 561.553 c 0
 217.956 570.945 203.702 577.07 193.546 578.344 c 0x18
 185.361 579.369 176.243 577.893 168.824 574.294 c 0
 161.398 570.694 154.522 564.396 150.262 557.334 c 0
 142.862 545.084 125.249 535.144 110.938 535.144 c 0x28
 85.583 535.144 65 555.724 65 581.081 c 0
 65 588.146 67.9697 598.789 71.624 604.838 c 0
 85.2451 627.396 105.031 645.4 128.746 656.896 c 0
 146.527 665.519 165.797 670.102 185.361 670.481 c 0x18
178.273 116.56 m 0x48
 188.314 117.385 198.508 117.361 208.648 116.475 c 0
 236.925 114.007 260.424 105.646 280.283 99.1777 c 0
 300.059 92.7393 316.67 88.0986 329.98 87.4502 c 0
 348.174 86.5645 367.863 92.9004 382.124 104.24 c 0
 389.048 109.741 401.841 114.207 410.685 114.207 c 0
 436.023 114.207 456.596 93.6387 456.596 68.2969 c 0
 456.596 56.0654 448.822 39.9629 439.246 32.3535 c 0
 407.025 6.72461 366.631 -6.2666 325.508 -4.26562 c 0x88
 296.572 -2.85742 272.283 5.2793 251.849 11.9346 c 0
 231.493 18.5635 214.486 23.8027 200.633 25.0127 c 0
 181.364 26.6943 160.545 21.3848 144.439 10.6689 c 0
 138.059 6.42383 126.663 2.97754 119 2.97754 c 0
 93.6562 2.97754 73.085 23.5469 73.085 48.8906 c 0
 73.085 62.4668 82.2607 79.5898 93.5615 87.1123 c 0
 118.984 104.029 148.152 114.081 178.273 116.56 c 0x48
234.89 651.497 m 0
 235.274 651.508 235.896 651.518 236.281 651.518 c 0x28
 246.538 651.518 260.846 645.725 268.218 638.588 c 2
 313.695 595.81 l 2
 319.812 590.059 325.978 578.682 327.449 570.412 c 0
 337.605 513.662 340.501 455.684 336.055 398.203 c 0
 330.322 324.116 313.722 256.374 309.309 192.497 c 0
 307.848 171.382 307.905 151.29 310.488 132.675 c 0
 313.016 114.469 318.711 94.8516 325.762 73.6973 c 2
 328.461 65.6816 l 2
 329.947 61.5312 331.161 54.5811 331.161 50.1719 c 0
 331.161 24.833 310.595 4.2666 285.256 4.2666 c 0
 266.546 4.2666 246.892 18.7764 241.387 36.6562 c 2
 238.687 44.6719 l 2
 231.093 67.4531 223.372 92.3516 219.533 120.019 c 0
 215.747 147.274 215.942 173.739 217.677 198.825 c 0
 222.813 273.207 239.546 341.202 244.508 405.291 c 0
 247.973 450.104 246.006 495.348 239.192 539.784 c 1
 205.273 571.763 l 2
 197.047 579.296 190.376 594.459 190.376 605.612 c 0
 190.376 630.197 210.315 650.753 234.89 651.497 c 0
EndSplineSet
Fore
SplineSet
53.3311 3 m 0x60
 14.304 3 -9.12051 30.0184 -9.12051 60.4133 c 0
 -9.12051 63.8771 -8.8163 67.3848 -8.19629 70.9014 c 0
 2.75293 132.998 92.7822 158.686 171.167 159.019 c 1x60
 171.608 168.104 172.58 174.525 173.537 179.955 c 0
 190.111 273.951 262.248 353.999 276.949 437.371 c 0
 279.654 452.711 280.841 468.091 280.841 482.534 c 0
 280.841 492.976 280.221 502.929 279.104 512.023 c 1
 232.467 534.519 l 1
 217.011 533.88 206.967 528.797 204.673 527.441 c 1
 182.217 504.705 153.996 494.474 131.991 494.474 c 0
 92.9646 494.474 69.5394 521.491 69.5394 551.886 c 0
 69.5394 555.35 69.8437 558.858 70.4639 562.375 c 0
 79.1982 611.91 156.041 670 251.759 670 c 0
 380.662 670 416.817 622.17 456.837 622.17 c 0
 463.56 622.17 467.906 622.661 472.075 623.249 c 0
 495.646 626.572 527.405 654 565.12 654 c 0
 604.151 654 627.582 627.003 627.582 596.635 c 0
 627.582 593.178 627.278 589.677 626.659 586.168 c 0
 617.492 534.179 547.869 500.904 493.668 492.18 c 1
 491.626 468.793 489.169 450.621 485.821 431.636 c 0
 468.066 330.943 397.22 249.348 385.277 181.618 c 0
 384.539 177.431 384.215 173.278 384.215 169.219 c 0
 384.215 154.74 388.339 141.451 392.508 132.013 c 1
 426.782 134.28 438.649 155.643 482.246 155.643 c 0
 521.277 155.643 544.708 128.646 544.708 98.2778 c 0
 544.708 94.8208 544.404 91.3201 543.785 87.8105 c 0
 532.553 24.1064 437.756 -4.21387 349.567 -4.21387 c 0xa0
 247.095 -4.21387 208.2 25.4316 152.993 25.4316 c 0
 100.353 25.4316 99.4775 3 53.3311 3 c 0x60
EndSplineSet
EndChar

StartChar: J
Encoding: 74 74 15
Width: 496
VWidth: -1282
Flags: W
HStem: -227.481 146.875<-80.3831 98.5535> 664 20G<377.624 417.854>
VStem: 299.414 162.591<372.343 653.963>
LayerCount: 2
Fore
SplineSet
-110.314 -153.5 m 0
 -102.648 -110.025 -58.0186 -80.6064 -19.9238 -80.6064 c 0
 -10.4707 -80.8838 -12.3584 -81.3008 -10.7803 -81.3008 c 0
 47.6123 -81.3008 190.704 -56.0967 228.116 96.9395 c 0
 230.869 108.201 232.816 118.358 234.381 127.232 c 0
 240.168 160.052 243.796 194.018 249.832 228.253 c 0
 262.316 299.053 284.662 362.331 294.908 420.441 c 0
 302.356 462.677 304.602 496.97 304.602 524.573 c 0
 304.602 566.523 299.414 593.019 299.414 608.456 c 0
 299.414 611.096 299.565 613.413 299.921 615.428 c 0
 306.914 655.088 357.938 682.584 397.31 684 c 1
 398.859 684 l 0
 436.848 684 459.987 656.915 461.017 628.497 c 1
 461.676 613.891 462.005 599.293 462.005 584.714 c 0
 462.005 528.682 457.145 472.95 447.498 418.235 c 0
 434.909 346.843 415.493 282.098 405.326 224.438 c 0
 399.478 191.27 395.149 157.152 389.008 122.321 c 0
 388.063 116.942 l 0
 378.375 61.9951 345.923 -105.557 159.442 -189.44 c 0
 88.9229 -216.046 15.8018 -227.481 -35.2158 -227.481 c 0
 -43.2246 -227.481 -49.2412 -227.193 -53.1318 -226.967 c 1
 -89.88 -225.425 -111.393 -197.23 -111.393 -165.748 c 0
 -111.393 -161.703 -111.038 -157.604 -110.314 -153.5 c 0
EndSplineSet
EndChar

StartChar: M
Encoding: 77 77 16
Width: 849
VWidth: -1282
Flags: W
HStem: -23 29G<88.105 117.949 611.01 644.78> 296.921 146.392<393.576 490.794>
VStem: 582.711 152.936<83.8672 348.437>
LayerCount: 2
Fore
SplineSet
36.1787 16.792 m 1
 25.8806 28.1539 22.2669 41.0818 22.2669 53.2047 c 0
 22.2669 57.0958 22.6392 60.9039 23.2822 64.5508 c 0
 28.751 95.5674 106.576 218.544 142.756 423.73 c 0
 150.873 469.762 155.681 514.693 158.08 557.455 c 1
 148.098 577.208 l 1
 143.279 586.041 141.286 595.198 141.286 603.925 c 0
 141.286 607.405 141.603 610.817 142.185 614.113 c 0
 149.266 654.268 190.447 682 227.655 682 c 0
 229.655 682 l 0
 257.779 682 279.86 665.019 288.88 646.615 c 1
 303.917 622.311 l 1
 332.862 595.062 320.495 556.979 378.24 483.041 c 1
 390.367 467.814 416.184 443.312 435.388 443.312 c 0
 470.348 443.312 563.551 509.584 612.232 577.895 c 1
 621.625 591.944 630.477 597.186 635.738 600.926 c 1
 669.219 644.278 704.403 678 749.95 678 c 0
 787.966 678 813.522 652.43 813.522 621.165 c 0
 813.522 617.779 813.223 614.326 812.606 610.831 c 0
 801.612 548.482 751.494 557.058 735.026 463.667 c 0
 731.755 445.111 730.643 426.278 730.643 405.422 c 0
 730.643 361.175 735.647 307.823 735.647 228.703 c 0
 735.647 187.948 734.319 140.355 730.296 83.6484 c 1
 730.402 82.7549 730.347 76.2578 730.184 75.3311 c 0
 727.764 61.6104 722.7 54.9375 719.827 50.2119 c 1
 707.221 29.1543 l 1
 691.27 1.70508 658.805 -15 630.756 -15 c 0
 591.263 -15 564.782 12.5218 564.782 43.1954 c 0
 564.782 46.2882 565.051 49.413 565.604 52.5449 c 0
 567.939 65.792 573.051 72.6221 577.106 78.6436 c 1
 580.734 83.8672 l 1
 582.138 115.672 582.711 143.745 582.711 168.866 c 0
 582.711 252.61 576.335 303.557 573.059 350.647 c 1
 529.229 322.624 472.033 296.921 410.972 296.921 c 0
 377.469 296.921 327.641 305.447 282.343 341.483 c 1
 259.136 249.548 224.798 162.608 183.404 79.0859 c 1
 188.228 69.6632 190.249 61.2698 190.249 53.2851 c 0
 190.249 50.373 189.98 47.5152 189.48 44.6816 c 0
 182.422 4.64941 136.553 -23 99.3447 -23 c 0
 76.8652 -23 59.8799 -11.6738 51.583 -0.728516 c 1
 36.1787 16.792 l 1
EndSplineSet
EndChar

StartChar: N
Encoding: 78 78 17
Width: 725
VWidth: -1282
Flags: W
HStem: -24 21G<63.4234 101.317 492.751 530.065> 667 20G<656.339 685.691>
VStem: 21.491 154.536<6.28445 141.713>
LayerCount: 2
Fore
SplineSet
82.8154 -24 m 0
 44.0314 -24 21.491 4.87536 21.491 36.1305 c 0
 21.491 39.9106 21.8207 43.7255 22.4912 47.5283 c 1
 73.4082 285.244 130.566 419.057 139.773 471.27 c 0
 140.551 475.683 140.69 476.811 140.992 478.907 c 1
 143.431 492.738 143.313 503.729 142.101 512.941 c 1
 139.523 530.471 l 1
 135.283 546.323 97.6448 561.167 97.6448 601.341 c 0
 97.6448 605.251 98.0011 609.4 98.7793 613.812 c 0
 105.515 652.011 142.631 680.537 180.73 682 c 1
 184.303 682 l 0
 244.826 682 274.533 614.22 278.363 607.474 c 1
 288.234 596.46 291.433 586.791 292.737 580.062 c 1
 295.152 570.48 l 1
 299.997 554.346 316.883 421.504 437.826 288.411 c 1
 467.872 257.456 l 1
 479.098 306.167 492.161 369.211 506.582 451 c 0
 514.195 494.178 520.731 534.768 526.71 575.169 c 1
 526.944 576.5 l 0
 531.032 599.685 547.432 617.191 561.816 627.812 c 1
 609.693 664.812 l 1
 627.369 679.838 647.494 687 665.185 687 c 0
 666.185 687 l 0
 705.197 687 728.604 659.916 728.604 629.438 c 0
 728.604 625.952 728.298 622.422 727.674 618.883 c 0
 724.033 598.24 710.635 580.5 696.307 569.687 c 1
 679.985 556.686 l 1
 674.712 521.875 669.429 489.891 663.902 458.553 c 0
 640.193 324.087 616.205 223.986 589.862 126.562 c 1
 589.689 125.614 589.748 125.93 589.239 123.406 c 1
 594.954 100.896 597.911 84.023 597.911 70.8415 c 0
 597.911 66.5674 597.6 62.6814 596.972 59.1172 c 0
 589.867 18.8271 548.669 -9 511.461 -9 c 0
 474.041 -9 445.149 16.6602 441.604 46.666 c 1
 427.928 148.987 342.617 177.017 246.473 312.218 c 1
 217.91 222.304 194.6 134.392 176.027 49.3516 c 1
 166.97 4.16309 119.819 -24 82.8154 -24 c 0
EndSplineSet
EndChar

StartChar: R
Encoding: 82 82 18
Width: 753
VWidth: -1282
Flags: W
HStem: -19 28G<110.229 148.199 512.995 571.037> 192.474 146.537<318.57 430.656> 479.792 130.693<70.8531 158.276> 514.123 146.997<351.924 508.338> 679 20G<226.105 273.66>
VStem: 440.063 161.372<112.941 209.378> 554.761 151.932<386.428 478.779>
LayerCount: 2
Fore
SplineSet
250.302 699 m 0xec
 297.019 699 314.939 667.931 321.849 656.312 c 1
 362.649 660.534 388.904 661.12 407.204 661.12 c 0
 626.748 661.12 706.693 563.143 706.693 465.401 c 0xda
 706.693 454.552 705.709 443.706 703.82 432.997 c 0
 691.723 364.387 647.381 304.422 586.916 262.176 c 1
 596.795 242.103 601.435 220.799 601.435 197.956 c 0
 601.435 187.037 600.374 175.767 598.319 164.11 c 0
 595.068 145.677 591.706 134.165 590.466 127.132 c 0
 590.279 126.077 590.006 122.799 590 122.661 c 1
 621.802 116.431 638.885 93.172 638.885 66.8976 c 0
 638.885 63.2925 638.563 59.6306 637.914 55.9482 c 0
 630.827 15.7578 589.641 -12 552.433 -12 c 0
 473.558 -12 428.547 39.0448 428.547 98.0433 c 0
 428.547 104.909 429.157 111.882 430.394 118.896 c 0
 433.944 139.032 438.158 151.875 439.512 159.553 c 0
 439.849 161.468 440.063 163.56 440.063 165.771 c 0
 440.063 174.983 436.359 186.245 422.511 195.237 c 1
 403.951 193.087 389.066 192.474 375.465 192.474 c 0
 341.374 192.474 312.926 196.866 291.874 201.989 c 1
 275.468 112.442 245.07 56.5391 220.744 22.998 c 1
 201.202 -5.91895 163.459 -19 132.938 -19 c 0
 87.5186 -19 64.797 8.6053 64.797 38.6365 c 0
 64.797 42.1613 65.1102 45.7195 65.7363 49.2705 c 0
 73.1064 91.0664 102.785 96.332 122.882 210.31 c 0
 128.708 243.348 133.126 277.354 139.021 311.706 c 1
 136.807 320.811 135.933 328.277 137.345 336.284 c 0
 139.852 350.499 145.867 359.497 149.837 365.455 c 1
 161.142 411.794 173.015 444.989 179.508 481.815 c 0
 180.8 489.146 181.616 495.617 182.011 499.106 c 1
 149.044 488.707 136.934 479.792 112.149 479.792 c 0
 73.1472 479.792 49.7529 506.922 49.7529 537.459 c 0
 49.7529 540.961 50.0605 544.507 50.6875 548.062 c 0
 55.9043 577.65 80.7432 600.834 106.195 610.485 c 1
 124.761 617.484 143.454 624.191 159.008 629.129 c 1
 159.141 630.058 159.1 629.801 159.264 630.729 c 0
 166.145 669.754 204.879 697.564 247.331 699 c 1
 250.302 699 l 0xec
317.493 358.957 m 1
 340.026 346.742 371.073 339.011 402.527 339.011 c 0
 428.766 339.011 430.936 342.251 447.912 343.57 c 1
 511.889 357.747 548.894 396.948 553.993 425.869 c 0
 554.481 428.634 554.761 431.596 554.761 434.699 c 0
 554.761 466.849 524.617 514.123 381.989 514.123 c 0
 376.05 514.123 373.562 514.062 370.51 514 c 1
 361.913 514 356.402 513.679 351.924 513.426 c 1
 351.392 497.039 349.508 483.248 347.313 470.801 c 0
 338.938 423.3 325.11 388.558 317.493 358.957 c 1
EndSplineSet
EndChar

StartChar: K
Encoding: 75 75 19
Width: 807
VWidth: -1282
Flags: W
HStem: -10 135.696<575.917 665.011> 591.06 133.94<642.124 724.754>
VStem: 39.4694 155.291<14.3257 152.928> 139.759 152.46<476.905 696.302>
LayerCount: 2
Fore
SplineSet
40.6377 78.7549 m 0xe0
 41.7002 112.662 45.666 143.623 50.8555 173.055 c 0
 70.2676 283.144 105.824 373.353 123.609 474.22 c 0
 133.713 531.519 138.913 587.306 139.759 640.682 c 2
 139.788 642.531 l 1
 139.909 643.22 l 2
 139.961 646.368 140.124 650.11 140.546 652.5 c 0
 148.211 695.975 189.798 726 227.006 726 c 2
 229.66 726 l 1
 230.308 725.969 l 2
 267.561 724.18 292.219 694.519 292.219 662.88 c 0xd0
 292.047 611.192 282.481 543.277 271.224 479.434 c 2
 270.674 476.323 l 1
 277.5 484.34 282.391 489.222 286.961 493.456 c 0
 390.011 587.789 515.106 664.506 642.118 716.404 c 0
 661.068 724.475 670.677 725.013 679.037 725.013 c 0
 680.321 725.013 681.575 725 682.829 725 c 2
 683.829 725 l 2
 721.853 725 745.624 697.445 745.624 664.684 c 0
 745.624 660.687 745.27 656.612 744.545 652.5 c 0
 739.55 624.17 715.855 601.192 692.622 591.06 c 0
 602.561 554.429 514.523 504.565 439.866 447.082 c 1
 452.557 418.696 452.656 379.972 497.194 264.918 c 0
 519.701 206.778 554.822 130.396 632.643 125.696 c 1
 669.585 124.265 691.612 97.7073 691.612 68.2806 c 0
 691.612 64.8366 691.31 61.3532 690.695 57.8662 c 0
 683.617 17.7236 642.437 -10 605.229 -10 c 2
 602.679 -10 l 1
 405.769 -2.86328 351.356 179.234 334.74 227.211 c 0
 321.919 264.233 311.381 299.438 302.239 334.248 c 1
 229.128 237.31 220.913 186.584 197.488 153.804 c 1
 195.314 135.075 193.911 118.897 194.002 105.968 c 2
 194.761 72.6416 l 1
 196.299 59.7568 194.221 58.707 193.832 56.5 c 0
 186.166 13.0254 140.202 -17 102.994 -17 c 0
 47.265 -17 39.4694 24.6336 39.4694 53.976 c 0
 39.4694 64.8238 40.5349 73.9916 40.6377 78.7549 c 0xe0
EndSplineSet
EndChar

StartChar: Y
Encoding: 89 89 20
Width: 750
VWidth: -1282
Flags: W
HStem: -23.0025 21G<113.128 119.703> 583.123 128.877<699.193 776.992> 671 20G<131.705 176.252>
LayerCount: 2
Fore
SplineSet
67.0645 622.757 m 0xc0
 73.9424 661.764 113.384 689.592 150.025 691 c 1
 152.598 691 l 0xa0
 199.906 691 309.535 618.857 379.357 527.089 c 1
 395.126 506.771 402.301 481.899 407.872 459.41 c 1
 411.934 465.862 414.082 469.096 415.813 471.639 c 1
 521.859 628.297 685.287 712 733.301 712 c 0
 734.301 712 l 0
 773.311 712 796.715 684.906 796.715 654.416 c 0
 796.715 650.927 796.408 647.393 795.783 643.85 c 0
 791.035 616.921 768.962 593.357 745.08 583.123 c 1
 673.144 551.091 605.378 496.067 561.799 434.33 c 1
 492.371 336.831 460.547 151.214 203.457 11.3613 c 1
 202.926 12.166 201.575 10.4121 200.648 9.7041 c 1
 159.436 -10.4004 l 1
 134.756 -22.5738 125.814 -23.0025 113.591 -23.0025 c 0
 112.665 -23.0025 111.72 -23 110.748 -23 c 0
 68.9839 -23 45.3029 4.1559 45.3029 34.7047 c 0
 45.3029 38.1852 45.6103 41.7097 46.2334 45.2432 c 0
 50.9365 71.917 71.4307 93.7461 93.9004 104.736 c 1
 126.644 120.368 l 1
 174.173 146.477 262.563 210.137 283.191 266.732 c 1
 287.383 277.247 289.65 286.476 291.154 295.004 c 0
 292.691 303.718 293.408 312.259 293.408 320.622 c 0
 293.408 371.148 267.226 415.16 237.38 451.369 c 1
 197.548 497.771 148.724 536.425 97.9082 561.662 c 1
 76.0222 571.93 66.1697 592.631 66.1697 612.473 c 0
 66.1697 615.947 66.4718 619.396 67.0645 622.757 c 0xc0
EndSplineSet
EndChar

StartChar: W
Encoding: 87 87 21
Width: 827
VWidth: -1282
Flags: W
HStem: -31 21G<126.086 164.855 427.525 466.677> 578 20G<439.504 470.756> 694 14G<123.985 150.467 884.591 908.626>
VStem: 131.011 157.479<371.694 568.995> 380.383 157.319<18.4394 102.8>
LayerCount: 2
Fore
SplineSet
418.624 198 m 0
 424.428 230.914 426.864 262.085 426.864 291.064 c 0
 426.864 316.434 424.997 340.124 421.888 361.83 c 1
 357.304 256.543 294.9 183.789 272.764 160.129 c 1
 266.655 127.666 259.503 99.1201 252.638 70.8359 c 1
 252.277 70.8564 250.66 64.7236 250.66 64.7227 c 1
 237.046 28.4678 l 1
 222.481 -9.35938 182.065 -31 147.646 -31 c 0
 104.526 -31 78.5255 -3.29674 78.5255 27.6614 c 0
 78.5255 30.8971 78.8095 34.1684 79.3877 37.4473 c 0
 80.1621 41.8428 83.4229 51.3389 83.8428 52.2529 c 1
 93.9189 76.2969 l 1
 101.359 105.607 107.067 132.895 111.677 159.036 c 0
 125.381 236.755 131.011 309.471 131.011 377.244 c 0
 131.011 447.362 124.985 512.189 115.639 571.793 c 1
 89.7891 583.095 l 1
 67.385 593.641 55.8535 614.475 55.8535 635.958 c 0
 55.8535 639.464 56.1605 642.986 56.7773 646.484 c 0
 64.0039 687.47 105.788 714 142.182 714 c 0
 143.182 714 l 0
 157.753 714 164.094 710.723 170.829 707.824 c 1
 228.097 681.356 l 1
 247.954 671.5 259.49 656.527 263.466 638.622 c 1
 284.135 533.016 288.34 434.441 288.49 371.694 c 1
 311.81 415.242 329.592 462.564 347.346 506.2 c 1
 347.077 515.428 347.547 515.587 348.061 518.5 c 0
 352.865 545.748 372.186 565.941 390.541 577.322 c 1
 411.865 593.816 430.934 598 448.074 598 c 0
 449.17 598 l 0
 492.343 598 517.864 569.009 517.864 536.376 c 0
 517.864 534.101 517.74 531.808 517.489 529.506 c 1
 539.854 482.875 550.23 427.704 557.021 374.377 c 1
 594.034 481.856 635.184 599.834 756.688 669.061 c 1
 800.774 694.381 845.39 705.801 884.591 707.958 c 0
 885.361 708 l 1
 889.124 708 l 0
 928.128 708 951.525 680.877 951.525 650.351 c 0
 951.525 646.853 951.217 643.309 950.591 639.757 c 0
 943.516 599.629 903.333 572.207 866.841 571.515 c 1
 783.466 566.969 749.348 459.14 715.318 374.538 c 1
 674.6 283.169 612.768 196.086 565.405 113.562 c 1
 557.816 100.239 557.534 103.817 557.534 103.817 c 1
 550.642 82.0342 544.111 66.0186 537.702 50.0381 c 0
 523.944 15.7373 484.423 -6 448.931 -6 c 0
 406.119 -6 380.383 23.3258 380.383 56.2813 c 0
 380.383 59.9871 380.709 63.7389 381.372 67.5 c 0
 385.644 91.7217 405.544 123.816 418.624 198 c 0
EndSplineSet
EndChar

StartChar: V
Encoding: 86 86 22
Width: 793
VWidth: -1282
Flags: W
HStem: -34 21G<192.234 236.97> 692 20G<98.3159 140.625 659.493 694.956>
VStem: 144.654 166.664<-6.46513 140.485> 168.782 165.753<370.795 469.729>
LayerCount: 2
Fore
SplineSet
588.201 638.5 m 0xd0
 595.838 681.805 641.266 710.552 677.72 712 c 1
 679.27 712 l 0
 710.643 712 733.773 692.815 739.988 666.043 c 1
 751.395 625.168 l 1
 752.815 619.598 753.294 615.074 753.294 611.26 c 0
 753.294 606.068 752.407 602.192 751.807 598.784 c 0
 748.466 579.838 737.965 564.143 726.339 553.582 c 1
 529.228 375.938 l 1
 435.827 294.563 347.861 209.145 322.592 104.367 c 1
 319.704 91.1299 315.466 85.9072 314.047 83.6982 c 1
 312.558 41.1748 l 1
 311.318 34.1465 l 0
 304.211 -6.16113 258.095 -34 215.846 -34 c 0
 168.622 -34 143.202 -3.62598 144.654 29.0186 c 1xe0
 149.853 172.852 168.782 272.822 168.782 352.114 c 0
 168.782 396.901 162.743 435.091 144.778 470.862 c 1
 126.765 510.237 95.0605 543.235 58.916 564.168 c 1
 39.2442 574.969 30.4626 595.157 30.4626 614.182 c 0
 30.4626 617.742 30.77 621.261 31.3711 624.67 c 0
 38.498 665.086 79.7119 693 116.92 693 c 0
 117.92 693 l 0
 163.33 693 256.04 621.809 299.822 525.91 c 1
 323.42 474.476 332.523 420.26 334.535 370.795 c 1
 363.002 399.814 386.324 421.599 411.117 444.802 c 1
 591.627 605.606 l 1
 590.222 609.497 l 1
 590.002 610.287 l 0
 587.052 620.903 586.689 629.926 588.201 638.5 c 0xd0
EndSplineSet
EndChar

StartChar: Z
Encoding: 90 90 23
Width: 938
VWidth: -1282
Flags: W
HStem: -7.84473 146.824<504.055 706.085> 14 129.022<47.3859 126.197> 473.168 248.073<188.943 302.846> 673 20G<832.223 857.347>
LayerCount: 2
Fore
SplineSet
210.593 473.168 m 0x60
 143.554 473.168 97.7857 515.992 97.7857 571.244 c 0
 97.7857 577.2 98.3176 583.301 99.4121 589.508 c 0
 113.239 667.924 199.383 721.241 285.771 721.241 c 0x60
 291.972 721.241 295.853 721.032 296.629 720.999 c 1
 430.738 720.29 468.875 630.169 598.927 630.169 c 0
 680.94 630.169 757.795 661.612 791.902 680.135 c 1
 810.385 691.223 826.646 693 837.799 693 c 0
 876.894 693 900.406 666.301 900.406 636.308 c 0
 900.406 632.948 900.111 629.547 899.51 626.138 c 0
 887.715 559.25 771.843 533.983 757.424 526.471 c 1
 649.082 470.254 609.2 333.635 395.61 178.953 c 1
 522.368 167.505 575.094 138.979 636.565 138.979 c 0
 704.438 138.979 708.979 185 773.225 185 c 0
 811.883 185 834.848 156.303 834.848 123.784 c 0
 834.848 119.732 834.492 115.622 833.765 111.5 c 0
 821.043 39.3477 701.816 -7.84473 609.202 -7.84473 c 0x90
 483.746 -7.84473 436.053 40.5361 291.694 40.5361 c 0
 169.3 40.5361 123.997 14 90.0732 14 c 0
 51.0656 14 27.6654 41.1087 27.6654 71.6172 c 0
 27.6654 75.1108 27.9722 78.6491 28.5977 82.1963 c 0
 33.5146 110.082 55.9053 132.929 79.4443 143.022 c 1
 338.055 248.403 445.981 409.373 523.558 502.571 c 1
 434.872 511.086 383.376 539.548 343.807 559.203 c 1
 343.623 553.035 343.256 552.454 342.957 550.758 c 0
 332.433 491.073 253.7 473.168 210.593 473.168 c 0x60
EndSplineSet
EndChar

StartChar: T
Encoding: 84 84 24
Width: 737
VWidth: -1282
Flags: W
HStem: -14 21G<306.107 344.5> 449.08 248.439<82.018 195.845> 731.521 20G<607.628 669.898>
VStem: 244.059 168.179<39.2285 173.351> 313.678 167.964<233.128 473.947> 476.568 275.26<603.618 699.726>
LayerCount: 2
Fore
SplineSet
477.641 658.5 m 0xe4
 488.797 721.769 577.348 751.521 637.908 751.521 c 0
 701.888 751.521 751.828 714.499 751.828 657.885 c 0xe4
 751.828 652.058 751.299 646.024 750.202 639.801 c 0
 731.846 535.698 574.49 480.113 475.318 475.305 c 1
 478.268 446.514 481.643 405.886 481.643 366.869 c 0xe8
 481.643 342.756 480.354 319.258 476.879 299.55 c 0
 460.875 208.787 418.49 145.559 412.918 113.956 c 0
 412.442 111.258 412.238 108.863 412.238 106.681 c 0
 412.238 93.215 420.038 87.8927 420.038 69.662 c 0
 420.038 65.4198 419.616 60.4786 418.574 54.5732 c 0
 411.423 14.0127 365.506 -14 323.495 -14 c 0
 288.719 -14 263.347 4.34277 254.907 25.9102 c 1
 248.36 43.2953 244.059 62.8797 244.059 84.3565 c 0xf0
 244.059 93.5573 244.848 103.105 246.589 112.977 c 0
 259.796 187.879 296.485 220.253 310.362 298.955 c 0
 312.716 312.304 313.678 328.983 313.678 346.978 c 0xe8
 313.678 409.691 301.991 488.384 296.784 497.79 c 0
 288.041 513.587 285.062 505.607 267.193 522.37 c 1
 238.468 536.63 l 1
 238.451 529.794 237.979 528.768 237.616 526.704 c 0
 227.087 466.993 147.059 449.08 103.219 449.08 c 0
 36.1824 449.08 -9.58091 491.918 -9.58091 547.191 c 0
 -9.58091 553.152 -9.04856 559.258 -7.95312 565.471 c 0
 6.89551 649.684 98.6182 697.52 181.93 697.52 c 0
 333.224 697.52 391.602 602.396 483.674 601.897 c 1
 485.592 601.976 492.179 602.527 496.788 602.992 c 1
 482.352 616.315 476.568 631.232 476.568 646.661 c 0
 476.568 650.58 476.941 654.533 477.641 658.5 c 0xe4
EndSplineSet
EndChar

StartChar: A
Encoding: 65 65 25
Width: 942
VWidth: -1282
Flags: W
HStem: -9 18G<163.149 221.455 691.223 781.818> 168.5 147<499.953 558.145> 375.5 20G<220.117 282.345> 486.324 21G<400.601 420.849> 676 20G<538.746 606.745>
VStem: 576.086 162.397<337.617 424.595>
LayerCount: 2
Fore
SplineSet
281.467 241.145 m 1
 257.241 185.369 201.867 162.559 160.593 160.593 c 1
 185.636 154.732 203.158 139.434 209.931 121.299 c 0
 212.866 113.439 219.705 110.281 227.513 110.281 c 0
 237.575 110.281 253.434 115.902 270.569 136.856 c 0
 291.164 162.039 305.746 206.478 311.968 229.094 c 1
 292.931 237.37 288.393 238.774 281.467 241.145 c 1
63.3887 108.511 m 0
 70.0225 146.13 105.705 173.68 141.269 177.041 c 1
 106.337 183.488 72.1188 210.444 72.1188 256.905 c 0
 72.1188 262.695 72.65 268.787 73.7773 275.18 c 0
 87.7461 354.404 178.212 395.5 262.022 395.5 c 0
 302.667 395.5 335.649 386.802 359.968 379.154 c 1
 384.572 431.082 413.851 464.063 439.461 488.011 c 1
 438.175 487.839 436.89 487.664 435.176 487.473 c 0
 433.101 487.242 l 1
 431.066 487.242 l 1
 429.101 487.12 422.906 486.324 418.791 486.324 c 0
 382.41 486.324 358.639 497.947 342.34 509.137 c 1
 328.79 479.288 282.684 428.527 203.316 428.527 c 0
 195.4 428.527 l 1
 194.497 428.583 l 0
 129.877 432.579 95.3602 481.792 95.3602 534.409 c 0
 95.3602 541.442 95.9768 548.535 97.2207 555.59 c 0
 110.72 632.146 193.304 701 289.499 701 c 0
 370.861 701 417.05 655.21 438.144 631.225 c 1
 464.532 659.564 508.467 696 569.025 696 c 0
 644.465 696 674.021 652.005 681.364 633.074 c 1
 703.979 607.02 738.483 516.499 738.483 409.687 c 0
 738.483 401.753 738.292 393.729 737.893 385.636 c 1
 735.599 329.58 725.931 270.182 725.931 221.286 c 0
 725.931 183.385 731.74 151.794 751.297 132.963 c 1
 769.318 160.165 799.651 175.439 827.69 175.439 c 0
 865.65 175.439 890.286 150.135 890.286 118.669 c 0
 890.286 116.003 890.109 113.294 889.749 110.552 c 1
 888.837 105.382 l 0
 879.389 51.7969 824.996 -12 738.64 -12 c 0
 643.806 -12 567.244 57.4697 559.045 172.262 c 1
 559.099 176.599 l 1
 538.697 171.376 521.532 169.13 504.108 168.5 c 1
 496.906 168.5 l 0
 479.793 168.5 465.305 170.675 456.298 172.279 c 1
 433.124 113.737 396.178 60.3193 326.889 25.374 c 1
 292.678 4.51758 256.69 -6.66699 221.455 -8.92969 c 0
 220.367 -9 l 1
 208.293 -9 l 0
 118.005 -9 62.364 45.8106 62.364 96.7057 c 0
 62.364 100.674 62.7023 104.618 63.3887 108.511 c 0
499.953 318.736 m 1
 509.262 316.375 518.133 315.5 526.125 315.5 c 0
 534.444 315.5 557.074 320.604 571.622 336.449 c 1
 574.228 361.453 576.086 381.292 576.086 402.376 c 0
 576.086 409.999 575.843 417.785 575.305 426.037 c 1
 544.86 400.834 522.988 380.628 499.953 318.736 c 1
EndSplineSet
EndChar

StartChar: B
Encoding: 66 66 26
Width: 724
VWidth: -1282
Flags: W
HStem: -1.44336 141.17<264.24 449.788> 613.5 107.5<354.822 428.194> 728 20G<168.69 203.347>
VStem: 188.916 175.156<461.299 584.128> 453.839 157.787<490.594 586.91> 495.685 144.959<179.904 289.606>
LayerCount: 2
Fore
SplineSet
100.604 675.5 m 0xf4
 108.363 719.511 150.493 748 186.887 748 c 0
 219.807 748 240.451 726.965 254.865 716.311 c 1
 266.956 718.337 269.597 718 273.862 718 c 0
 290.344 718 302.138 713.957 310.253 710.787 c 1
 342.285 719.021 366.631 721 391.679 721 c 0
 528.051 721 611.626 643.772 611.626 547.636 c 0xf8
 611.626 537.742 610.741 527.647 608.937 517.416 c 0
 603.479 486.467 590.504 458.283 573.068 433.268 c 1
 565.354 422.467 557.188 417.054 553.553 414.34 c 1
 566.36 409.388 575.518 405.057 583.273 397.776 c 1
 614.287 367.792 640.644 320.153 640.644 259.515 c 0
 640.644 247.213 639.559 234.375 637.208 221.041 c 0
 614.354 91.4307 488.994 -1.44336 332.176 -1.44336 c 0
 306.646 -1.44336 267.598 1.49414 220.539 13.0811 c 1
 200.469 0.165039 179.088 -5 160.595 -5 c 0
 101.198 -5 90.1064 38.2051 86.4033 61.8789 c 1
 61.0899 76.8685 34.3891 93.8926 34.3891 124.817 c 0
 34.3891 128.106 34.6912 131.553 35.3291 135.171 c 0
 42.0791 173.456 78.8389 197.09 112.412 200.192 c 1
 144.637 280.239 117.707 199.125 152.557 340.319 c 1
 164.678 390.44 179.076 432.735 185.293 467.992 c 0
 187.795 482.183 188.916 495.071 188.916 506.783 c 0
 188.916 572.068 154.099 600.832 129.61 615.049 c 1
 108.084 626.756 99.6472 646.085 99.6472 664.636 c 0
 99.6472 668.31 99.978 671.953 100.604 675.5 c 0xf4
355.056 139.727 m 0
 437.369 139.727 486.615 178.065 494.281 221.542 c 0
 495.227 226.905 495.685 232.086 495.685 237.077 c 0xf4
 495.685 287.801 448.355 319.031 383.99 324.137 c 1
 383.693 324.167 382.875 324.481 382.582 324.533 c 1
 363.757 321.35 349.201 319.5 333.916 319.5 c 0
 326.317 319.5 321.283 319.712 318.202 319.842 c 1
 309.328 285.527 301.918 248.686 286.177 209.259 c 1
 276.384 185.797 267.533 167.383 262.287 154.6 c 1
 307.605 141.431 337.069 139.727 355.056 139.727 c 0
372.724 613.5 m 0
 363.354 613.5 356.699 614.178 353.594 614.41 c 1
 360.383 589.021 364.072 562.532 364.072 534.521 c 0
 364.072 515.294 362.333 495.349 358.666 474.551 c 0
 357.481 467.834 356.603 463.614 355.964 460.52 c 1
 356.451 460.509 356.94 460.5 357.593 460.5 c 0
 407.119 460.5 446.777 495.296 452.916 530.112 c 0
 453.543 533.666 453.839 537.116 453.839 540.46 c 0xf8
 453.839 587.394 395.473 613.5 372.724 613.5 c 0
EndSplineSet
EndChar

StartChar: p
Encoding: 112 112 27
Width: 493
VWidth: -1282
Flags: W
HStem: -255 21G<23.7108 53.8198> -2.82617 328.081<319.143 423.142> 361 20G<127.442 171.993>
VStem: 338.048 146.724<133.895 255.011>
LayerCount: 2
Fore
SplineSet
60.6982 100.106 m 1
 71.0439 140.712 78.5664 165.09 82.9951 190.204 c 0
 85.1394 202.364 86.0397 212.407 86.0397 220.853 c 0
 86.0397 265.102 61.3237 265.493 61.3237 296.808 c 0
 61.3237 300.813 61.7282 305.325 62.6406 310.5 c 0
 70.0879 352.733 109.312 381 145.572 381 c 0
 146.572 381 l 0
 197.413 381 221.03 328.043 233.838 296.283 c 1
 273.228 314.085 319.143 325.255 369.681 325.255 c 0
 423.142 325.255 484.773 297.951 484.773 212.072 c 0
 484.773 200.393 483.633 187.631 481.178 173.707 c 0
 474.35 134.984 449.455 34.3623 281.388 3.65723 c 1
 253.242 -0.300781 229.564 -2.03613 208.206 -2.82617 c 1
 206.446 -17.8486 204.858 -28.0596 202.959 -38.835 c 0
 193.647 -91.6436 172.159 -152.736 120.428 -213.718 c 1
 97.584 -242.433 65.2119 -255 42.4277 -255 c 0
 4.99388 -255 -16.7243 -228.101 -16.7243 -196.737 c 0
 -16.7243 -192.715 -16.3673 -188.621 -15.6406 -184.5 c 0
 -7.93066 -140.774 25.7676 -120.921 38.7969 -47.0283 c 0
 42.5244 -25.8906 44.5381 -2.03711 47.1162 21.5342 c 1
 42.3887 32.7042 40.5754 41.7941 40.5754 49.9784 c 0
 40.5754 53.463 40.9041 56.7834 41.4766 60.0303 c 0
 46.4082 88.0029 57.0703 91.1406 60.6982 100.106 c 1
332 154.489 m 0
 333.828 160.432 334.913 165.789 335.633 169.875 c 0
 337.319 179.435 338.048 189.05 338.048 196.802 c 0
 338.048 201.465 337.784 205.454 337.306 208.351 c 1
 324.613 202.456 309.343 188.226 297.939 178.149 c 1
 272.417 154.168 255.187 134.247 239.229 112.039 c 1
 307.226 117.749 327.262 139.088 332 154.489 c 0
EndSplineSet
EndChar

StartChar: n
Encoding: 110 110 28
Width: 410
VWidth: -1282
Flags: W
HStem: -5 21G<63.84 100.743 257.031 289.548> 312 20G<100.066 134.52 230.38 289.402>
VStem: 203.658 149.481<17.7122 90.9301>
LayerCount: 2
Fore
SplineSet
22.5762 52.3438 m 1
 25.9873 78.042 29.5986 98.0967 32.4102 119.455 c 0
 37.1074 146.095 33.0723 134.015 37.4023 159.123 c 1
 40.7998 184.012 44.5879 211.308 45.9316 230.518 c 1
 40.583 239.188 37.8945 250.616 37.8154 261.628 c 0
 37.8027 263.462 l 1
 38.3213 266.406 37.9492 269.967 38.1914 271.342 c 0
 44.498 307.109 82.3418 330.683 117.79 332 c 1
 120.388 332 l 0
 148.652 332 162.586 315.014 167.719 308.314 c 1
 192.525 320.988 216.901 329 243.858 329 c 0
 334.946 329 364.144 259.978 364.144 220.456 c 0
 364.144 216.358 363.83 212.577 363.238 209.224 c 0
 361.729 200.66 l 1
 360.158 184.702 356.562 165.684 354.397 153.414 c 0
 350.102 129.05 346.763 105.167 345.556 91.3672 c 1
 351.148 82.0279 353.139 73.5727 353.139 65.6478 c 0
 353.139 62.4851 352.822 59.4069 352.29 56.3906 c 0
 345.988 20.6494 308.131 -5 270.965 -5 c 0
 243.098 -5 201.979 19.959 203.658 79.542 c 1
 204.76 112.441 211.471 148.154 216.821 178.5 c 0
 219.843 195.634 222.922 218.768 224.813 229.5 c 0
 225.199 231.684 225.093 235.442 225.087 235.766 c 1
 224.33 238.352 l 1
 214.199 232.194 206.397 226.69 203.315 224.443 c 1
 195.546 213.234 184.96 187.191 183.166 180.454 c 1
 180.183 163.006 178.786 150.162 176.517 137.075 c 1
 172.899 110.215 169.891 88.1543 166.249 67.5 c 0
 165.544 63.5 l 0
 158.097 21.2666 118.873 -7 82.6123 -7 c 0
 45.0677 -7 21.9769 17.7082 21.9769 44.9184 c 0
 21.9769 46.8897 22.0981 48.8742 22.3438 50.8633 c 0
 22.4102 51.4004 l 1
 22.5762 52.3438 l 1
EndSplineSet
EndChar

StartChar: m
Encoding: 109 109 29
Width: 603
VWidth: -1282
Flags: W
HStem: -5 329.904<53.5057 140.436 224.484 336.276 425.871 526.581>
VStem: 400.873 146.641<15.9318 211.388>
LayerCount: 2
Fore
SplineSet
219.314 204.5 m 0
 220.983 213.965 223.421 218.128 223.768 218.963 c 0
 223.48 226.639 223.244 229.399 223.166 230.454 c 1
 211.481 222.752 201.038 212.003 194.414 203.676 c 1
 192.295 189.709 191.21 178.859 189.207 167.5 c 0
 184.226 139.251 178.872 109.638 173.267 84.1133 c 1
 170.571 70.1045 169.242 68.3525 168.281 62.9023 c 1
 158.589 20.8174 113.767 -5 79.0537 -5 c 0
 40.9471 -5 18.4345 18.9537 18.4345 46.5242 c 0
 18.4345 49.51 18.6985 52.5382 19.2354 55.583 c 0
 19.8418 59.0205 l 0
 21.8164 70.2158 23.0752 71.6885 23.8008 75.8018 c 1
 29.2754 100.564 32.6455 120.293 36.54 142.376 c 0
 38.166 151.601 39.3604 163.072 40.5879 170.844 c 1
 39.8643 177.56 40.2588 180.479 40.8125 183.624 c 0
 42.4004 192.63 44.3818 194.459 44.5742 194.883 c 1
 45.9814 207.558 47.623 221.222 48.6826 230.542 c 1
 41.8637 239.067 37.397 250.255 37.397 262.178 c 0
 37.397 264.894 37.6288 267.648 38.1172 270.417 c 0
 44.416 306.141 82.2539 329.685 117.701 331 c 1
 119.299 331 l 0
 139.919 331 155.966 322.167 164.95 311.259 c 1
 168.565 307.198 l 1
 192.637 317.908 221.72 324.904 252.602 324.904 c 0
 288.256 324.904 316.789 315.26 337.24 301.873 c 1
 368.976 318.362 405.623 330 443.143 330 c 0
 501.959 330 565.908 296.47 565.908 211.889 c 0
 565.908 201.218 564.89 189.735 562.716 177.404 c 0
 558.508 153.537 553.574 136.902 551.318 124.104 c 0
 551.208 123.482 l 1
 551.061 122.861 l 0
 550.141 118.988 549.809 117.016 549.54 115.495 c 0
 547.895 106.169 547.514 96.6784 547.514 87.8198 c 0
 547.514 80.1551 547.8 72.9634 547.8 66.7597 c 0
 547.8 62.0045 547.632 57.8298 547.039 54.4678 c 0
 540.605 17.9824 501.158 -7 464.701 -7 c 0
 413.563 -7 400.873 31.2938 400.873 72.4942 c 0
 400.873 92.8267 403.964 113.867 407.049 131.362 c 0
 411.784 158.22 418.472 179.526 423.404 207.5 c 0
 426.784 226.67 425.039 235.01 423.965 239.12 c 1
 412.295 230.202 404.492 219.582 399.876 211.866 c 1
 398.71 191.834 396.669 178.379 394.196 164.354 c 0
 392.117 152.562 390.091 143.227 388.315 135.371 c 0
 371.714 62.3438 l 1
 362.259 21.2842 315.438 -5 272.362 -5 c 0
 224.745 -5 196.413 23.2521 196.413 55.6082 c 0
 196.413 58.8719 196.701 62.1775 197.287 65.5 c 0
 197.564 67.0732 l 1
 203.588 93.4883 207.532 116.085 212.742 139.071 c 1
 219.595 177.933 l 1
 217.546 188.256 217.615 194.865 218.785 201.5 c 0
 219.314 204.5 l 0
EndSplineSet
EndChar

StartChar: f
Encoding: 102 102 30
Width: 424
VWidth: -1282
Flags: W
HStem: 389 20G<412.424 444.797> 591 161.107<393.53 495.867>
LayerCount: 2
Fore
SplineSet
440.859 591 m 0
 405.626 591 393.521 610.991 393.521 610.991 c 2
 390.636 610.812 363.741 606.178 355.65 560.294 c 0
 349.093 523.104 355.923 535.103 338.866 366.456 c 1
 341.021 366.764 349.846 369.989 354.091 372.345 c 1
 373.35 396.66 401.08 409 423.769 409 c 0
 425.769 409 l 0
 463.826 409 484.746 380.901 484.746 349.811 c 0
 484.746 345.74 484.387 341.617 483.661 337.5 c 0
 475.248 289.788 400.941 241.891 324.368 236.337 c 1
 324.257 235.438 324.406 236.583 324.286 235.684 c 0
 321.262 213.051 318.669 191.885 314.885 170.426 c 0
 303.913 108.199 266.453 -60.7021 25.1475 -153.805 c 1
 23.5391 -154.666 l 1
 22.6016 -155.097 l 0
 10.5176 -160.649 -1.91309 -164 -13.2676 -164 c 0
 -50.7019 -164 -72.4194 -137.1 -72.4194 -105.736 c 0
 -72.4194 -101.715 -72.0625 -97.6204 -71.3359 -93.5 c 0
 -53.6533 6.7832 85.9668 -49.4482 127.494 186.063 c 0
 130.188 201.338 136.179 245.61 139.166 268.734 c 1
 132.515 265.418 104.26 234.217 64.9492 234.217 c 0
 27.0334 234.217 4.7493 259.029 4.7493 287.692 c 0
 4.7493 290.956 5.03825 294.27 5.62598 297.603 c 0
 13.208 340.603 74.7471 391.049 153.082 396.518 c 1
 160.663 475.468 161.211 520.176 167.706 557.012 c 0
 192.789 699.265 326.462 752.107 414.483 752.107 c 0
 472.917 752.107 525.894 722.133 525.894 673.799 c 0
 525.894 669.822 525.535 665.72 524.791 661.5 c 0
 517.201 618.459 476.419 591 440.859 591 c 0
EndSplineSet
EndChar

StartChar: k
Encoding: 107 107 31
Width: 500
VWidth: -1282
Flags: W
HStem: -9 21G<12.7884 46.6318> 306.127 20G<246.412 300.429> 618.333 137.667<222.623 325.666>
VStem: -28.3664 147.737<17.8158 79.0361> 46.7286 148.883<388.45 589.861> 50.6944 158.132<324.19 499.763>
LayerCount: 2
Fore
SplineSet
218.576 182.27 m 0xe0
 206.559 182.27 198.218 177.985 191.661 173.644 c 1
 204.134 172.49 203.846 172.078 204.051 172.045 c 1
 226.34 172.614 235.99 175.54 240.334 177.083 c 1
 233.537 180.807 226.928 181.912 226.136 182 c 1
 224.433 182 l 1
 222.417 182.137 l 0
 219.352 182.346 219.306 182.27 218.576 182.27 c 0xe0
207.226 323.06 m 1
 228.051 325.702 239.978 326.127 252.846 326.127 c 0
 348.011 326.127 405.515 277.981 405.515 221.606 c 0
 405.515 216.709 405.081 211.75 404.2 206.756 c 0
 395.589 157.918 352.506 130.391 329.557 118.428 c 1
 336.483 119.355 335.523 119 337.291 119 c 0
 374.725 119 396.443 92.1 396.443 60.7357 c 0
 396.443 56.7147 396.086 52.6204 395.359 48.5 c 0
 387.341 3.02344 337.124 -39.2373 283.278 -39.2373 c 0
 190.895 -39.2373 165.287 22.8779 151.459 58.7852 c 1
 147.648 67.7686 141.129 74.8379 134.828 80.6709 c 1
 129.117 67.7705 123.294 55.665 119.371 48.2246 c 1
 99.6123 9.55176 61.543 -9 31.7207 -9 c 0
 -6.14391 -9 -28.3664 16.0414 -28.3664 44.9985 c 0xf0
 -28.3664 48.3395 -28.0705 51.7327 -27.4688 55.1455 c 0
 -23.1816 79.4561 19.6689 160.634 40.1904 277.017 c 0
 48.3753 323.436 50.6944 357.93 50.6944 386.694 c 0xe4
 50.6944 424.307 46.7286 452.119 46.7286 483.98 c 0
 46.7286 502.458 48.0625 522.298 52.2773 546.201 c 0
 81.6465 712.765 217.717 756 263.548 756 c 0
 267.423 756 l 1
 323.792 754.348 357.194 726.8 357.194 694.76 c 0
 357.194 692.035 356.953 689.277 356.463 686.5 c 0
 350.596 653.225 312.465 626.934 271.344 618.333 c 1
 231.449 609.038 205.907 589.221 197.57 541.938 c 0
 196.185 534.083 195.612 526.462 195.612 518.768 c 0xe8
 195.612 481.828 208.827 443.229 208.827 369.174 c 0xe4
 208.827 355.15 208.353 339.855 207.226 323.06 c 1
EndSplineSet
EndChar

StartChar: c
Encoding: 99 99 32
Width: 358
VWidth: -1282
Flags: W
HStem: -1.87695 21G<112.228 193.328> 191.875 135.125<199.727 306.657>
VStem: 10.9064 144.915<84.1843 207.976>
LayerCount: 2
Fore
SplineSet
149.347 -1.87695 m 0
 75.1094 -1.87695 10.9064 43.3624 10.9064 125.006 c 0
 10.9064 134.629 11.7983 144.758 13.6709 155.378 c 0
 34.4512 273.229 140.354 327 218.495 327 c 0
 289.754 327 341.374 290.418 341.374 253.244 c 0
 341.374 250.932 341.174 248.618 340.768 246.311 c 0
 334.907 213.077 295.229 191.875 259.669 191.875 c 0
 201.87 191.875 203.205 217.075 197.584 217.381 c 1
 189.216 215.24 176.794 208.568 175.535 207.442 c 1
 159.723 193.664 162.272 199.118 158.589 178.231 c 0
 157.859 174.094 157.463 171.342 157.061 168.576 c 1
 156.202 163.707 155.822 159.675 155.822 156.336 c 0
 155.822 142.085 162.756 140.485 169.042 140.485 c 0
 170.861 140.485 172.626 140.619 174.152 140.619 c 0
 182.589 140.619 185.813 143.854 186.804 144.707 c 1
 204.558 175.31 234.895 191 261.515 191 c 0
 298.949 191 320.667 164.101 320.667 132.737 c 0
 320.667 128.715 320.31 124.621 319.583 120.5 c 0
 310.18 67.1689 237.309 -1.87695 149.347 -1.87695 c 0
EndSplineSet
EndChar

StartChar: h
Encoding: 104 104 33
Width: 389
VWidth: -1282
Flags: W
HStem: -171 135.65<33.0106 102.004> -8 21G<22.6604 57.5312> 607.278 138.722<225.8 297.286>
VStem: 199.411 138.075<104.659 230.548>
LayerCount: 2
Fore
SplineSet
39.041 279.611 m 0
 63.8672 420.407 54.2588 486.617 63.5986 539.582 c 0
 90.9434 694.662 226.672 746 260.346 746 c 0
 263.346 746 l 0
 300.78 746 322.498 719.1 322.498 687.735 c 0
 322.498 683.714 322.142 679.62 321.415 675.5 c 0
 315.365 641.191 286.715 615.689 259.214 607.278 c 1
 237.728 600.13 213.25 584.513 205.264 539.217 c 0
 200.291 511.02 198.34 416.274 185.107 317.135 c 1
 197.508 319.55 204.074 319.792 211.13 319.792 c 0
 288.005 319.792 337.486 262.718 337.486 187.074 c 0
 337.486 176.608 336.539 165.787 334.586 154.712 c 0
 330.647 132.375 306.289 29.3477 252.021 -40.3271 c 1
 198.49 -115.911 115.156 -171 70.6543 -171 c 0
 32.5973 -171 11.6768 -142.901 11.6768 -111.812 c 0
 11.6768 -107.74 12.0356 -103.618 12.7617 -99.5 c 0
 18.0234 -69.6582 41.0557 -45.8164 65.4072 -35.3496 c 1
 142.776 -0.28418 167.338 76.9609 182.327 122.896 c 1
 190.839 147.197 195.461 165.344 198.485 182.5 c 0
 199.051 185.705 199.411 191.508 199.411 198.096 c 0
 199.411 210.478 198.139 225.633 194.567 231.528 c 1
 183.765 218.584 151.213 144.773 142.521 121.641 c 1
 135.159 94.1953 127.835 73.8877 121.359 52.7764 c 1
 109.354 15.1641 73.667 -8 41.3955 -8 c 0
 3.92521 -8 -19.6939 16.5444 -19.6939 46.0789 c 0
 -19.6939 49.3553 -19.4032 52.693 -18.8086 56.0654 c 0
 -18.2354 59.3115 l 1
 -7.74121 106.544 15.8564 148.129 39.041 279.611 c 0
EndSplineSet
EndChar

StartChar: b
Encoding: 98 98 34
Width: 495
VWidth: -1282
Flags: W
HStem: 1.63184 141.748<200.919 274.643> 306.255 20G<304.356 345.461> 723 20G<186.59 227.317>
VStem: 62.6886 161.231<314.277 580.609> 122.663 161.444<623.326 720.38> 291.687 140.9<164.471 235.152>
LayerCount: 2
Fore
SplineSet
54.7861 215.547 m 1xf4
 56.6836 224.231 57.2559 227.444 58.0303 231.837 c 0
 62.4933 257.148 63.5523 283.212 63.5523 310.708 c 0
 63.5523 335.54 62.6886 361.539 62.6886 389.205 c 0xf4
 62.6886 428.272 64.4109 470.663 72.7197 517.784 c 0
 83.085 576.57 100.491 634.356 122.663 687.55 c 1
 136.119 722.333 171.911 743 201.27 743 c 0
 202.27 743 l 0
 252.364 743 284.107 712.644 284.107 680.814 c 0xec
 284.107 678.047 283.867 675.27 283.379 672.5 c 0
 277.479 639.044 245.728 603.658 230.249 515.872 c 0
 225.53 489.108 223.919 464.164 223.919 439.988 c 0
 223.919 397.611 228.867 357.595 230.695 314.277 c 1
 262.083 322.958 289.594 326.255 319.118 326.255 c 0
 371.803 326.255 432.587 299.854 432.587 212.047 c 0
 432.587 199.556 431.357 185.822 428.698 170.744 c 0
 404.821 35.3359 270.596 1.63184 185.004 1.63184 c 0
 152.386 1.63184 123.84 5.90723 100.699 11.0586 c 1
 80.1963 0.845703 65.9209 -3 52.7305 -3 c 0
 14.1961 -3 -7.25437 23.0566 -7.25437 51.5935 c 0
 -7.25437 54.931 -6.96097 58.3023 -6.36719 61.6699 c 0
 -5.2959 67.7412 l 1
 -4.81348 69.2773 l 0
 -2.67285 76.083 -0.763672 80.623 -0.317383 81.7852 c 1
 -12.8445 103.974 -20.3347 123.424 -20.3347 141.463 c 0
 -20.3347 145.067 -20.0357 148.616 -19.418 152.118 c 0
 -13.0322 188.335 21.332 211.858 54.7861 215.547 c 1xf4
210.754 143.392 m 0
 237.233 143.392 279.256 146.181 288.896 200.853 c 0
 291.092 213.307 291.687 222.075 291.687 228.066 c 0
 291.687 232.05 291.424 234.805 291.194 236.6 c 1
 276.963 229.641 244.476 204.854 207.247 157.93 c 1
 203.41 148.814 202.372 147.131 200.689 143.766 c 1
 205.647 143.433 207.379 143.379 208.743 143.379 c 0
 209.394 143.379 209.961 143.392 210.754 143.392 c 0
EndSplineSet
EndChar

StartChar: s
Encoding: 115 115 35
Width: 357
VWidth: -1282
Flags: W
HStem: -2.65137 21G<105.176 181.45> 311.126 20G<161.592 245.447>
VStem: 3.17035 335.601
LayerCount: 2
Fore
SplineSet
338.771 230.999 m 0
 334.175 204.926 311.357 186.145 292.283 177.932 c 1
 306.89 163.101 314.862 144.401 314.862 123.368 c 0
 314.862 118.336 314.405 113.17 313.475 107.893 c 0
 300.899 36.5723 216.291 -2.65137 146.608 -2.65137 c 0
 63.744 -2.65137 3.17035 47.4577 3.17035 92.7944 c 0
 3.17035 95.6736 3.41466 98.5336 3.91309 101.36 c 0
 9.06152 130.561 35.5498 150.939 60.7578 158.428 c 1
 49.3278 174.035 43.9902 190.388 43.9902 208.224 c 0
 43.9902 213.908 44.5322 219.742 45.5918 225.751 c 0
 54.8398 278.201 119.489 331.126 203.695 331.126 c 0
 287.198 331.126 339.387 277.64 339.387 238.204 c 0
 339.387 235.742 339.183 233.335 338.771 230.999 c 0
EndSplineSet
EndChar

StartChar: e
Encoding: 101 101 36
Width: 461
VWidth: -1282
Flags: W
HStem: -2 21G<107.634 206.256> 309 20G<175.095 270.104>
LayerCount: 2
Fore
SplineSet
160.617 -2 m 0
 54.6498 -2 10.6928 61.3874 10.6928 126.248 c 0
 10.6928 134.828 11.4621 143.435 12.959 151.924 c 0
 29.5195 245.846 118.151 329 232.039 329 c 0
 308.17 329 357.016 303.712 371.54 279.967 c 1
 387.327 286.605 397.27 288.697 407.575 288.697 c 0
 445.69 288.697 468.214 264.783 468.214 237.263 c 0
 468.214 234.29 467.951 231.274 467.416 228.242 c 0
 463.931 208.475 449.587 190.744 432.571 180.589 c 1
 405.956 164.229 381.171 152.14 357.379 142.283 c 1
 370.614 131.459 375.838 118.24 375.838 104.896 c 0
 375.838 101.704 375.539 98.5039 374.979 95.3281 c 0
 364.731 37.209 251.896 -2 160.617 -2 c 0
EndSplineSet
EndChar

StartChar: r
Encoding: 114 114 37
Width: 399
VWidth: -1282
Flags: W
HStem: -4 21G<64.1892 101.095> 117.819 210.181<223.418 321.219>
VStem: 22.9121 341.368
LayerCount: 2
Fore
SplineSet
22.9121 55.2451 m 1
 31.7256 122.244 l 2
 33.877 134.443 33.6533 133.582 33.8545 135.077 c 1
 33.8418 135.925 33.8408 135.096 33.8506 135.946 c 0
 33.9004 140.588 35.3232 148.321 37.7012 161.805 c 1
 40.8906 185.229 44.3154 210.443 45.5947 229.312 c 1
 39.6162 238.189 36.5674 249.562 36.4834 260.745 c 0
 36.4697 262.576 l 1
 37.8564 270.442 l 0
 43.9961 305.261 81.0137 331 119.035 331 c 0
 147.697 331 161.926 314.647 167.164 307.207 c 1
 190.443 319.22 216.405 328 243.506 328 c 0
 349.808 328 364.28 241.852 364.28 210.661 c 0
 364.28 206.512 364.024 203.335 363.694 201.463 c 0
 360.093 181.041 342.127 117.819 275.445 117.819 c 0
 237.744 117.819 213.82 141.277 213.82 169.389 c 0
 213.82 172.316 214.079 175.293 214.609 178.3 c 0
 216.448 188.725 216.433 184.743 216.907 185.915 c 1
 217.98 188.68 217.856 188.525 217.856 188.525 c 0
 220.414 195.111 220.158 197.117 220.267 198.105 c 1
 219.085 201.936 218.334 203.543 218.206 203.869 c 1
 209.088 199.978 200.256 193.959 195.894 190.851 c 1
 189.057 182.396 180.539 162.971 178.824 156.832 c 1
 176.271 141.818 175.203 130.84 173.259 119.6 c 1
 170.315 96.5566 167.859 77.6309 164.734 59.9121 c 0
 164.13 56.4805 l 0
 157.741 20.25 119.226 -4 82.9648 -4 c 0
 45.4137 -4 22.3146 20.676 22.3146 47.8468 c 0
 22.3146 49.8101 22.4352 51.7865 22.6797 53.7676 c 0
 22.7451 54.3027 l 1
 22.9121 55.2451 l 1
EndSplineSet
EndChar

StartChar: o
Encoding: 111 111 38
Width: 370
VWidth: -1282
Flags: W
HStem: -3.15137 21G<107.524 200.956> 308 20G<166.269 220.029>
VStem: 11.9655 141.853<114.408 199.123> 200.854 141.657<122.287 211.43>
LayerCount: 2
Fore
SplineSet
339.36 169.606 m 0
 326.61 97.2969 257.607 -3.15137 144.304 -3.15137 c 0
 70.7452 -3.15137 11.9655 46.7416 11.9655 125.259 c 0
 11.9655 134.853 12.8431 144.875 14.6787 155.285 c 0
 29.7803 240.932 113.842 328 218.695 328 c 0
 219.366 328 l 1
 220.029 327.968 l 0
 292.152 324.927 342.511 271.693 342.511 201.38 c 0
 342.511 192.903 341.779 184.178 340.265 175.263 c 1
 339.486 169.96 339.624 171.105 339.36 169.606 c 0
199.394 176 m 0
 200.428 181.867 200.854 186.746 200.854 190.819 c 0
 200.854 205.39 195.402 209.636 192.862 211.812 c 1
 179.655 203.607 160.712 184.007 155.689 155.523 c 0
 154.362 147.992 153.819 141.743 153.819 136.555 c 0
 153.819 115.989 162.349 112.083 164.351 111.06 c 1
 171.176 114.475 191.116 129.058 199.394 176 c 0
EndSplineSet
EndChar

StartChar: j
Encoding: 106 106 39
Width: 264
VWidth: -1282
Flags: W
HStem: -248.996 141.615<-112.922 -24.0507> 310 20G<100.688 148.51> 401 148<95.7059 185.219>
VStem: 53.3755 143.26<110.761 279.267> 66.0862 148.253<430.69 519.96>
LayerCount: 2
Fore
SplineSet
152.854 549 m 0xe8
 191.621 549 214.34 520.081 214.34 487.213 c 0
 214.34 483.022 213.97 478.767 213.218 474.5 c 0
 205.362 429.95 163.461 401 126.758 401 c 0
 88.2672 401 66.0862 429.222 66.0862 461.703 c 0
 66.0862 465.914 66.4592 470.197 67.2178 474.5 c 0
 74.8369 517.713 114.746 549 152.854 549 c 0xe8
-35.1953 -105.706 m 1
 -19.2373 -98.998 -4.17969 -82.0205 6.80762 -53.501 c 1
 -7.7373 -81.5498 -34.5195 -98.1025 -58.7568 -102.304 c 1
 -57.4834 -104.456 -53.1064 -107.381 -45.9121 -107.381 c 0
 -42.1191 -107.381 -37.7939 -106.444 -35.1953 -105.706 c 1
-44.249 38 m 0
 -6.72167 38 14.8355 10.2296 14.8355 -21.0837 c 0
 14.8355 -23.2218 14.735 -25.3765 14.5322 -27.54 c 1
 15.7559 -22.0859 16.2871 -19.0537 16.6689 -16.8848 c 0
 22.1221 14.0391 19.0088 49.9746 27.1758 96.2891 c 0
 34.1387 135.779 48.8711 171.885 52.3496 191.612 c 0
 53.0628 195.657 53.3755 199.219 53.3755 202.409 c 0xf0
 53.3755 225.128 37.5215 229.023 37.5215 254.374 c 0
 37.5215 258.413 37.9237 262.995 38.8564 268.285 c 0
 44.9873 303.055 82.1387 330 119.238 330 c 0
 120.238 330 l 0
 176.782 330 196.635 275.88 196.635 223.972 c 0
 196.635 211.745 195.534 199.641 193.551 188.396 c 0
 186.41 147.896 174.037 122.591 169.986 99.6221 c 0
 164.124 66.3701 164.573 20.3125 157.13 -21.9053 c 0
 127.745 -188.552 4.10938 -248.996 -72.6777 -248.996 c 0
 -153.167 -248.996 -202.076 -191.864 -202.076 -123.985 c 0
 -202.076 -115.624 -201.334 -107.1 -199.817 -98.5 c 0
 -187.927 -31.0615 -122.021 33.752 -49.873 37.9521 c 0
 -49.0576 38 l 1
 -44.249 38 l 0
EndSplineSet
EndChar

StartChar: i
Encoding: 105 105 40
Width: 269
VWidth: -1282
Flags: W
HStem: -4.49512 21G<48.5197 98.1416> 394 148<82.5326 172.046>
VStem: -5.94297 181.65<27.3716 118.576> 40.6474 145.4<142.691 305.246> 52.9131 148.253<423.689 512.959>
LayerCount: 2
Fore
SplineSet
139.681 542 m 0xc8
 178.448 542 201.166 513.08 201.166 480.212 c 0
 201.166 476.021 200.797 471.767 200.045 467.5 c 0
 192.189 422.95 150.288 394 113.585 394 c 0
 75.0947 394 52.9131 422.221 52.9131 454.702 c 0
 52.9131 458.914 53.2861 463.197 54.0449 467.5 c 0
 61.6641 510.713 101.572 542 139.681 542 c 0xc8
-4.81738 79.7998 m 0
 3.08984 124.642 35.9189 174.717 39.4785 194.901 c 0
 40.3072 199.601 40.6474 203.66 40.6474 207.276 c 0
 40.6474 223.874 33.4809 231.153 33.4809 248.286 c 0
 33.4809 252.165 33.8484 256.551 34.75 261.664 c 0
 41.123 297.809 79.6279 322 115.889 322 c 0
 118.805 322 l 1
 119.707 321.939 l 0
 175.364 318.731 186.047 271.427 186.047 235.345 c 0xd0
 186.047 213.692 182.2 196.081 181.915 194.469 c 0
 176.159 161.821 163.886 138.975 153.711 119.098 c 1
 168.591 108.027 175.707 93.5649 175.707 78.5323 c 0
 175.707 75.6876 175.453 72.8225 174.947 69.9561 c 0
 174.222 65.8408 l 1
 174.052 65.1504 l 0
 164.492 26.1426 120.741 -4.49512 75.542 -4.49512 c 0
 21.4975 -4.49512 -5.94297 30.4585 -5.94297 66.9834 c 0xe0
 -5.94297 71.2519 -5.56822 75.5417 -4.81738 79.7998 c 0
EndSplineSet
EndChar

StartChar: d
Encoding: 100 100 41
Width: 380
VWidth: -1282
Flags: W
HStem: -4 142<72.032 160.098> 598 160<242.635 343.803> 617 141<222.666 286.829>
VStem: -25.984 147.868<91.6942 206.951> 66.1954 144.05<384.945 611.779> 166.695 137.842<141.355 233.008>
LayerCount: 2
Fore
SplineSet
102.245 305.905 m 1xb4
 88.4571 342.909 66.1954 415.443 66.1954 498.595 c 0
 66.1954 522.548 68.0426 547.381 72.4717 572.5 c 0
 91.7939 682.08 182.9 758 265.681 758 c 0
 271.172 758 l 1
 328.628 755.934 373.42 723.429 373.42 679.979 c 0
 373.42 676.23 373.087 672.399 372.399 668.5 c 0
 364.81 625.459 324.027 598 288.469 598 c 0xc8
 253.098 598 242.627 617 242.627 617 c 1
 233.432 616.766 216.499 589.668 213.119 570.5 c 0
 212.334 566.045 210.245 550.215 210.245 526.602 c 0xa8
 210.245 487.242 216.047 426.257 243.353 360.276 c 1
 262.856 319.384 304.537 260.296 304.537 186.976 c 0
 304.537 176.185 303.634 165.086 301.625 153.691 c 0
 285.987 65.0068 204.139 -4 115.319 -4 c 0
 28.7448 -4 -25.984 56.5441 -25.984 126.844 c 0
 -25.984 134.794 -25.2842 142.868 -23.8516 150.993 c 0
 -18.6289 180.607 6.30176 251.638 102.245 305.905 c 1xb4
122.999 178.5 m 0
 122.226 174.113 121.884 170.177 121.884 166.648 c 0
 121.884 143.677 136.358 138 140.357 138 c 0
 141.822 138 159.647 148.15 164.999 178.5 c 0
 166.186 185.232 166.695 191.673 166.695 197.863 c 0x84
 166.695 211.64 164.173 224.175 160.986 235.915 c 1
 141.508 219.373 126.57 198.752 122.999 178.5 c 0
EndSplineSet
EndChar

StartChar: a
Encoding: 97 97 42
Width: 489
VWidth: -1282
Flags: W
HStem: -1.32422 21G<95.3901 159.72 314.286 325.908> 309.444 20G<272.7 278.305>
VStem: 8.08842 140.804<89.0056 150.415>
LayerCount: 2
Fore
SplineSet
137.143 -1.32422 m 0
 53.6376 -1.32422 8.08842 49.7597 8.08842 113.272 c 0
 8.08842 121.305 8.81718 129.538 10.29 137.891 c 0
 20.7236 197.064 89.2412 329 260.346 329 c 0
 262.418 329 270.58 329.444 274.82 329.444 c 0
 276.577 329.444 l 1
 278.305 329.336 l 0
 284.498 328.95 319.468 325.525 348.125 316.885 c 1
 364.559 323.493 374.507 325 383.878 325 c 0
 421.64 325 445.643 301.831 445.643 274.094 c 0
 445.643 271.255 445.392 268.368 444.878 265.453 c 0
 439.582 235.418 413.002 215.115 402.964 158.185 c 0
 402.343 154.651 l 1
 432.562 148.552 447.886 128.039 447.886 105.489 c 0
 447.886 102.527 447.621 99.5304 447.092 96.5264 c 0
 444.645 82.6475 438.128 74.126 433.081 67.5576 c 0
 432.675 67.0293 l 1
 415.594 46.8271 l 1
 406.983 37.1162 398.302 30.5879 388.438 25.999 c 1
 359.848 10.1182 l 1
 342.795 0.599609 331.421 -1 320.396 -1 c 0
 308.177 -1 276.661 5.52441 257.062 25.6074 c 1
 222.744 9.88672 182.297 -1.32422 137.143 -1.32422 c 0
228.773 188 m 1
 197.362 185.082 148.892 135.408 148.892 98.769 c 0
 148.892 93.37 150.664 89.7344 151.879 87.8066 c 1
 167.577 96.9482 198.406 129.667 237.299 188 c 1
 228.773 188 l 1
EndSplineSet
EndChar

StartChar: g
Encoding: 103 103 43
Width: 469
VWidth: -1282
Flags: W
HStem: -249.593 141.554<84.7177 206.378> 310.444 20G<308.305 314.422 404.31 427.718>
LayerCount: 2
Fore
SplineSet
469.762 265.924 m 0
 468.247 257.336 463.247 248.386 461.391 244.373 c 0
 437.438 198.533 427.942 163.468 421.961 129.542 c 0
 415.322 91.8945 412.002 51.2197 404.562 9.02832 c 0
 390.677 -69.7227 366.807 -141.929 300.914 -197.945 c 0
 270.66 -223.665 212.713 -249.593 129.308 -249.593 c 0
 40.1278 -249.593 -12.2173 -193.881 -12.2173 -125.384 c 0
 -12.2173 -117.343 -11.496 -109.126 -10.0283 -100.803 c 0
 -1.39551 -51.8447 34.0967 -3.14062 83.2119 23.1963 c 1
 49.5586 45.0712 33.5377 80.1446 33.5377 117.381 c 0
 33.5377 125.179 34.2403 133.072 35.6309 140.959 c 0
 45.9521 199.493 114.218 330 294.82 330 c 0
 297.083 330 305.989 330.444 310.62 330.444 c 0
 312.534 330.444 l 1
 314.422 330.336 l 0
 320.328 330 356.184 326.596 375.707 317.951 c 1
 389.825 324.478 399.765 326 408.854 326 c 0
 446.582 326 470.541 302.667 470.541 274.717 c 0
 470.541 271.828 470.285 268.89 469.762 265.924 c 0
246.93 9.43262 m 1
 238.854 7.33789 238.371 7.33496 235.857 6.77051 c 1
 240.902 -0.266602 242.515 -4.9834 243.497 -8.13672 c 1
 244.533 -3.83008 244.819 -2.48438 244.913 -2.0752 c 1
 246.066 4.4668 246.642 7.77148 246.93 9.43262 c 1
213.016 -77.7285 m 1
 217.16 -72.9092 219.546 -69.2734 221.598 -65.9668 c 1
 199.588 -84.6719 167.286 -95.6436 140.79 -98.5381 c 1
 139.067 -99.2637 137.053 -100.759 136.64 -101.11 c 1
 137.62 -104.544 142.009 -108.039 153.491 -108.039 c 0
 168.893 -108.039 197.215 -96.7344 213.016 -77.7285 c 1
262.616 189 m 1
 225.166 185.768 184.232 135.265 178.809 104.5 c 0
 178.412 102.25 178.249 100.298 178.249 98.5972 c 0
 178.249 93.6825 179.608 90.8604 180.607 88.9814 c 1
 197.93 98.4707 230.819 131.233 271.94 189 c 1
 262.616 189 l 1
EndSplineSet
EndChar

StartChar: l
Encoding: 108 108 44
Width: 247
VWidth: -1282
Flags: W
HStem: -6.49512 21G<30.155 81.4277>
VStem: -22.0884 180.546<29.2062 125.67> 94.1152 137.822<612.804 711.363>
LayerCount: 2
Fore
SplineSet
-20.5508 87.0244 m 0xc0
 -12.9434 130.168 17.6504 192.815 25.8662 239.41 c 0
 39.1455 314.723 25.1338 396.795 44.29 505.438 c 0
 54.8506 565.327 72.0684 623.84 94.1152 678.388 c 1
 107.688 713.47 143.415 734 172.784 734 c 0
 210.219 734 231.937 707.1 231.937 675.735 c 0xa0
 231.937 671.714 231.58 667.62 230.854 663.5 c 0
 225.832 635.021 201.839 597.113 185.85 506.433 c 0
 178.525 464.893 177.409 430.492 177.409 397.317 c 0
 177.409 382.777 177.623 368.473 177.623 353.907 c 0
 177.623 320.474 176.494 285.66 169.051 243.447 c 0
 160.431 194.563 145.695 157.958 134.164 126.21 c 1
 150.994 114.763 158.458 98.6448 158.458 82.0796 c 0
 158.458 78.7514 158.157 75.4052 157.569 72.0752 c 0
 156.963 68.6357 l 1
 156.787 67.9072 l 0
 147.63 29.9824 106.345 -6.49512 56.5107 -6.49512 c 0
 3.79916 -6.49512 -22.0884 29.204 -22.0884 69.7112 c 0
 -22.0884 75.4157 -21.575 81.2155 -20.5508 87.0244 c 0xc0
EndSplineSet
EndChar

StartChar: t
Encoding: 116 116 45
Width: 381
VWidth: -1282
Flags: W
HStem: -4.06836 21G<127.182 181.887> 250.768 130.232<38.0634 100.137 263.714 329.707> 488 20G<171.949 208.137>
VStem: 108.562 154.13<381.287 481.307>
LayerCount: 2
Fore
SplineSet
106.781 379.582 m 0
 111.754 378.676 114.859 378.196 116.621 377.919 c 1
 113.672 396.222 108.562 408.941 108.562 424.602 c 0
 108.562 428.655 108.905 432.905 109.715 437.5 c 0
 116.898 478.24 153.851 506.438 190.048 508 c 1
 192.646 508 l 0
 223.628 508 244.719 487.852 250.364 465.467 c 1
 258.037 436.5 261.79 407.478 262.692 380.623 c 1
 284.857 384.322 283.127 386 297.134 386 c 0
 334.19 386 357.274 359.584 357.274 327.565 c 0
 357.274 323.616 356.923 319.581 356.203 315.5 c 0
 350.754 284.596 319.065 262.039 290.52 256.802 c 1
 274.36 253.633 257.678 250.947 245.357 249.354 c 1
 228.478 197.406 206.716 167.45 195.074 145.789 c 1
 211.317 155.416 227.132 158.944 241.098 158.944 c 0
 279.233 158.944 301.782 135.126 301.782 107.727 c 0
 301.782 104.783 301.521 101.797 300.992 98.7959 c 0
 299.992 93.1279 l 1
 299.551 91.7354 l 0
 278.521 25.3916 205.98 -4.06836 157.793 -4.06836 c 0
 96.5712 -4.06836 41.9377 35.2956 41.9377 99.4759 c 0
 41.9377 106.333 42.5613 113.473 43.8672 120.879 c 0
 53.8125 177.283 84.2148 205.307 100.931 245.564 c 1
 83.9092 247.167 72.1201 248.81 59.2354 250.768 c 1
 28.3055 256.193 10.3984 277.308 10.3984 301.059 c 0
 10.3984 303.844 10.6445 306.664 11.1445 309.5 c 0
 18.6279 351.94 58.7949 381 95.252 381 c 0
 107.404 381 102.648 380.305 103.925 380.045 c 1
 108.839 379.149 102.965 380.276 106.781 379.582 c 0
EndSplineSet
EndChar

StartChar: u
Encoding: 117 117 46
Width: 375
VWidth: -1282
Flags: W
HStem: -2.75586 21G<104.063 171.478> 315 20G<122.173 154.505 250.83 280.964>
VStem: 8.36579 141.147<79.0623 222.992> 208.393 139.981<126.112 250.887>
LayerCount: 2
Fore
SplineSet
140.277 335 m 0
 168.732 335 187.767 318.976 195.809 300.199 c 1
 213.717 322.739 239.558 334 262.102 334 c 0
 299.827 334 348.374 300.613 348.374 214.183 c 0
 348.374 199.225 346.92 182.679 343.704 164.442 c 0
 321.505 38.5469 200.209 -2.75586 142.746 -2.75586 c 0
 65.3792 -2.75586 8.36579 46.7238 8.36579 112.72 c 0
 8.36579 119.541 8.97483 126.538 10.2334 133.676 c 2
 10.7031 136.197 l 2
 11.8252 147.504 12.8594 153.981 14.1113 161.08 c 0
 23.8662 216.403 44.1758 260.011 67.9609 296.186 c 0
 78.3418 312.369 104.069 335 140.277 335 c 0
203.289 169.704 m 0
 206.892 190.135 208.393 203.584 208.393 212.894 c 0
 208.393 238.031 197.449 232.993 187.37 253.739 c 1
 175.672 231.318 161.292 199.627 153.719 156.678 c 0
 151.76 145.567 151.258 139.229 149.983 132 c 0
 149.662 130.175 149.513 128.496 149.513 126.954 c 0
 149.513 115.674 157.451 111.73 163.425 111.382 c 0
 167.074 111.86 193.285 112.972 203.289 169.704 c 0
EndSplineSet
EndChar

StartChar: y
Encoding: 121 121 47
Width: 511
VWidth: -1282
Flags: W
HStem: -251.962 141.552<128.619 253.683> 315 21G<146.57 180.432 440.297 473.015>
VStem: 80.9794 152.673<88.2057 190.964> 100.069 156.656<96.5774 273.189>
LayerCount: 2
Fore
SplineSet
233.652 87.8779 m 1xe0
 264.816 105.735 308.786 180.195 370.778 279.39 c 1
 394.354 312.762 426.435 335 454.16 335 c 0
 491.87 335 515.806 311.582 515.806 283.523 c 0
 515.806 280.608 515.547 277.644 515.02 274.65 c 0
 513.353 265.198 504.567 250.01 499.926 241.806 c 0
 487.025 217.877 473.31 173.35 464.528 123.551 c 0
 458.062 86.8789 454.11 47.6689 447.112 7.97949 c 0
 445.865 0.90918 444.872 -4.36523 444.232 -7.70703 c 1
 411.395 -193.935 292.161 -251.962 179.127 -251.962 c 0
 78.1111 -251.962 32.4816 -188.553 32.4816 -126.196 c 0
 32.4816 -118.729 33.1359 -111.277 34.4277 -103.95 c 0
 44.1387 -48.876 81.4346 2.3457 124.519 20.6514 c 1
 97.1254 38.7752 80.9794 68.1421 80.9794 104.867 c 0xe0
 80.9794 112.571 81.6899 120.598 83.1562 128.914 c 0
 88.0771 156.824 97.417 180.494 99.2373 190.82 c 0
 99.8136 194.088 100.069 197.204 100.069 200.202 c 0
 100.069 223.83 84.179 240.062 84.179 264.754 c 0
 84.179 268.046 84.4614 271.488 85.1016 275.118 c 0
 91.2539 310.012 128.401 334.664 164.739 336 c 1
 166.337 336 l 0
 194.527 336 214.082 319.334 222.006 300.249 c 1
 244.341 267.318 256.725 228.365 256.725 191.392 c 0xd0
 256.725 182.267 255.971 173.263 254.426 164.5 c 0
 248.468 130.712 235.881 103.052 234.374 94.5059 c 0
 233.337 88.6221 233.707 88.9453 233.652 87.8779 c 1xe0
291.049 7.59863 m 1
 258.842 -1.14551 239.724 -2.24316 225.337 -2.87891 c 1
 234.406 -13.7556 237.873 -25.3392 237.873 -35.6548 c 0
 237.873 -38.3697 237.633 -40.9968 237.191 -43.5 c 0
 227.61 -97.832 188.877 -100.224 188.665 -101.429 c 0
 188.499 -102.366 188.542 -102.83 188.538 -102.949 c 1
 189.684 -105.699 197.091 -110.41 208.199 -110.41 c 0
 223.85 -110.41 246.66 -96.583 259.335 -80.7285 c 1
 274.591 -62.2705 283.353 -36.1436 288.58 -6.5 c 0
 289.707 -0.107422 290.672 5.41113 291.049 7.59863 c 1
EndSplineSet
EndChar

StartChar: q
Encoding: 113 113 48
Width: 491
VWidth: -1282
Flags: W
HStem: -2.32422 21G<116.742 166.954> 308.444 20G<285.73 290.79>
LayerCount: 2
Fore
SplineSet
157.651 -2.32422 m 0
 75.8331 -2.32422 30.4725 48.7362 30.4725 112.228 c 0
 30.4725 120.275 31.2012 128.522 32.6768 136.891 c 0
 43.1104 196.064 111.629 328 274.564 328 c 0
 276.436 328 283.815 328.444 287.645 328.444 c 0
 289.231 328.444 l 1
 290.79 328.336 l 0
 296.377 327.95 327.902 324.525 353.637 315.885 c 1
 372.343 322.493 385.198 324 397.383 324 c 0
 443.093 324 467.681 300.06 467.681 271.356 c 0
 467.681 268.342 467.41 265.276 466.864 262.18 c 0
 461.787 233.386 433.52 204.824 421.691 137.741 c 0
 416.737 109.646 414.609 78.458 408.89 46.0205 c 0
 399.673 -6.24805 382.377 -42.1855 371.143 -67.7305 c 1
 389.792 -48.9062 412.109 -41 431.905 -41 c 0
 454.046 -41 490.619 -57.3911 490.619 -104.935 c 0
 490.619 -110.786 490.065 -117.109 488.862 -123.932 c 0
 476.797 -192.358 411.101 -256.249 329.811 -256.249 c 0
 247.417 -256.249 173.212 -210.455 173.212 -127.764 c 0
 173.212 -119.293 173.99 -110.434 175.619 -101.197 c 0
 184.405 -51.3672 205.355 -25.5918 218.094 5.86621 c 1
 193.788 -0.582031 176.256 -2.32422 157.651 -2.32422 c 0
243.642 187 m 1
 213.613 183.917 176.403 136.322 170.439 102.5 c 0
 170.107 100.612 169.968 98.8814 169.968 97.3064 c 0
 169.968 92.1618 171.448 88.6788 172.482 86.8066 c 1
 186.816 95.9482 215.22 128.667 251.341 187 c 1
 243.642 187 l 1
EndSplineSet
EndChar

StartChar: x
Encoding: 120 120 49
Width: 514
VWidth: -1282
Flags: W
HStem: -2.15137 145.917<28.4787 131.437> -2.15137 137.325<367.695 435.972> 191.767 136.962<393.751 493.49>
VStem: 172.607 180.764<130.368 194.184>
LayerCount: 2
Fore
SplineSet
81.7207 170.35 m 0xb0
 43.6062 170.35 21.084 194.264 21.084 221.786 c 0
 21.084 224.76 21.3471 227.776 21.8818 230.809 c 0
 29.2207 272.43 100.961 329 189.492 329 c 1
 239.064 327.951 272.232 312.073 295.782 294.956 c 1
 356.446 328.124 400.922 328.729 414.968 328.729 c 0
 456.986 328.729 518.524 307.742 518.524 261.861 c 0
 518.524 258.76 518.243 255.547 517.656 252.218 c 0
 511.271 216.005 472.758 191.767 436.497 191.767 c 0
 409.753 191.767 397.482 202.882 393.561 205.613 c 1
 380.01 198.227 358.607 181.732 354.332 157.487 c 0
 353.664 153.699 353.372 150.246 353.372 147.106 c 0
 353.372 127.468 364.809 120.075 367.276 119.222 c 1
 376.021 123.607 396.224 135.174 418.519 135.174 c 0
 456.222 135.174 480.148 111.725 480.148 83.6243 c 0
 480.148 80.7001 479.889 77.7255 479.359 74.7217 c 0
 470.38 23.7949 398.146 -2.15137 346.304 -2.15137 c 0x70
 295.812 -2.15137 259.539 13.4258 235.243 30.1006 c 1
 203.782 12.9131 160.854 -2.15137 110.304 -2.15137 c 0
 55.0937 -2.15137 -3.9784 28.1866 -3.9784 73.7383 c 0
 -3.9784 76.858 -3.70133 80.0491 -3.12695 83.3066 c 0
 3.25977 119.524 41.7725 143.766 78.0332 143.766 c 0
 123.651 143.766 131.597 119.157 131.597 119.157 c 1
 139.717 122.277 164.728 135.36 171.729 175.066 c 0
 172.34 178.527 172.607 181.583 172.607 184.286 c 0
 172.607 199.058 164.613 203.297 160.819 205.456 c 1
 145.596 196.602 119.195 170.35 81.7207 170.35 c 0xb0
EndSplineSet
EndChar

StartChar: v
Encoding: 118 118 50
Width: 466
VWidth: -1282
Flags: W
HStem: -8 21G<200.901 238.135> 320 20G<88.5996 119.799 390.952 428.206>
LayerCount: 2
Fore
SplineSet
320.021 252.515 m 0
 320.784 256.84 320.684 261.979 320.937 264.226 c 0
 328.615 307.771 372.724 340 409.181 340 c 0
 447.231 340 468.946 314.802 468.946 288.759 c 0
 468.946 286.857 468.83 284.952 468.597 283.051 c 1
 467.881 275.482 466.825 268.535 465.952 263.588 c 0
 450.825 177.796 407.214 135.564 308.086 25.8799 c 1
 289.954 3.57031 253.958 -8 222.312 -8 c 0
 179.491 -8 87.5176 17.877 67.8643 118.048 c 0
 58.7021 164.744 66.2305 193.027 33.2695 238.854 c 1
 26.9871 248.497 23.7154 258.076 23.7154 268.051 c 0
 23.7154 270.77 23.9586 273.519 24.4502 276.307 c 0
 30.9072 312.926 70.3711 338 106.828 338 c 0
 132.771 338 149.226 323.936 158.208 308.164 c 1
 227.389 231.143 226.119 171.531 236.451 130.662 c 1
 278.753 168.88 311.509 204.239 320.021 252.515 c 0
EndSplineSet
EndChar

StartChar: w
Encoding: 119 119 51
Width: 640
VWidth: -1282
Flags: W
HStem: -8 21G<163.315 203.627 386.967 414.649> 320 20G<74.5249 104.439 320.296 355.278 558.601 597.208>
LayerCount: 2
Fore
SplineSet
404.957 296.426 m 1
 428.682 226.567 430.82 185.778 436.998 151.178 c 1
 461.423 180.104 483.359 214.74 490.02 252.515 c 0
 490.98 257.964 491.311 261.22 491.549 263.669 c 0
 491.639 264.583 l 1
 492.329 268.5 l 0
 499.669 310.127 540.018 340 577.184 340 c 0
 578.184 340 l 0
 616.233 340 637.948 314.802 637.948 288.76 c 0
 637.948 286.858 637.832 284.952 637.599 283.051 c 1
 636.883 275.477 635.827 268.534 634.955 263.585 c 0
 620.732 182.923 576.271 135.917 524.425 78.6699 c 1
 476.021 25.7988 l 1
 458.018 3.64453 427.589 -8 401.71 -8 c 0
 372.224 -8 352.229 5.89355 342.174 19.4668 c 1
 322.988 44.4766 310.323 68.1621 301.51 88.9287 c 1
 292.88 72.7939 285.268 59.1865 274.525 40.3203 c 1
 256.015 10.3955 220.177 -8 187.077 -8 c 0
 139.553 -8 77.8584 28.1025 56.7773 116.774 c 1
 45.6768 173.309 47.9502 195.884 19.1338 238.554 c 1
 11.8837 248.893 9.967 256.962 9.967 263.907 c 0
 9.967 268.365 10.7568 272.359 11.4326 276.193 c 0
 17.8564 312.62 56.3945 337 92.6553 337 c 0
 116.224 337 136.104 325.481 144.987 308.519 c 1
 176.612 261.507 188.513 218.652 195.345 186.021 c 1
 196.148 187.637 l 1
 213.498 223.151 230.301 256.747 247.175 288.367 c 1
 264.185 320.878 303.882 339 336.71 339 c 0
 373.847 339 397.855 318.005 404.957 296.426 c 1
EndSplineSet
EndChar

StartChar: z
Encoding: 122 122 52
Width: 515
VWidth: -1282
Flags: W
HStem: -252.461 142.104<105.447 264.367> 32 270.691<220.859 300.834> 188.43 146.57<127.705 198.652>
VStem: 4.66108 206.46<-127.052 -37.2583> 319.649 146.859<-65.1395 11.7466>
LayerCount: 2
Fore
SplineSet
226.216 32 m 0xd8
 186.669 32 178.802 26.3203 159.132 19.5947 c 1
 192.602 9.06785 211.121 -13.2911 211.121 -37.2583 c 0
 211.121 -39.9897 210.881 -42.742 210.395 -45.5 c 0
 205.481 -73.3662 177.109 -93.7422 153.913 -104.035 c 1
 155.98 -106.385 162.575 -110.356 179.113 -110.356 c 0
 228.091 -110.356 319.649 -72.6288 319.649 -26.6203 c 0
 319.649 -2.01841 289.599 32 226.216 32 c 0xd8
6.77148 -103.291 m 0
 16.8721 -46.0068 58.8066 -3.10449 95.3057 15.1123 c 1
 72.1076 23.8117 60.4455 42.4176 60.4455 62.0671 c 0
 60.4455 65.0004 60.7054 67.9569 61.2256 70.9072 c 0
 69.0645 115.361 140.734 160.83 199.985 188.43 c 1
 140.711 194.305 92.4013 226.03 92.4013 265.983 c 0
 92.4013 268.895 92.6579 271.85 93.1855 274.843 c 0
 99.54 310.88 138.032 335 174.293 335 c 0xb8
 241.555 335 237.015 302.691 247.847 302.691 c 0
 253.814 302.691 322.762 327.637 391.971 327.637 c 0
 465.122 327.637 499.756 286.789 499.756 240.926 c 0
 499.756 235.455 499.263 229.913 498.284 224.36 c 0
 487.873 165.318 432.457 132.199 395.938 115.052 c 1
 449.883 81.7556 466.508 34.2701 466.508 -5.65313 c 0
 466.508 -14.3716 465.715 -22.7294 464.345 -30.5 c 0
 438.232 -178.593 278.36 -252.461 154.359 -252.461 c 0
 56.8815 -252.461 4.66108 -194.569 4.66108 -127.052 c 0
 4.66108 -119.236 5.36095 -111.29 6.77148 -103.291 c 0
EndSplineSet
EndChar

StartChar: bracketleft
Encoding: 91 91 53
Width: 443
VWidth: -1282
Flags: W
HStem: -193.609 147.1<275.28 345.632> 584.373 147.179<383.905 480.213>
VStem: 127.104 145.64<-41.34 189.655>
LayerCount: 2
Fore
SplineSet
421.525 584.373 m 0
 414.493 584.373 415.529 584.722 411.464 584.722 c 0
 401.864 584.722 389.172 583.105 383.641 581.717 c 1
 359.59 530.116 325.845 355.996 296.398 189 c 0
 289.948 152.419 291.04 114.893 284.712 77.3633 c 1
 280.691 29.2202 272.744 -9.19953 272.744 -32.6229 c 0
 272.744 -35.0819 272.832 -37.3757 273.021 -39.498 c 1
 285.716 -43.8467 310.242 -45.9678 317.503 -46.5098 c 1
 350.479 -47.2752 375.78 -72.1658 375.78 -106.439 c 0
 375.78 -110.602 375.407 -114.903 374.629 -119.316 c 0
 366.069 -167.859 319.646 -193.609 286.93 -193.609 c 0
 284.789 -193.609 283.196 -193.499 281.623 -193.354 c 1
 214.004 -185.23 144.647 -172.367 133.094 -98.7744 c 1
 129.02 -73.8832 127.104 -49.3183 127.104 -24.9889 c 0
 127.104 3.95643 129.816 32.5684 134.829 61 c 0
 137.298 75 l 0
 143.21 108.529 141.786 145.824 148.87 186 c 0
 173.252 324.275 l 1
 217.867 551.518 219.315 535.316 259.51 639.812 c 1
 293.962 725.84 422.115 731.552 446.694 731.552 c 0
 447.812 731.552 448.036 731.547 448.928 731.53 c 1
 479.034 730.807 509.903 710.139 509.903 671.643 c 0
 509.903 667.224 509.496 662.57 508.635 657.684 c 0
 500.688 612.612 458.456 584.373 421.525 584.373 c 0
EndSplineSet
EndChar

StartChar: backslash
Encoding: 92 92 54
Width: 492
VWidth: 0
Flags: W
HStem: 700.349 20G<136.477 172.642>
VStem: 68.2387 355.522
LayerCount: 2
Fore
SplineSet
422.496 -146.156 m 0
 415.248 -187.261 376.136 -220.349 334.909 -220.349 c 0
 303.808 -220.349 280.861 -201.733 274.62 -175.768 c 1
 70.2715 616.233 l 1
 68.7749 622.461 68.2387 627.944 68.2387 632.812 c 0
 68.2387 637.88 68.82 642.28 69.5039 646.156 c 0
 76.751 687.261 115.863 720.349 157.091 720.349 c 0
 188.192 720.349 211.14 701.734 217.38 675.766 c 1
 421.729 -116.232 l 1
 423.225 -122.459 423.761 -127.942 423.761 -132.808 c 0
 423.761 -137.879 423.179 -142.28 422.496 -146.156 c 0
EndSplineSet
EndChar

StartChar: bracketright
Encoding: 93 93 55
Width: 443
VWidth: -1282
Flags: W
HStem: -193.5 146.997<-41.9699 59.762> 584.5 147<98.0671 168.474>
VStem: 169.624 146.364<361.43 584.404>
LayerCount: 2
Fore
SplineSet
-69.0908 -120 m 0
 -58.4141 -59.4473 -2.33496 -47.1182 13.333 -46.5029 c 1
 25.2842 -45.6338 51.2744 -42.2236 60.1924 -39.498 c 1
 71.0693 -14.8682 77.3467 31.416 89.7119 77.3633 c 1
 97.6338 120.407 111.406 155.042 117.394 189 c 0
 160.54 433.699 169.624 525.672 169.624 564.174 c 0
 169.624 571.729 169.275 577.226 168.764 581.413 c 1
 159.357 583.936 147.287 584.5 140.631 584.5 c 0
 131.631 584.5 l 0
 94.0286 584.5 69.9164 610.93 69.9164 644.838 c 0
 69.9164 649.119 70.3008 653.519 71.0908 658 c 0
 82.1182 720.54 143.42 731.5 155.551 731.5 c 0
 159.551 731.5 l 0
 191.241 731.5 309.865 720.975 313.267 639.736 c 1
 314.446 602.88 315.989 580.361 315.989 557.025 c 0
 315.989 513.963 310.735 468.122 288.246 324.275 c 1
 263.865 186 l 0
 256.105 141.997 241.733 105.854 236.293 75 c 0
 233.824 61 l 0
 223.992 5.24316 205.632 -47.6094 179.214 -98.7744 c 1
 140.18 -175.364 62.6006 -185.831 -2.30469 -193.312 c 0
 -3.93945 -193.5 l 1
 -8.55078 -193.5 l 0
 -45.8519 -193.5 -70.2254 -166.498 -70.2254 -132.758 c 0
 -70.2254 -128.595 -69.8544 -124.33 -69.0908 -120 c 0
EndSplineSet
EndChar

StartChar: asciicircum
Encoding: 94 94 56
Width: 498
VWidth: 0
Flags: W
HStem: 386.122 250.433
VStem: 81.2498 315.703<438.015 504.985>
LayerCount: 2
Fore
SplineSet
143.16 386.122 m 0
 105.457 386.122 81.2498 414.687 81.2498 448.339 c 0
 81.2498 452.462 81.6131 456.66 82.3594 460.893 c 0
 86.1211 482.227 100.125 501.333 111.982 511.69 c 1
 124.089 525.833 209.661 636.555 273.744 636.555 c 0
 341.17 636.555 382.243 516.361 385.717 508.604 c 1
 393.953 496.779 396.953 483.989 396.953 472.073 c 0
 396.953 467.595 396.53 463.241 395.801 459.107 c 0
 388.197 415.987 345.634 384.622 306.933 384.622 c 0
 285.387 384.622 268.661 394.278 258.836 407.022 c 1
 235.258 437.109 l 1
 198.737 407.104 l 1
 179.379 391.391 159.289 386.122 143.16 386.122 c 0
EndSplineSet
EndChar

StartChar: underscore
Encoding: 95 95 57
Width: 625
VWidth: 0
Flags: W
HStem: -192.5 149<-45.0111 670.011>
LayerCount: 2
Fore
SplineSet
638.137 -43.5 m 2
 677.438 -43.5 700.62 -72.2465 700.62 -105.329 c 0
 700.62 -109.5 700.251 -113.74 699.5 -118 c 0
 691.696 -162.257 649.911 -192.5 611.863 -192.5 c 0
 -13.1367 -192.5 l 0
 -52.4376 -192.5 -75.6197 -163.753 -75.6197 -130.671 c 0
 -75.6197 -126.5 -75.2512 -122.26 -74.5 -118 c 0
 -66.6963 -73.7432 -24.9111 -43.5 13.1367 -43.5 c 0
 638.137 -43.5 l 2
EndSplineSet
EndChar

StartChar: grave
Encoding: 96 96 58
Width: 379
VWidth: -1282
Flags: W
HStem: 399.778 215.178<163.017 241.521>
VStem: 73.7872 256.767<450.63 536.513>
LayerCount: 2
Fore
SplineSet
74.9824 541.046 m 0
 82.2734 582.395 122.678 614.956 163.017 614.956 c 0
 194.066 614.956 215.431 595.816 222.256 571.615 c 1
 224.445 564.252 l 1
 287.184 546.52 l 1
 316.55 537.871 330.554 513.2 330.554 487.3 c 0
 330.554 483.042 330.176 478.75 329.425 474.491 c 0
 321.369 428.802 277.425 399.778 241.521 399.778 c 0
 231.934 399.778 226.058 401.352 222.181 402.494 c 1
 127.878 429.512 l 1
 104.536 436.535 92.3799 453.457 87.5264 470.476 c 0
 76.3936 509.509 l 1
 74.4675 516.339 73.7872 522.534 73.7872 528.057 c 0
 73.7872 532.917 74.3141 537.255 74.9824 541.046 c 0
EndSplineSet
EndChar

StartChar: dollar
Encoding: 36 36 60
Width: 735
VWidth: -1282
Flags: W
HStem: 468.5 21G<573.212 616.997>
VStem: 122.687 158.52<460.229 533.209> 482.824 155.219<148.489 258.118>
LayerCount: 2
Fore
SplineSet
502.328 525.532 m 1
 477.259 397.282 l 1
 586.943 358.588 638.043 294.022 638.043 222.213 c 0
 638.043 213.039 637.209 203.747 635.557 194.376 c 0
 618.097 95.3545 519.119 21.085 399.748 3.81348 c 1
 394.602 -21.7695 l 1
 386.656 -66.8271 335.054 -95 291.034 -95 c 0
 241.758 -95 215.168 -63.6529 215.168 -30.2887 c 0
 215.168 -26.6176 215.49 -22.9221 216.139 -19.2412 c 1
 221.736 8.6709 l 1
 147.143 21.3877 94.2891 47.1484 51.3613 82.7002 c 1
 37.1687 94.9167 31.5621 111.213 31.5621 126.511 c 0
 31.5621 130.243 31.8957 133.915 32.5195 137.454 c 0
 34.293 147.511 37.3438 152.747 38.8789 155.921 c 1
 54.9424 191.555 l 1
 69.6914 223.755 104.973 243.48 135.715 243.48 c 0
 175.323 243.48 203.138 215.34 203.138 184.05 c 0
 203.138 180.996 202.873 177.911 202.328 174.82 c 0
 201.07 167.691 200.771 168.462 200.562 167.767 c 1
 217.97 159.704 235.278 153.84 249.192 150.03 c 1
 278.42 295.574 l 1
 168.574 335.284 122.687 396.274 122.687 464.602 c 0
 122.687 474.062 123.566 483.662 125.277 493.366 c 0
 127.239 504.497 l 1
 127.45 505.351 l 0
 145.519 578.296 220.75 657.975 352.464 675.146 c 1
 356.071 692.639 l 1
 363.478 734.644 414.76 761 458.78 761 c 0
 508.521 761 535.632 731.816 535.632 700.974 c 0
 535.632 697.901 535.363 694.811 534.82 691.732 c 1
 529.595 666.011 l 1
 594.034 648.981 638.832 619.75 671.166 582.501 c 1
 681.008 571.776 684.674 558.569 684.674 546.372 c 0
 684.674 542.685 684.339 539.09 683.738 535.684 c 0
 676.731 495.945 635.601 468.5 598.393 468.5 c 0
 548.032 468.5 533.574 508.623 502.328 525.532 c 1
444.336 231.262 m 1
 424.6 130.684 l 1
 467.742 144.71 482.824 165.613 482.824 181.014 c 0
 482.824 195.886 469.616 215.318 444.336 231.262 c 1
309.295 455.763 m 1
 326.758 544.283 l 1
 285.56 529.134 281.207 506.929 281.207 497.13 c 0
 281.207 484.075 290.186 469.785 309.295 455.763 c 1
EndSplineSet
EndChar

StartChar: zero
Encoding: 48 48 61
Width: 370
VWidth: -1282
Flags: W
HStem: -30.5 21G<101.467 202.884> 308 20G<167.505 222.44>
VStem: 11.5646 144.826<67.7959 197.6> 203.306 139.881<122.418 210.881>
LayerCount: 2
Fore
SplineSet
148.402 -30.5 m 1
 141.894 -30.5 l 2
 61.0397 -30.5 11.5646 28.6422 11.5646 106.95 c 0
 11.5646 116.336 12.2755 125.999 13.7285 135.867 c 1
 14.6084 140.855 l 0
 30.5449 231.236 113.904 328 221.106 328 c 0
 221.777 328 l 1
 222.44 327.968 l 0
 293.239 324.733 343.187 268.738 343.187 193.648 c 0
 343.187 183.492 342.273 172.987 340.374 162.216 c 0
 339.392 156.644 l 0
 325.609 78.4785 257.365 -26.7744 148.402 -30.5 c 1
158.278 156 m 0
 156.936 148.389 156.391 142.054 156.391 136.78 c 0
 156.391 116.102 164.785 111.757 166.504 110.933 c 1
 173.229 114.209 193.434 128.524 201.805 176 c 0
 202.868 182.031 203.306 187.022 203.306 191.165 c 0
 203.306 206.531 197.283 210.225 194.829 212.042 c 1
 181.842 203.598 163.103 183.359 158.278 156 c 0
EndSplineSet
EndChar

StartChar: four
Encoding: 52 52 62
Width: 515
VWidth: -1282
Flags: W
HStem: 314.352 20G<363.149 389.919>
LayerCount: 2
Fore
SplineSet
280.816 -10.3604 m 1
 293.423 6.90234 301.68 19.1191 308.754 29.4326 c 1
 287.744 15.335 266.986 3.72266 246.887 -6.91504 c 0
 244.386 -8.23926 l 1
 241.667 -9.32031 l 0
 227.988 -14.8008 l 1
 247.801 -13.0361 266.229 -11.4727 280.816 -10.3604 c 1
400.88 129.796 m 0
 394.841 120.221 390.286 113.397 386.741 108.185 c 1
 399.422 113.111 410.915 114.196 419.946 114.196 c 0
 454.329 114.196 476.187 92.8042 476.187 64.2774 c 0
 476.187 60.9091 475.883 57.4413 475.258 53.8975 c 0
 471.272 31.291 459.157 15.4932 437.884 -19.582 c 1
 454.099 -31.7236 458.275 -47.0611 458.275 -59.6729 c 0
 458.275 -63.5631 457.877 -67.1939 457.313 -70.3916 c 0
 453.473 -92.1748 429.763 -132.784 377.579 -134.89 c 1
 371.088 -148.553 364.356 -163.361 356.365 -181.1 c 1
 341.547 -214.81 305.165 -233.262 263.749 -233.262 c 0
 195.212 -233.262 164.091 -205.543 164.091 -183.158 c 0
 164.091 -172.837 169.735 -166.989 173.983 -160.178 c 1
 157.348 -161.953 150.466 -162.032 142.352 -162.032 c 0
 75.9141 -162.032 61.709 -150.573 52.9541 -141.317 c 1
 31.7503 -119.595 20.4722 -97.8769 20.4722 -72.2571 c 0
 20.4722 -66.829 20.9785 -61.2257 22.0039 -55.4102 c 0
 37.6162 33.1338 134.338 77.2627 155.004 98.7871 c 1
 271.836 194.537 236.247 207.153 273.328 270.771 c 1
 275.198 273.86 279.595 308.239 322.368 325.58 c 0
 341.004 333.529 357.728 334.352 368.571 334.352 c 0
 411.268 334.352 439.462 311.774 442.046 282.058 c 1
 442.618 275.917 442.872 270.006 442.872 264.316 c 0
 442.872 251.48 441.576 239.774 439.698 229.124 c 0
 432.792 189.955 416.526 157.274 401.576 130.959 c 0
 401.243 130.372 l 1
 400.88 129.796 l 0
EndSplineSet
EndChar

StartChar: one
Encoding: 49 49 63
Width: 415
VWidth: 0
Flags: W
HStem: -17 21G<208.113 234.59> 315 20G<255.548 289.571>
VStem: 162.351 152.16<7.36501 105.491>
LayerCount: 2
Fore
SplineSet
165.996 105.491 m 1
 155.935 104.544 159.968 105 156.979 105 c 0
 117.986 105 94.5342 134.315 94.5342 167.233 c 0
 94.5342 171.283 94.8893 175.388 95.6143 179.5 c 0
 99.8936 203.769 115.352 223.155 131.553 235.849 c 0
 132.101 236.278 l 1
 162.269 258.065 l 1
 195.031 297.282 l 1
 216.87 327.061 244.563 335 266.533 335 c 0
 312.609 335 332.534 304.054 330.552 276.208 c 1
 315.196 52.915 l 1
 314.762 47.9365 314.511 47.6562 314.511 47.6562 c 0
 308.218 11.9668 272.034 -14.457 234.59 -16.9189 c 0
 233.523 -17 l 1
 228.467 -17 l 0
 187.759 -17 160.809 4.40723 162.351 30.002 c 1
 165.996 105.491 l 1
EndSplineSet
EndChar

StartChar: two
Encoding: 50 50 64
Width: 362
VWidth: 0
Flags: W
HStem: -31.5 21G<68.6675 84.6611 156.257 210.468> 37.3838 51.0918<7.28418 28.1572> 310 20G<193.94 282.009>
VStem: 60.8328 293.741<167.796 262.628>
LayerCount: 2
Fore
SplineSet
286.055 121.77 m 1
 324.866 119.716 347.779 93.4719 347.779 62.7789 c 0
 347.779 59.1287 347.455 55.4156 346.795 51.6729 c 0
 333.064 -26.1914 219.799 -30.8711 210.468 -31.4434 c 2
 209.545 -31.5 l 1
 167.629 -31.5 l 2
 144.885 -31.5 119.49 -27.5 110.334 -27.5 c 0
 98.9795 -27.5 90.3408 -29.5 78.9814 -29.5 c 0
 58.3535 -29.5 42.4072 -18.04 32.9229 -4.0332 c 0
 27.5487 3.90319 25.8997 11.9501 25.8997 19.5455 c 0
 25.8997 25.9205 27.0614 31.9774 28.1572 37.3838 c 1
 -1.72461 37.3838 l 1
 7.28418 88.4756 l 1
 40.252 88.4756 l 1
 51.4316 122.921 67.2402 146.532 88.251 164.658 c 1
 69.5052 175.568 60.8328 192.693 60.8328 211.058 c 0
 60.8328 214.597 61.1549 218.183 61.7891 221.778 c 0
 70.8145 272.968 154.509 330 233.371 330 c 2
 239.944 330 l 1
 324.074 326.721 354.574 271.711 354.574 231.989 c 0
 354.574 229.375 354.442 226.827 354.185 224.364 c 2
 354.095 223.516 l 1
 352.798 216.16 l 2
 344.756 170.551 313.012 139.831 286.055 121.77 c 1
EndSplineSet
EndChar

StartChar: three
Encoding: 51 51 65
Width: 460
VWidth: -1282
Flags: W
HStem: -183.316 126.842<98.1858 211.046> 311 20G<145.095 189.403>
VStem: 238.174 130.214<-29.6547 44.9367>
LayerCount: 2
Fore
SplineSet
9.90625 -59.6494 m 0
 17.7881 -14.9482 50.9912 16.2539 78.5898 31.584 c 1
 62.6866 41.384 54.7977 57.5568 54.7977 73.901 c 0
 54.7977 76.8648 55.0571 79.8343 55.5752 82.7725 c 0
 63.6475 128.558 124.245 166.127 165.038 188.785 c 1
 118.663 198.074 83.8932 226.699 83.8932 261.427 c 0
 83.8932 264.481 84.1622 267.583 84.7158 270.723 c 0
 91.377 308.5 129.346 331 160.844 331 c 0
 217.963 331 205.142 305 216.26 305 c 0
 217.37 305 l 1
 227.844 307.045 267.734 325 307.786 325 c 0
 314.595 325 l 1
 315.393 324.952 l 0
 360.974 322.384 398.765 291.571 398.765 244.924 c 0
 398.765 239.71 398.293 234.299 397.307 228.707 c 0
 387.711 174.283 343.383 143.614 312.238 127.425 c 1
 351.795 98.6113 368.388 59.6054 368.388 20.4624 c 0
 368.388 12.0594 367.624 3.65013 366.157 -4.66602 c 0
 346.523 -116.015 217.964 -183.316 132.591 -183.316 c 0
 63.7807 -183.316 8.09456 -142.824 8.09456 -79.7856 c 0
 8.09456 -73.3053 8.68305 -66.5867 9.90625 -59.6494 c 0
186.737 52.5 m 0
 169.243 52.5 162.65 49.6318 156.181 47.0869 c 1
 171.376 36.6275 178.645 20.0461 178.645 3.24693 c 0
 178.645 -0.176319 178.343 -3.60862 177.745 -7 c 0
 172.468 -36.9326 149.875 -51.2949 144.458 -55.4277 c 1
 148.07 -56.4287 150.404 -56.4746 152.618 -56.4746 c 0
 184.605 -56.4746 238.174 -22.2016 238.174 8.80206 c 0
 238.174 25.1587 222.7 52.5 186.737 52.5 c 0
EndSplineSet
EndChar

StartChar: five
Encoding: 53 53 66
Width: 515
VWidth: -1282
Flags: W
HStem: -239.719 132.255<99.2082 249.731> 13.5 129.85<230.293 281.136> 183.305 143.695<302.747 433.273> 207.775 119.225<242.606 299.738>
VStem: 4.62283 191.966<-126.363 -45.3642> 297.002 135.821<-67.8993 -4.7949>
LayerCount: 2
Fore
SplineSet
206.762 13.5 m 0xcc
 169.901 13.5 160.999 9.5918 152.622 5.96973 c 1
 180.476 -5.18071 196.589 -25.0985 196.589 -45.3642 c 0
 196.589 -47.5757 196.397 -49.7912 196.008 -52 c 0
 191.671 -76.5938 165.026 -95.7012 143.471 -105.431 c 1
 147.628 -106.736 153.65 -107.464 160.874 -107.464 c 0
 215.042 -107.464 297.002 -70.3932 297.002 -36.1304 c 0
 297.002 -9.07936 247.299 13.5 206.762 13.5 c 0xcc
6.60645 -104.204 m 0
 15.9873 -51.0029 52.9092 -15.4746 82.4795 1.13477 c 1
 64.7857 11.6503 55.9173 29.9106 55.9173 49.0228 c 0
 55.9173 52.6668 56.2397 56.3418 56.8848 60 c 0
 59.9961 77.6445 82.0566 179.732 86.7197 206.183 c 0
 90.3086 226.532 89.4775 248.663 92.8213 267.63 c 0
 101.178 315.018 147.973 325.311 164.438 325.311 c 0
 180.077 325.311 186.371 323 194.759 323 c 0
 206.215 323 247.422 327 276.345 327 c 0xdc
 342.964 327 l 1
 344.404 326.939 l 0
 365.855 326.063 459.821 319.167 459.821 259.989 c 0
 459.821 256.534 459.501 252.901 458.827 249.08 c 0
 451.812 209.291 408.688 183.305 370.732 183.305 c 0xec
 353.005 183.305 338.787 189.313 323.807 196.933 c 1
 299.738 208.868 l 1
 281.393 208.698 259.025 207.978 247.021 207.775 c 1xdc
 246.145 201.492 246.048 201.313 245.686 199.255 c 0
 241.876 177.652 235.297 156.586 230.293 141.995 c 1
 249.198 143.251 260.701 143.35 271.533 143.35 c 0
 310.277 143.35 342.862 138.968 363.602 127.597 c 0
 365.254 126.69 l 1
 366.71 125.528 l 0
 379.591 115.241 432.824 62.4208 432.824 -11.7722 c 0
 432.824 -20.56 432.077 -29.6476 430.428 -39 c 0
 409.219 -159.284 279.392 -239.719 141.206 -239.719 c 0
 57.2103 -239.719 4.62283 -191.071 4.62283 -126.363 c 0
 4.62283 -119.16 5.2743 -111.759 6.60645 -104.204 c 0
EndSplineSet
EndChar

StartChar: six
Encoding: 54 54 67
Width: 381
VWidth: -1282
Flags: W
HStem: -31.7617 21G<79.8058 167.818>
VStem: -5.7092 143.613<110.538 201.585> 181.829 144.057<113.81 206.786>
LayerCount: 2
Fore
SplineSet
322.679 151.294 m 0
 304.764 49.6904 214.104 -31.7617 121.533 -31.7617 c 0
 38.0785 -31.7617 -5.7092 35.7038 -5.7092 112.908 c 0
 -5.7092 125.073 -4.62205 137.48 -2.43164 149.902 c 0
 16.1826 255.471 90.7471 329.004 134.468 387.776 c 1
 180.725 448.125 214.039 509.772 231.43 572.047 c 1
 242.259 608.592 274.807 639.786 312.966 639.786 c 0
 356.173 639.786 371.961 604.436 371.961 575.836 c 0
 371.961 571.507 371.599 567.333 370.916 563.46 c 0
 366.689 539.494 336.783 444.864 256.514 333.306 c 1
 300.72 295.762 325.886 244.741 325.886 187.28 c 0
 325.886 175.534 324.834 163.518 322.679 151.294 c 0
139.262 151.042 m 0
 138.306 145.62 137.904 140.896 137.904 136.787 c 0
 137.904 115.145 149.047 110.534 149.047 110.534 c 1
 157.08 110.534 175.813 121.841 180.952 150.98 c 0
 181.551 154.377 181.829 157.745 181.829 161.063 c 0
 181.829 179.434 173.315 196.291 163.665 208.242 c 1
 144.267 176.226 141.281 162.496 139.262 151.042 c 0
EndSplineSet
EndChar

StartChar: seven
Encoding: 55 55 68
Width: 515
VWidth: -1282
Flags: W
HStem: 152 183.637<377.329 459.627> 188.383 138.405<105.206 193.394>
VStem: 44.1406 161.242<-102.466 38.6054>
LayerCount: 2
Fore
SplineSet
243.648 310.739 m 0x60
 250.057 310.739 323.038 335.637 392.161 335.637 c 0
 464.273 335.637 498.748 294.542 498.748 248.36 c 0
 498.748 242.792 498.247 237.151 497.25 231.498 c 0
 488.362 181.097 442.462 165.932 421.552 152 c 1xa0
 360.169 112.186 265.934 99.332 213.006 18.8838 c 1
 208.246 11.5566 206.902 6.42676 206.102 1.88477 c 0
 205.56 -1.18775 205.383 -4.41297 205.383 -7.80402 c 0
 205.383 -14.2092 206.015 -21.2061 206.015 -28.883 c 0
 206.015 -34.3252 205.697 -40.1093 204.611 -46.2666 c 0
 199.337 -76.1807 190.048 -112.753 140.511 -129.892 c 0
 129.119 -135.595 119.705 -136.352 113.208 -136.352 c 0
 78.6348 -136.352 54.8877 -110.442 49.5986 -81.6475 c 1
 45.8566 -64.2958 44.1406 -47.7569 44.1406 -31.9911 c 0
 44.1406 -19.2849 45.2552 -7.08085 47.3223 4.6416 c 0
 60.2188 77.7803 120.616 147.943 193.706 188.383 c 1
 156.58 190.775 99.2178 200.355 83.334 236.625 c 1
 79.1973 246.104 79.2617 257.875 80.5078 264.938 c 0
 86.2861 297.712 119.884 326.788 160.687 326.788 c 0
 192.872 326.788 214.496 310.739 243.648 310.739 c 0x60
EndSplineSet
EndChar

StartChar: eight
Encoding: 56 56 69
Width: 405
VWidth: -1282
Flags: W
HStem: -244.405 135.317<114.653 197.219> 198.086 135.94<204.563 287.12>
VStem: 11.8269 146.078<-145.996 -24.1876> 61.0907 140.571<111.784 196.305> 199.646 140.281<-107.1 -22.4978> 243.02 146.115<113.168 235.627>
LayerCount: 2
Fore
SplineSet
198.307 -83.6953 m 0xe8
 199.025 -79.6205 199.646 -75.2641 199.646 -70.2619 c 0
 199.646 -58.808 196.393 -43.9685 183.622 -21.3721 c 1
 169.396 -36.9229 161.276 -51.4248 158.768 -65.6504 c 0
 158.174 -69.0169 157.904 -72.1735 157.904 -75.125 c 0
 157.904 -98.5831 174.929 -109.088 181.564 -109.088 c 0
 184.092 -109.088 188.958 -109.492 196.189 -92.583 c 1
 197.692 -87.5186 197.933 -85.8164 198.307 -83.6953 c 0xe8
202.626 172.933 m 0
 201.965 169.185 201.662 165.433 201.662 161.703 c 0
 201.662 143.173 209.147 125.17 217.443 110.767 c 1
 230.488 124.582 239.413 139.282 242.136 154.726 c 0
 242.744 158.174 243.02 161.398 243.02 164.404 c 0xd4
 243.02 187.915 226.153 198.086 219.521 198.086 c 0
 216.807 198.086 211.871 198.339 204.699 181.578 c 1
 203.187 176.492 202.987 174.986 202.626 172.933 c 0
386.762 170.653 m 0
 375.46 106.558 329.005 60.5996 303.521 38.5254 c 1
 322.596 12.8962 339.926 -25.4841 339.926 -68.825 c 0
 339.926 -77.909 339.165 -87.211 337.499 -96.6592 c 0
 321.408 -187.916 237.844 -244.405 159.543 -244.405 c 0
 70.2595 -244.405 11.8269 -182.911 11.8269 -107.732 c 0xe8
 11.8269 -99.151 12.588 -90.3923 14.1514 -81.5264 c 0
 23.5879 -28.0068 58.7461 17.8779 98.2734 50.7188 c 1
 75.7713 78.0842 61.0907 118.207 61.0907 158.565 c 0
 61.0907 167.73 61.8478 176.907 63.4424 185.95 c 0
 79.7744 278.575 164.304 334.026 243.589 334.026 c 0
 330.652 334.026 389.134 273.176 389.134 197.369 c 0
 389.134 188.639 388.359 179.71 386.762 170.653 c 0
EndSplineSet
EndChar

StartChar: nine
Encoding: 57 57 70
Width: 381
VWidth: -1282
Flags: W
HStem: 312.262 20G<192.11 275.317>
VStem: 34.8629 145.437<119.968 215.037> 224.318 140.956<124.295 217.799>
LayerCount: 2
Fore
SplineSet
37.582 166.162 m 0
 55.3018 266.658 150.541 332.262 233.68 332.262 c 0
 316.954 332.262 365.274 271.141 365.274 197.443 c 0
 365.274 187.383 364.374 177.089 362.539 166.684 c 0
 345.979 72.7715 270.649 1.30078 229.286 -50.5068 c 1
 182.313 -107.567 168.405 -127.816 140.517 -182.838 c 1
 127.941 -208.188 102.027 -240.275 61.541 -240.275 c 0
 16.3472 -240.275 1.52958 -204.747 1.52958 -180.587 c 0
 1.52958 -177.438 1.78119 -174.483 2.25 -171.824 c 0
 12.7949 -112.021 77.7812 -34.3848 106.11 -0.0195312 c 1
 78.3624 21.2452 34.8629 66.727 34.8629 135.782 c 0
 34.8629 145.447 35.7151 155.575 37.582 166.162 c 0
222.888 177.124 m 0
 223.895 182.837 224.318 187.786 224.318 192.067 c 0
 224.318 213.222 213.994 218.09 212.862 218.461 c 0
 204.374 218.13 185.979 204.307 181.168 177.02 c 0
 180.575 173.655 180.3 170.314 180.3 167.019 c 0
 180.3 148.364 189.105 131.16 198.791 119.35 c 1
 211.807 139.962 219.262 156.561 222.888 177.124 c 0
EndSplineSet
EndChar

StartChar: bar
Encoding: 124 124 71
Width: 285
VWidth: 0
Flags: W
HStem: 736.5 20G<212.286 250.96>
VStem: -9.79254 303.585
LayerCount: 2
Fore
SplineSet
140.327 -182 m 2
 132.523 -226.257 90.7383 -256.5 52.6904 -256.5 c 0
 13.3889 -256.5 -9.79254 -227.754 -9.79254 -194.671 c 0
 -9.79254 -190.5 -9.42403 -186.26 -8.67285 -182 c 0
 143.673 682 l 0
 151.477 726.257 193.262 756.5 231.31 756.5 c 0
 270.611 756.5 293.793 727.754 293.793 694.671 c 0
 293.793 690.5 293.424 686.26 292.673 682 c 0
 140.327 -182 l 2
EndSplineSet
EndChar

StartChar: numbersign
Encoding: 35 35 72
Width: 657
VWidth: 0
Flags: W
HStem: 167.5 149<25.0637 104.438 279.711 324.438 499.711 578.086> 417.5 149<69.1453 148.521 323.793 368.521 543.793 622.168> 736.5 20G<263.771 302.446 483.771 522.446>
LayerCount: 2
Fore
SplineSet
228.841 28 m 2
 221.037 -16.2568 179.253 -46.5 141.205 -46.5 c 0
 101.903 -46.5 78.7212 -17.7535 78.7212 15.3291 c 0
 78.7212 19.5001 79.0897 23.7401 79.8408 28 c 0
 104.438 167.5 l 1
 56.9385 167.5 l 0
 17.6369 167.5 -5.54449 196.246 -5.54449 229.329 c 0
 -5.54449 233.5 -5.17598 237.74 -4.4248 242 c 0
 3.37891 286.257 45.1631 316.5 83.2109 316.5 c 0
 130.711 316.5 l 1
 148.521 417.5 l 1
 101.021 417.5 l 0
 61.7189 417.5 38.5375 446.246 38.5375 479.329 c 0
 38.5375 483.5 38.906 487.74 39.6572 492 c 0
 47.46 536.257 89.2451 566.5 127.293 566.5 c 0
 174.793 566.5 l 1
 195.159 682 l 0
 202.963 726.257 244.747 756.5 282.795 756.5 c 0
 322.097 756.5 345.279 727.753 345.279 694.671 c 0
 345.279 690.5 344.91 686.26 344.159 682 c 0
 323.793 566.5 l 1
 394.793 566.5 l 1
 415.159 682 l 0
 422.963 726.257 464.747 756.5 502.795 756.5 c 0
 542.097 756.5 565.279 727.753 565.279 694.671 c 0
 565.279 690.5 564.91 686.26 564.159 682 c 0
 543.793 566.5 l 1
 590.293 566.5 l 0
 629.595 566.5 652.777 537.753 652.777 504.67 c 0
 652.777 500.499 652.408 496.26 651.657 492 c 0
 643.854 447.743 602.068 417.5 564.021 417.5 c 0
 517.521 417.5 l 1
 499.711 316.5 l 1
 546.211 316.5 l 0
 585.513 316.5 608.695 287.753 608.695 254.671 c 0
 608.695 250.5 608.326 246.26 607.575 242 c 0
 599.771 197.743 557.986 167.5 519.938 167.5 c 0
 473.438 167.5 l 1
 448.841 28 l 0
 441.037 -16.2568 399.253 -46.5 361.205 -46.5 c 0
 321.903 -46.5 298.721 -17.7535 298.721 15.3291 c 0
 298.721 19.5001 299.09 23.7401 299.841 28 c 0
 324.438 167.5 l 1
 253.438 167.5 l 1
 228.841 28 l 2
297.521 417.5 m 1
 279.711 316.5 l 1
 350.711 316.5 l 1
 368.521 417.5 l 1
 297.521 417.5 l 1
EndSplineSet
EndChar

StartChar: period
Encoding: 46 46 73
Width: 340
VWidth: 0
Flags: W
HStem: -51.5 193<60.3433 161.657>
VStem: 13.0401 195.92<-4.15085 94.1508>
LayerCount: 2
Fore
SplineSet
14.5 45 m 0
 24.3613 100.928 77.5312 141.5 128.016 141.5 c 0
 177.778 141.5 208.96 105.071 208.96 61.4774 c 0
 208.96 56.0763 208.481 50.5653 207.5 45 c 0
 197.639 -10.9277 144.469 -51.5 93.9844 -51.5 c 0
 44.222 -51.5 13.0401 -15.0705 13.0401 28.5226 c 0
 13.0401 33.9237 13.5187 39.4347 14.5 45 c 0
EndSplineSet
EndChar

StartChar: colon
Encoding: 58 58 74
Width: 340
VWidth: 0
Flags: W
HStem: -51.5 193<37.5095 138.823> 207.5 193<83.1773 184.491>
VStem: -8.33398 240.128
LayerCount: 2
Fore
SplineSet
37.334 304 m 0
 47.1963 359.928 100.366 400.5 150.85 400.5 c 0
 200.612 400.5 231.794 364.071 231.794 320.478 c 0
 231.794 315.077 231.315 309.566 230.334 304 c 0
 220.473 248.072 167.303 207.5 116.818 207.5 c 0
 67.056 207.5 35.8741 243.929 35.8741 287.523 c 0
 35.8741 292.924 36.3527 298.435 37.334 304 c 0
-8.33398 45 m 0
 1.52734 100.928 54.6973 141.5 105.182 141.5 c 0
 154.944 141.5 186.126 105.071 186.126 61.4774 c 0
 186.126 56.0763 185.647 50.5653 184.666 45 c 0
 174.804 -10.9277 121.634 -51.5 71.1504 -51.5 c 0
 21.3884 -51.5 -9.79416 -15.0711 -9.79416 28.5216 c 0
 -9.79416 33.923 -9.31543 39.4343 -8.33398 45 c 0
EndSplineSet
EndChar

StartChar: parenright
Encoding: 41 41 75
Width: 397
VWidth: -1282
Flags: W
VStem: 121.63 149.391<367.638 626.101>
LayerCount: 2
Fore
SplineSet
41.7793 77.8809 m 1
 49.4756 119.703 63.4434 155.408 69.3662 189 c 0
 109.443 416.29 121.63 514.979 121.63 561.546 c 0
 121.63 596.872 114.617 602.202 107.446 610.925 c 1
 96.3759 623.388 92.8359 637.146 92.8359 650.009 c 0
 92.8359 654.837 93.3346 659.54 94.1211 664 c 0
 101.787 707.475 143.373 737.5 180.581 737.5 c 0
 237.054 737.5 256.695 675.102 264.431 645.173 c 1
 269.107 628.365 271.021 606.738 271.021 582.244 c 0
 271.021 504.302 251.64 397.335 240.219 324.275 c 1
 215.837 186 l 0
 208.078 141.997 193.705 105.854 188.265 75 c 0
 185.796 61 l 0
 175.217 0.998047 155.318 -86.1758 76.5439 -153.771 c 1
 56.0859 -172.108 35.7793 -176.5 19.4189 -176.5 c 0
 -19.2396 -176.5 -42.2044 -147.803 -42.2044 -115.284 c 0
 -42.2044 -111.232 -41.848 -107.122 -41.1211 -103 c 0
 -32.6641 -55.0371 6.0957 -36.0312 11.2715 -26.8047 c 1
 23.3203 -6.38672 28.1807 33.3438 41.7793 77.8809 c 1
EndSplineSet
EndChar

StartChar: parenleft
Encoding: 40 40 76
Width: 397
VWidth: -1282
Flags: W
VStem: 123.371 151.318<-65.8146 188.575> 131.522 170.356<-140.866 -89.2812 21.0162 232.155>
LayerCount: 2
Fore
SplineSet
282.769 77.8916 m 1x80
 280.594 31.2395 274.689 6.14959 274.689 -12.528 c 0x80
 274.689 -26.4839 277.986 -36.8598 288.599 -49.9756 c 1
 299.617 -62.3797 303.156 -76.1721 303.156 -89.0555 c 0
 303.156 -93.8707 302.662 -98.5588 301.879 -103 c 0
 294.213 -146.475 252.627 -176.5 215.419 -176.5 c 0
 158.934 -176.5 139.334 -114.216 131.522 -83.9922 c 1x40
 125.618 -61.3865 123.371 -40.8714 123.371 -21.1487 c 0
 123.371 6.59784 127.82 32.7759 132.796 61 c 0
 135.265 75 l 0
 141.177 108.529 139.753 145.824 146.837 186 c 0
 171.219 324.275 l 1
 217.727 561.172 236.567 643.979 319.456 714.771 c 1
 339.914 733.108 360.221 737.5 376.581 737.5 c 0
 415.24 737.5 438.204 708.803 438.204 676.284 c 0
 438.204 672.232 437.848 668.122 437.121 664 c 0
 421.673 576.386 385.859 649.014 350.538 479.266 c 1
 327.212 361.49 319.61 332.165 294.366 189 c 0
 287.96 152.668 288.912 114.331 282.769 77.8916 c 1x80
EndSplineSet
EndChar

StartChar: plus
Encoding: 43 43 77
Width: 498
VWidth: 0
Flags: W
HStem: -28.5 21G<193.61 231.74> 86.5 149<85.0223 160.609 337.566 410.24> 332.5 20G<265.966 304.39>
LayerCount: 2
Fore
SplineSet
379.159 235.5 m 2
 419.037 235.5 440.284 205.252 440.284 172.947 c 0
 440.284 168.646 439.907 164.308 439.147 160 c 0
 431.115 114.446 387.513 86.5 350.488 86.5 c 1
 309.293 87.0986 l 1
 301.87 45 l 0
 293.838 -0.553711 250.07 -28.5 213.41 -28.5 c 0
 173.811 -28.5 151.91 0.625666 151.91 33.1206 c 0
 151.91 37.3753 152.286 41.6877 153.046 46 c 0
 160.609 88.8955 l 1
 119.018 89.5 l 1
 79.1403 89.5 57.8928 119.747 57.8928 152.052 c 0
 57.8928 156.354 58.2696 160.692 59.0293 165 c 0
 67.0615 210.554 110.663 238.5 147.688 238.5 c 1
 189.284 237.896 l 1
 197.165 279.199 l 1
 204.997 323.616 247.342 352.5 284.59 352.5 c 0
 324.189 352.5 346.09 323.374 346.09 290.879 c 0
 346.09 286.625 345.714 282.312 344.954 278 c 0
 337.566 236.104 l 1
 379.159 235.5 l 2
EndSplineSet
EndChar

StartChar: hyphen
Encoding: 45 45 78
Width: 498
VWidth: 0
Flags: W
HStem: 86.5 149.997<85.7842 410.146>
LayerCount: 2
Fore
SplineSet
310.418 236.497 m 1
 379.071 235.5 l 1
 418.948 235.5 440.196 205.252 440.196 172.947 c 0
 440.196 168.645 439.819 164.308 439.06 160 c 0
 431.027 114.446 387.399 86.5 350.431 86.5 c 1
 187.587 88.502 l 1
 118.929 89.5 l 1
 79.0509 89.5 57.8042 119.748 57.8042 152.053 c 0
 57.8042 156.354 58.1809 160.692 58.9404 165 c 0
 66.9727 210.554 110.602 238.5 147.569 238.5 c 1
 310.418 236.497 l 1
EndSplineSet
EndChar

StartChar: comma
Encoding: 44 44 79
Width: 340
VWidth: 0
Flags: W
HStem: -158.5 300<86.9648 87.5029>
VStem: -14.5594 232.953
LayerCount: 2
Fore
SplineSet
23.9336 45 m 0
 33.7949 100.928 86.9648 141.5 137.449 141.5 c 0
 187.212 141.5 218.394 105.071 218.394 61.4774 c 0
 218.394 56.0763 217.915 50.5653 216.934 45 c 0
 207.611 -7.86719 87.5029 -158.5 22.5508 -158.5 c 0
 -7.85054 -158.5 -14.5594 -136.42 -14.5594 -115.703 c 0
 -14.5594 -102.629 -11.8878 -90.0978 -10.8125 -84 c 0
 -2.14062 -34.8154 20.9307 27.9717 23.9336 45 c 0
EndSplineSet
EndChar

StartChar: semicolon
Encoding: 59 59 80
Width: 340
VWidth: 0
Flags: W
HStem: 207.5 193<92.6109 193.924>
VStem: -37.4317 278.659
LayerCount: 2
Fore
SplineSet
1.09961 45 m 0
 10.9609 100.928 64.1309 141.5 114.614 141.5 c 0
 164.377 141.5 195.56 105.071 195.56 61.4773 c 0
 195.56 56.0763 195.081 50.5653 194.1 45 c 0
 184.777 -7.86719 64.6689 -158.5 -0.283203 -158.5 c 0
 -30.7093 -158.5 -37.4317 -136.609 -37.4317 -116.058 c 0
 -37.4317 -102.862 -34.6598 -90.2183 -33.6123 -84.2783 c 0
 -24.8271 -34.4531 -1.8291 28.3936 1.09961 45 c 0
46.7676 304 m 0
 56.6299 359.928 109.799 400.5 160.283 400.5 c 0
 210.045 400.5 241.228 364.071 241.228 320.478 c 0
 241.228 315.077 240.749 309.566 239.768 304 c 0
 229.906 248.072 176.736 207.5 126.252 207.5 c 0
 76.4896 207.5 45.3077 243.929 45.3077 287.523 c 0
 45.3077 292.924 45.7863 298.435 46.7676 304 c 0
EndSplineSet
EndChar

StartChar: quotesingle
Encoding: 39 39 81
Width: 107
VWidth: 0
Flags: W
HStem: 453.5 298<25.2045 72.8301>
VStem: -25.8729 176.259<574.132 692.504>
LayerCount: 2
Fore
SplineSet
-14.8057 655 m 0
 -6.31445 703.155 29.2324 751.5 85.71 751.5 c 0
 136.124 751.5 150.387 714.568 150.387 679.53 c 0
 150.387 671.06 149.553 662.7 148.195 655 c 0
 143.069 625.933 105.557 453.5 27.165 453.5 c 0
 -15.1522 453.5 -25.8729 502.046 -25.8729 551.673 c 0
 -25.8729 598.211 -16.4456 645.7 -14.8057 655 c 0
EndSplineSet
EndChar

StartChar: quotedbl
Encoding: 34 34 82
Width: 388
VWidth: 0
Flags: W
HStem: 450.5 301
LayerCount: 2
Fore
SplineSet
24.0215 655 m 0
 33.8828 710.928 87.0527 751.5 137.537 751.5 c 0
 178.336 751.5 206.646 727.013 215.521 694.166 c 1
 237.421 727.189 275.42 748.5 312.008 748.5 c 0
 361.771 748.5 392.952 712.071 392.952 668.479 c 0
 392.952 663.077 392.474 657.566 391.492 652 c 0
 385.207 616.353 328.96 450.5 253.463 450.5 c 0
 202.176 450.5 192.192 522.526 192.812 581.051 c 1
 168.373 522.496 127.687 453.5 78.9922 453.5 c 0
 29.1419 453.5 18.3137 521.546 18.3137 579.101 c 0
 18.3137 614.349 22.375 645.662 24.0215 655 c 0
EndSplineSet
EndChar

StartChar: exclam
Encoding: 33 33 83
Width: 235
VWidth: 0
Flags: W
HStem: -51.5 193<6.56385 107.877> 731.5 20G<162.553 212.676>
VStem: -39.2793 308.019
LayerCount: 2
Fore
SplineSet
-39.2793 45 m 0
 -29.418 100.928 23.752 141.5 74.2354 141.5 c 0
 123.999 141.5 155.181 105.071 155.181 61.4773 c 0
 155.181 56.0763 154.702 50.5653 153.721 45 c 0
 143.858 -10.9277 90.6885 -51.5 40.2051 -51.5 c 0
 -9.55761 -51.5 -40.7395 -15.0713 -40.7395 28.5212 c 0
 -40.7395 33.9227 -40.2608 39.4342 -39.2793 45 c 0
74.2793 655 m 0
 84.1416 710.928 137.312 751.5 187.795 751.5 c 0
 237.558 751.5 268.74 715.071 268.74 671.479 c 0
 268.74 666.077 268.261 660.566 267.279 655 c 0
 263.585 634.046 161.601 151.5 75.999 151.5 c 0
 46.2293 151.5 36.3698 208.967 36.3698 285.08 c 0
 36.3698 431.525 72.8688 646.999 74.2793 655 c 0
EndSplineSet
EndChar

StartChar: asciitilde
Encoding: 126 126 84
Width: 455
VWidth: -1282
Flags: W
HStem: 326.774 146.896<270.387 356.011> 375.354 146.146<119.188 191.622> 485.5 20G<371.491 409.676>
LayerCount: 2
Fore
SplineSet
4.12598 405 m 0x40
 13.5801 458.62 91.2676 521.5 172.168 521.5 c 0x40
 260.888 521.5 296.847 473.67 312.276 473.67 c 0
 314.867 473.67 316.597 474.161 318.269 474.749 c 0
 327.692 478.064 352.636 505.5 390.347 505.5 c 0
 429.005 505.5 451.97 476.802 451.97 444.282 c 0
 451.97 440.231 451.613 436.121 450.887 432 c 0
 438.614 362.398 341.432 326.774 285.494 326.774 c 0xa0
 206.232 326.774 164.448 375.354 148.875 375.354 c 0
 146.255 375.354 145.346 374.913 143.825 374.123 c 0
 137.688 370.938 133.967 367.461 133.827 367.306 c 1
 114.958 342.467 86.6943 331.5 64.666 331.5 c 0
 26.0074 331.5 3.0427 360.197 3.0427 392.716 c 0
 3.0427 396.768 3.39911 400.878 4.12598 405 c 0x40
EndSplineSet
EndChar

StartChar: braceleft
Encoding: 123 123 85
Width: 397
VWidth: -1282
Flags: W
VStem: 124.438 150.516<-66.5613 107.461> 173.908 149.726<113.363 214.74>
LayerCount: 2
Fore
SplineSet
258.494 320.214 m 0x40
 258.457 320.004 258.475 320.087 258.471 320.047 c 1
 258.471 320.047 323.634 286.345 323.634 207.606 c 0x40
 323.634 199.088 322.871 190.042 321.181 180.455 c 0
 313.122 134.754 291.047 99.7588 286.649 77.1348 c 1
 282.327 28.3906 274.953 3.66186 274.953 -14.8958 c 0
 274.953 -27.5721 278.394 -37.3689 288.597 -49.9736 c 1
 299.618 -62.3799 303.157 -76.1714 303.157 -89.0539 c 0
 303.157 -93.8695 302.662 -98.5582 301.879 -103 c 0
 294.213 -146.475 252.627 -176.5 215.419 -176.5 c 0
 158.938 -176.5 139.325 -114.183 131.536 -84.0449 c 1
 126.368 -64.6106 124.438 -46.7299 124.438 -29.8108 c 0x80
 124.438 -9.91987 127.105 8.64182 130.313 26.8359 c 0
 133.316 43.8652 136.553 59.6162 139.265 75 c 0
 147.161 119.781 173.908 157.243 173.908 186.83 c 0
 173.908 203.466 94.0027 246.027 94.0027 310.492 c 0
 94.0027 314.98 94.3901 319.575 95.2188 324.274 c 1
 110.568 402.461 215.288 452.817 218.256 466.136 c 1
 223.019 488.553 226.272 506.431 228.939 521.554 c 0
 231.578 536.52 233.498 548.008 235.211 557.724 c 0
 246.742 623.119 261.981 665.604 319.47 714.783 c 1
 339.9 733.097 360.226 737.5 376.581 737.5 c 0
 415.24 737.5 438.204 708.803 438.204 676.284 c 0
 438.204 672.232 437.848 668.122 437.121 664 c 0
 428.827 616.963 389.975 596.606 385.53 589.205 c 1
 384.597 586.142 383.178 579.09 382.354 574.424 c 0
 378.685 553.61 369.701 485.366 367.906 475.184 c 0
 348.122 362.985 263.164 346.704 258.494 320.214 c 0x40
EndSplineSet
EndChar

StartChar: braceright
Encoding: 125 125 86
Width: 397
VWidth: -1282
Flags: W
VStem: 99.7327 148.728<-19.6957 185.56> 153.816 174.367<594.931 698.73> 180.336 147.847<469.105 631.183>
LayerCount: 2
Fore
SplineSet
100.538 180.455 m 0x80
 119 285.154 212.478 320.055 212.478 320.055 c 1
 212.504 320.152 212.506 320.182 212.512 320.214 c 0
 216.617 343.498 154.818 363.598 154.818 443.494 c 0
 154.818 453.147 155.72 463.673 157.75 475.184 c 0
 160.11 488.567 175.364 557.78 178.299 574.424 c 0
 180.119 584.747 180.292 588.28 180.336 589.206 c 1x20
 177.471 600.771 153.816 615.657 153.816 649.678 c 0
 153.816 654.115 154.218 658.877 155.121 664 c 0
 162.787 707.475 204.373 737.5 241.581 737.5 c 0
 298.054 737.5 317.694 675.102 325.431 645.173 c 1
 327.356 638.252 328.183 630.333 328.183 621.508 c 0x40
 328.183 583.823 313.109 529.627 304.21 466.136 c 1
 302.488 452.876 378.275 404.5 378.275 337.848 c 0
 378.275 333.403 377.938 328.878 377.219 324.275 c 1
 363.515 246.555 252.74 202.464 249.837 186 c 0
 248.184 176.628 247.723 166.887 247.723 156.761 c 0
 247.723 143.957 248.461 130.539 248.461 116.477 c 0
 248.461 103.231 247.806 89.414 245.265 75 c 0
 241.925 56.0596 239.691 40.7871 237.231 26.8359 c 0
 226.415 -34.5078 199.194 -100.905 137.546 -153.769 c 1
 117.084 -172.11 96.7803 -176.5 80.4189 -176.5 c 0
 41.7604 -176.5 18.7956 -147.803 18.7956 -115.284 c 0
 18.7956 -111.232 19.152 -107.122 19.8789 -103 c 0
 28.3359 -55.0371 67.0957 -36.0312 72.2715 -26.8047 c 1
 83.8662 -7.15723 86.7441 31.3643 98.6357 77.1484 c 1
 99.4409 82.2362 99.7327 87.6811 99.7327 93.4537 c 0
 99.7327 108.669 97.7053 126.159 97.7053 145.384 c 0
 97.7053 156.527 98.3864 168.253 100.538 180.455 c 0x80
EndSplineSet
EndChar

StartChar: equal
Encoding: 61 61 87
Width: 498
VWidth: 0
Flags: W
HStem: 26.5 149.997<72.5599 396.922> 176.5 149.998<99.0092 423.37>
LayerCount: 2
Fore
SplineSet
297.193 176.497 m 1
 365.847 175.5 l 1
 405.724 175.5 426.971 145.252 426.971 112.947 c 0
 426.971 108.645 426.594 104.308 425.835 100 c 0
 417.803 54.4463 374.175 26.5 337.206 26.5 c 1
 174.36 28.502 l 1
 105.704 29.5 l 1
 65.827 29.5 44.5797 59.7479 44.5797 92.0532 c 0
 44.5797 96.3545 44.9563 100.692 45.7158 105 c 0
 53.749 150.554 97.377 178.5 134.345 178.5 c 1
 297.193 176.497 l 1
323.639 326.498 m 1
 392.295 325.5 l 1
 432.174 325.5 453.42 295.252 453.42 262.947 c 0
 453.42 258.646 453.044 254.308 452.284 250 c 0
 444.251 204.446 400.623 176.5 363.655 176.5 c 1
 200.805 178.503 l 1
 132.153 179.5 l 1
 92.2762 179.5 71.0289 209.748 71.0289 242.053 c 0
 71.0289 246.355 71.4055 250.692 72.165 255 c 0
 80.1973 300.554 123.825 328.5 160.794 328.5 c 1
 323.639 326.498 l 1
EndSplineSet
EndChar

StartChar: ampersand
Encoding: 38 38 88
Width: 727
VWidth: -1282
Flags: W
HStem: -28.5 147<185.017 363.888> 323.5 144.094<358.548 443.23 607.953 663.677> 323.5 134<295.899 411.278> 607.5 146<279.494 390.755>
VStem: 11.8111 148.251<143.238 253.467> 112.774 149.056<489.326 591.179>
LayerCount: 2
Fore
SplineSet
116.09 553 m 0x94
 134.209 655.756 231.944 753.5 359.943 753.5 c 0
 456.232 753.5 496.676 721.219 547.62 639.251 c 1
 556.541 625.075 559.037 614.642 559.037 604.742 c 0
 559.037 600.39 558.555 596.141 557.924 591.723 c 1
 578.863 583.526 589.745 569.055 593.804 552.965 c 1
 601.359 524.436 605.935 493.779 606.99 468.103 c 1
 627.856 471.518 627.806 473.5 641.572 473.5 c 0
 672.469 473.5 717.579 454.012 717.579 413.39 c 0
 717.579 410.068 717.277 406.605 716.642 403 c 0
 710.896 370.422 671.157 337.229 587.776 325.33 c 1
 569.944 265.492 546.549 228.674 534.611 204.251 c 1
 550.638 215.188 566.918 219.5 580.785 219.5 c 0
 612.06 219.5 655.797 199.604 655.797 159.453 c 0
 655.797 156.109 655.494 152.625 654.854 149 c 0
 653.683 142.355 l 1
 653.199 140.724 l 0
 640.432 97.6387 598.387 73.1768 580.311 59.9229 c 1
 552.728 39.8818 522.146 28.5 492.106 28.5 c 0
 488.42 28.5 l 1
 487.739 28.5342 l 0
 468.361 29.5117 453.352 34.4336 441.656 39.9863 c 1
 398.957 9.13574 334.841 -28.5 241.057 -28.5 c 0
 113.223 -28.5 41.7363 47.8643 29.876 73.0605 c 0
 17.2019 99.9842 11.8111 130.075 11.8111 159.998 c 0x98
 11.8111 175.533 13.2641 191.022 15.9053 206 c 0
 31.5205 294.562 87.6836 363.316 147.199 405.146 c 1
 119.069 446.625 112.774 487.393 112.774 516.445 c 0
 112.774 533.274 114.886 546.172 116.09 553 c 0x94
290.36 313.5 m 0
 231.22 313.5 174.571 266.495 164.081 207 c 0
 163.21 202.061 162.953 200.672 162.701 199.24 c 0
 160.837 188.669 160.062 180.756 160.062 174.895 c 0
 160.062 167.689 161.233 163.583 162.994 161.445 c 0
 189.606 129.137 236.225 118.5 283.977 118.5 c 0
 297.731 118.5 313.396 120.69 324.949 122.885 c 1
 364.803 131.694 360.781 129.239 380.281 143.193 c 1
 381.553 157.326 383.32 168.659 385.144 179 c 0
 398.26 253.385 425.627 273.875 443.23 320.892 c 1
 398.098 323.141 405.307 323.5 398.123 323.5 c 0
 382.616 323.5 l 1xd8
 362.094 322.648 361.833 316.725 309.393 312.588 c 0
 306.382 312.35 l 1
 303.502 312.754 l 0
 303.502 312.754 296.259 313.5 290.36 313.5 c 0
357.751 457.5 m 0xb4
 374.9 457.5 382.197 468.5 412.69 468.5 c 0
 414.18 468.5 421.435 467.594 421.435 467.594 c 1xd4
 432.906 467.452 435.211 467.5 439.515 467.5 c 0
 448.922 467.5 l 1
 451.22 467.082 l 0
 456.192 466.176 459.299 465.696 461.06 465.419 c 1
 457.918 484.91 453.231 497.837 453.231 513.583 c 0
 453.231 515.598 453.308 517.66 453.475 519.788 c 1
 373.585 542.743 423.105 607.5 338.2 607.5 c 0
 285.59 607.5 266.94 574.837 262.737 551 c 0
 262.123 547.518 261.83 544.074 261.83 540.679 c 0
 261.83 494.576 315.978 457.5 357.751 457.5 c 0xb4
EndSplineSet
EndChar

StartChar: asterisk
Encoding: 42 42 89
Width: 498
VWidth: 0
Flags: W
HStem: -12.5 21G<139.337 169.439 259.795 288.321> 319.5 20G<209.679 238.205 328.561 358.663>
LayerCount: 2
Fore
SplineSet
161.143 -12.5 m 0
 117.532 -12.5 96.0508 19.5528 96.0508 51.6068 c 0
 96.0508 55.7611 96.4116 59.9154 97.1318 64 c 0
 99.0156 74.6836 103.02 83.2998 105.987 88.8193 c 1
 70.0279 93.0899 57.6934 123.728 57.6934 150.458 c 0
 57.6934 155.514 58.1345 160.429 58.9404 165 c 0
 65.4707 202.033 97.1631 235.175 134.479 239.295 c 1
 132.002 252.685 133.347 258.043 134.397 264 c 0
 143.306 314.523 193.148 339.5 226.21 339.5 c 0
 250.2 339.5 268.114 328.242 277.293 312.07 c 1
 297.092 333.104 320.265 337.5 336.857 337.5 c 0
 380.468 337.5 401.949 305.447 401.949 273.393 c 0
 401.949 269.239 401.588 265.085 400.868 261 c 0
 398.984 250.316 394.98 241.7 392.013 236.181 c 1
 427.972 231.91 440.307 201.272 440.307 174.542 c 0
 440.307 169.486 439.865 164.571 439.06 160 c 0
 432.529 122.967 400.837 89.8242 363.521 85.7051 c 1
 365.998 72.3154 364.653 66.957 363.603 61 c 0
 354.694 10.4766 304.852 -14.5 271.79 -14.5 c 0
 247.8 -14.5 229.886 -3.24219 220.707 12.9297 c 1
 200.908 -8.10449 177.735 -12.5 161.143 -12.5 c 0
EndSplineSet
EndChar

StartChar: slash
Encoding: 47 47 90
Width: 492
VWidth: 0
Flags: W
HStem: 700.5 20G<488.696 519.993>
LayerCount: 2
Fore
SplineSet
500.962 720.5 m 0
 539.024 720.5 563.518 693.777 563.518 659.362 c 0
 563.518 655.017 563.128 650.551 562.325 646 c 0
 560.285 634.429 555.369 623.262 550.098 614.948 c 1
 67.6387 -175.099 l 1
 47.2227 -209.585 15.5713 -220.5 -8.96191 -220.5 c 0
 -47.0238 -220.5 -71.518 -193.777 -71.518 -159.362 c 0
 -71.518 -155.017 -71.1277 -150.551 -70.3252 -146 c 0
 -68.2852 -134.43 -63.3682 -123.26 -58.0986 -114.95 c 1
 424.361 675.101 l 1
 444.776 709.583 476.43 720.5 500.962 720.5 c 0
EndSplineSet
EndChar

StartChar: question
Encoding: 63 63 92
Width: 486
VWidth: -1282
Flags: W
HStem: -51.0967 193.192<125.839 225.418> 480.117 21G<53.6983 87.5596> 612.828 151.652<207.544 335.718>
VStem: 172.159 125.62<203.766 288.622> 336.471 177.103<519.393 610.968>
LayerCount: 2
Fore
SplineSet
78.9346 44.9434 m 0
 88.7402 100.554 140.654 142.096 192.104 142.096 c 0
 241.653 142.096 273.792 106.697 273.792 62.5866 c 0
 273.792 57.1907 273.311 51.6644 272.322 46.0566 c 0
 262.518 -9.55371 210.603 -51.0967 159.153 -51.0967 c 0
 109.604 -51.0967 77.4648 -15.6972 77.4648 28.4134 c 0
 77.4648 33.8093 77.9457 39.3356 78.9346 44.9434 c 0
211.239 150.487 m 0
 180.467 150.487 172.159 174.522 172.159 201.328 c 0
 172.159 230.385 181.921 262.698 183.418 271.188 c 0
 184.312 276.258 184.55 277.578 184.803 279.011 c 0
 195.756 340.995 227.379 382.979 252.494 420.114 c 1
 308.574 505.366 324.898 523.551 334.304 576.891 c 0
 335.28 582.426 336.471 587.587 336.471 592.172 c 0
 336.471 604.616 327.701 612.828 282.07 612.828 c 0
 227.272 612.828 169.46 570.004 153.825 533.33 c 0
 153.561 532.711 l 1
 153.27 532.098 l 0
 137.145 498.245 101.905 480.117 73.2139 480.117 c 0
 34.1828 480.117 11.8179 509.369 11.8179 541.411 c 0
 11.8179 545.43 12.1698 549.493 12.8848 553.548 c 0
 14.0186 559.979 14.6465 561.252 14.6611 561.309 c 1
 20.7705 585.846 77.959 693.357 201.301 738.602 c 0
 244.751 754.54 288.012 764.48 329.198 764.48 c 0
 388.813 764.48 513.666 734.171 513.666 619.314 c 0
 513.666 617.526 513.635 615.718 513.574 613.889 c 0
 513.103 599.78 511.726 588.575 510.055 579.099 c 0
 492.668 480.493 419.839 428.878 297.779 257.927 c 1
 287.865 244.142 266.942 150.487 211.239 150.487 c 0
EndSplineSet
EndChar

StartChar: percent
Encoding: 37 37 93
Width: 899
VWidth: 0
Flags: W
HStem: -138.5 149<592.032 689.083> 119.5 149<602.652 697.861> 278.5 149<215.047 321.267> 509 149<218.975 326.524> 673 20G<690.647 725.467>
VStem: 57.1909 152.991<433.478 497.445> 418.354 166.036<19.6367 101.972> 705.866 153.059<28.4417 108.794>
LayerCount: 2
Fore
SplineSet
620.66 647.601 m 2
 642.513 682.083 677.149 693 704.145 693 c 0
 746.789 693 774.743 666.979 774.743 633.806 c 0
 774.743 630.288 774.429 626.689 773.784 623.032 c 0
 771.868 612.166 766.775 601.678 761.211 593.87 c 2
 479.651 178.921 l 1
 529.962 233.387 604.997 268.5 681.011 268.5 c 0
 789.475 268.5 858.925 194.147 858.925 100.031 c 0
 858.925 88.6121 857.903 76.9028 855.804 65 c 0
 835.624 -49.4473 726.434 -138.5 609.245 -138.5 c 0
 495.761 -138.5 418.354 -62.5815 418.354 32.9335 c 0
 418.354 43.4113 419.286 54.1249 421.203 65 c 0
 423.952 80.5869 428.526 95.7041 434.682 110.188 c 1
 248.029 -175.099 l 2
 226.174 -209.585 191.539 -220.5 164.544 -220.5 c 0
 122.187 -220.5 94.6168 -193.168 94.6168 -158.189 c 0
 94.6168 -154.215 94.9726 -150.143 95.7031 -146 c 0
 97.7432 -134.43 102.957 -123.26 108.607 -114.95 c 2
 404.176 336.808 l 1
 356.985 300.551 297.362 278.5 237.126 278.5 c 0
 127.785 278.5 57.1909 348.955 57.1909 437.719 c 0
 57.1909 447.689 58.0816 457.891 59.9082 468.25 c 0
 78.7246 574.964 186.854 658 304.042 658 c 0
 417.527 658 494.933 582.081 494.933 486.566 c 0
 494.933 476.089 494.001 465.375 492.084 454.5 c 0
 491.8 452.893 491.497 451.29 491.176 449.692 c 2
 620.66 647.601 l 2
277.77 509 m 0
 242.959 509 210.182 489.004 210.182 463.392 c 0
 210.182 442.636 234.297 427.5 263.398 427.5 c 0
 298.209 427.5 330.986 447.496 330.986 473.108 c 0
 330.986 493.864 306.871 509 277.77 509 c 0
654.737 119.5 m 0
 620.582 119.5 590.178 93.4707 585.158 65 c 0
 584.64 62.0586 584.39 59.1853 584.39 56.3936 c 0
 584.39 29.7245 607.158 10.5 635.518 10.5 c 0
 669.674 10.5 700.078 36.5293 705.098 65 c 0
 705.616 67.9414 705.866 70.8147 705.866 73.6064 c 0
 705.866 100.276 683.098 119.5 654.737 119.5 c 0
EndSplineSet
EndChar

StartChar: less
Encoding: 60 60 94
Width: 430
VWidth: 0
Flags: W
HStem: 422.5 20G<320.47 344.814>
VStem: 24.2007 362.461
LayerCount: 2
Fore
SplineSet
325.824 442.5 m 0
 363.803 442.5 386.662 415.246 386.662 382.634 c 0
 386.662 378.494 386.294 374.268 385.541 370 c 0
 380.86 343.457 363.547 322.062 342.697 309.198 c 1
 232.372 244.265 l 1
 319.953 180.884 l 1
 336.361 167.945 342.624 150.335 342.624 133.085 c 0
 342.624 128.672 342.214 124.282 341.459 120 c 0
 333.964 77.4922 294.455 47.5 256.176 47.5 c 0
 241.044 47.5 228.187 51.9268 218.418 58.7881 c 1
 48.1484 182.886 l 1
 31.2213 195.159 24.2007 213.236 24.2007 231.332 c 0
 24.2007 235.579 24.5873 239.826 25.3232 244 c 0
 30.3965 272.771 49.8594 292.889 69.1719 304.804 c 1
 283.991 431.158 l 1
 301.058 440.767 315.115 442.5 325.824 442.5 c 0
EndSplineSet
EndChar

StartChar: greater
Encoding: 62 62 95
Width: 430
VWidth: 0
Flags: W
HStem: 422.5 20G<156.568 184.834>
VStem: 45.3965 362.092
LayerCount: 2
Fore
SplineSet
107.176 47.5 m 0
 68.4731 47.5 45.3965 75.7279 45.3965 107.962 c 0
 45.3965 111.929 45.7461 115.957 46.459 120 c 0
 51.376 147.885 70.3604 168.497 90.3936 180.857 c 1
 199.634 244.265 l 1
 112.908 309.226 l 1
 96.8676 321.875 89.4661 339.615 89.4661 357.859 c 0
 89.4661 361.898 89.8289 365.961 90.541 370 c 0
 97.584 409.943 136.312 442.5 176.824 442.5 c 0
 192.844 442.5 205.288 437.74 214.658 431.158 c 1
 384.919 304.804 l 1
 400.879 292.218 407.488 274.772 407.488 257.073 c 0
 407.488 252.708 407.086 248.327 406.323 244 c 0
 401.459 216.413 382.849 194.954 361.947 182.886 c 1
 147.914 58.7881 l 1
 131.042 49.29 117.365 47.5 107.176 47.5 c 0
EndSplineSet
EndChar

StartChar: at
Encoding: 64 64 96
Width: 954
VWidth: 0
Flags: W
HStem: -201 146<298.153 544.082> 426.944 20G<500.196 504.083 581.199 604.413> 567 146<399.918 645.847>
VStem: -7.89048 148.292<100.463 315.055> 258.691 143.035<154.193 274.303> 803.598 148.292<196.945 411.537>
LayerCount: 2
Fore
SplineSet
552.581 713 m 0
 786.234 713 951.891 549.018 951.891 333.28 c 0
 951.891 308.162 949.645 282.343 945 256 c 0
 899.744 -0.65918 648.096 -201 391.419 -201 c 0
 157.766 -201 -7.89048 -37.0184 -7.89048 178.72 c 0
 -7.89048 203.838 -5.64502 229.657 -1 256 c 0
 44.2559 512.659 295.904 713 552.581 713 c 0
145 256 m 0
 141.901 238.427 140.402 221.182 140.402 204.383 c 0
 140.402 57.689 254.745 -55 417.162 -55 c 0
 601.834 -55 769.458 88.459 799 256 c 0
 802.099 273.573 803.598 290.818 803.598 307.617 c 0
 803.598 454.311 689.255 567 526.838 567 c 0
 342.166 567 174.542 423.542 145 256 c 0
261.686 223.57 m 0
 273.716 291.799 345.718 446.5 491.59 446.5 c 0
 493.029 446.5 498.723 446.944 501.669 446.944 c 0
 502.888 446.944 l 1
 504.083 446.836 l 0
 508.363 446.45 532.47 443.025 551.91 434.385 c 1
 566.566 440.993 576.514 442.5 585.885 442.5 c 0
 622.941 442.5 646.025 416.084 646.025 384.065 c 0
 646.025 380.116 645.674 376.081 644.954 372 c 0
 638.684 336.439 611.445 312.402 599.561 245 c 0
 598.825 240.816 l 1
 628.133 233.767 642.799 210.453 642.799 184.51 c 0
 642.799 180.388 642.429 176.2 641.688 172 c 0
 638.791 155.568 631.997 145.479 626.737 137.701 c 0
 626.314 137.076 l 1
 608.578 113.158 l 1
 599.653 101.661 590.762 93.9326 580.745 88.498 c 1
 552.156 72.6182 l 1
 535.104 63.1006 523.729 61.5 512.704 61.5 c 0
 500.485 61.5 475.807 68.0244 463.273 88.1074 c 1
 438.59 72.3857 409.892 61.1758 378.527 61.1758 c 0
 301.949 61.1758 258.691 118.252 258.691 190.134 c 0
 258.691 200.99 259.678 212.184 261.686 223.57 c 0
402.328 221 m 0
 401.895 218.545 401.726 216.355 401.726 214.428 c 0
 401.726 210.034 402.608 207.007 403.261 205.307 c 1
 414.656 214.447 437.834 247.167 467.988 305.5 c 1
 462.067 305.5 l 1
 438.848 302.417 408.292 254.822 402.328 221 c 0
EndSplineSet
EndChar

StartChar: dotlessi
Encoding: 305 305 98
Width: 214
VWidth: -1282
Flags: W
HStem: -4.49512 326.495<65.7747 108.969>
VStem: 11.0384 124.962<13.3881 95.7739> 62.2041 88.4992<140.888 316.063>
LayerCount: 2
Fore
SplineSet
59.9482 200.991 m 0xc0
 61.587 210.286 62.2041 218.122 62.2041 224.927 c 0
 62.2041 245.686 56.4618 256.853 56.4618 270.581 c 0
 56.4618 273.259 56.6805 276.036 57.2031 279 c 0
 61.4346 303 83.7852 322 107.785 322 c 2
 109.785 322 l 1
 143.555 319.721 150.703 277.466 150.703 242.951 c 0xa0
 150.703 223.476 148.427 206.465 147.374 200.492 c 0
 140.145 159.495 122.588 128.423 109.288 98 c 1
 125.576 94.4386 137.25 78.1934 137.25 61.2634 c 0
 137.25 59.1785 137.073 57.0832 136.706 55 c 2
 136 51 l 1
 129.197 22.0703 99.7949 -4.49512 67.4375 -4.49512 c 0
 31.7285 -4.49512 11.0384 21.3598 11.0384 53.0912 c 0
 11.0384 57.4665 11.4318 61.9536 12.2334 66.5 c 0
 19.5674 108.092 53.8525 166.425 59.9482 200.991 c 0xc0
EndSplineSet
EndChar

StartChar: dieresis
Encoding: 168 168 99
Width: 296
VWidth: -1282
Flags: W
HStem: 449 93<28.9703 100.366 188.97 260.366>
VStem: 18.1464 92.5031<459.588 531.281> 178.146 92.5031<459.588 531.281>
LayerCount: 2
Fore
SplineSet
269.912 495 m 4
 265.327 469 240.801 449 215.801 449 c 4
 193.617 449 178.146 464.748 178.146 486.463 c 0
 178.146 489.219 178.396 492.071 178.912 495 c 4
 183.496 521 207.199 542 232.199 542 c 4
 254.485 542 270.65 525.312 270.65 503.271 c 0
 270.65 500.587 270.41 497.823 269.912 495 c 4
109.912 495 m 0
 105.327 469 80.8008 449 55.8008 449 c 0
 33.6167 449 18.1464 464.748 18.1464 486.463 c 0
 18.1464 489.219 18.3957 492.071 18.9121 495 c 0
 23.4961 521 47.1992 542 72.1992 542 c 0
 94.485 542 110.65 525.312 110.65 503.271 c 0
 110.65 500.587 110.41 497.823 109.912 495 c 0
EndSplineSet
EndChar

StartChar: acute
Encoding: 180 180 100
Width: 379
VWidth: -1282
Flags: W
HStem: 427.278 160.178
VStem: 77.7853 224.262
LayerCount: 2
Fore
SplineSet
301.395 541.046 m 4
 300.223 534.4 297.585 527.587 293.404 521 c 6
 268.527 482 l 6
 260.234 469 248.647 460 233.942 456 c 6
 130.182 429 l 6
 125.809 427.833 121.518 427.278 117.387 427.278 c 4
 95.6292 427.278 77.7853 444.082 77.7853 466.671 c 0
 77.7853 469.21 78.0107 471.822 78.4814 474.491 c 4
 82.1221 495.139 99.3662 514.167 121.228 520 c 6
 202.931 541 l 5
 215.28 560 l 6
 226.332 577.413 244.506 587.456 262.076 587.456 c 4
 286.758 587.456 302.048 569.138 302.048 548.463 c 0
 302.048 546.015 301.833 543.534 301.395 541.046 c 4
EndSplineSet
EndChar

StartChar: Euro
Encoding: 8364 8364 216
Width: 717
VWidth: -1282
Flags: W
HStem: 0.0732422 92.1768<226.626 423.492> 211.245 94.457<-5.86162 58.7309 152.785 301.011> 373 95<35.2771 71.7422 211.045 342.067> 456 21G<579.997 624.899> 611.104 92.1279<347.318 523.02>
VStem: 54.5225 98.2627<162.505 211.245> 71.7422 91.71<307 374.627>
LayerCount: 2
Fore
SplineSet
245.516 468 m 1xea
 314.339 467 l 2
 337.372 467 352.652 449.735 352.652 427.718 c 0
 352.652 424.882 352.398 421.967 351.875 419 c 0
 347.291 393 321.765 373 295.765 373 c 2
 163.452 374.627 l 1xea
 156.992 356.167 151.987 337.302 148.637 318.298 c 0
 147.891 314.067 147.245 309.868 146.701 305.702 c 1
 203.774 305 l 1
 272.598 304 l 2
 295.631 304 310.911 286.735 310.911 264.718 c 0
 310.911 261.882 310.657 258.967 310.134 256 c 0
 305.55 230 280.022 210 254.022 210 c 2
 152.785 211.245 l 1
 173.826 139.785 233.677 92.25 321.32 92.25 c 0
 424.073 92.25 511.248 163.71 547.021 227 c 0
 555.842 243 577.134 256 594.134 256 c 0
 616.506 256 632.71 239.182 632.71 217.73 c 0
 632.71 215.21 632.487 212.627 632.023 210 c 0
 625.584 173.486 502.393 0.0732422 303.197 0.0732422 c 0
 171.111 0.0732422 71.9189 82.7305 54.5225 212.535 c 1xec
 22.5518 213 l 2
 -0.48111 213 -15.7612 230.265 -15.7612 252.282 c 0
 -15.7612 255.118 -15.5076 258.033 -14.9844 261 c 0
 -10.4004 287 15.127 307 41.127 307 c 2
 55.7461 306.82 l 1
 56.3086 310.662 56.9326 314.53 57.6191 318.423 c 0
 60.9863 337.521 65.7236 356.753 71.7422 375.892 c 1
 64.293 376 l 2
 41.2597 376 25.9803 393.266 25.9803 415.283 c 0
 25.9803 418.119 26.2338 421.033 26.7568 424 c 0
 31.3418 450 56.8682 470 82.8682 470 c 2
 112.041 469.641 l 1
 177.385 588.06 290.747 686.286 427.6 701 c 0
 434.775 702 440.952 703 447.952 703 c 0
 451.605 703.154 455.245 703.231 458.869 703.231 c 0
 594.904 703.231 666.834 602.843 666.834 514.405 c 0
 666.834 512.598 666.804 510.796 666.744 509 c 0
 666.392 507 666.863 504 666.511 502 c 0
 662.103 477 637.399 456 612.399 456 c 0xda
 547.595 456 602.768 541.806 519.203 591 c 0
 497.051 604.041 469.858 611.104 441.225 611.104 c 0
 353.512 611.104 267.769 551.446 211.045 468.424 c 1
 245.516 468 l 1xea
EndSplineSet
EndChar

StartChar: multiply
Encoding: 215 215 217
Width: 498
VWidth: 0
Flags: W
HStem: 31.8867 258.474
VStem: 103.467 290.483
LayerCount: 2
Fore
SplineSet
319.528 277.259 m 2
 329.926 286.098 342.133 290.36 353.687 290.36 c 0
 366.165 290.36 377.884 285.389 385.747 275.844 c 0
 391.329 269.066 393.95 260.75 393.95 252.031 c 0
 393.95 249.379 393.708 246.69 393.232 243.995 c 0
 391.032 231.516 383.841 218.921 372.612 209.376 c 2
 314.637 161.293 l 1
 355.406 111.796 l 2
 362.687 102.956 364.93 91.502 362.892 79.9473 c 0
 360.691 67.4688 353.5 54.873 342.271 45.3271 c 0
 331.666 36.3115 319.319 31.8867 307.703 31.8867 c 0
 295.634 31.8867 284.353 36.665 276.635 46.0342 c 2
 235.866 95.5322 l 1
 177.89 47.4482 l 2
 167.492 38.6094 155.285 34.3467 143.731 34.3467 c 0
 131.252 34.3467 119.534 39.3174 111.671 48.8633 c 0
 106.088 55.642 103.467 63.9581 103.467 72.6784 c 0
 103.467 75.3298 103.71 78.0186 104.185 80.7129 c 0
 106.385 93.1904 113.577 105.786 124.805 115.331 c 2
 182.781 163.414 l 1
 143.425 212.912 l 2
 136 221.928 133.615 233.494 135.663 245.109 c 0
 137.792 257.18 144.708 269.304 155.729 278.673 c 0
 166.334 287.689 178.681 292.113 190.297 292.113 c 0
 202.366 292.113 213.648 287.335 221.365 277.966 c 2
 261.552 229.175 l 1
 319.528 277.259 l 2
EndSplineSet
EndChar

StartChar: exclamdown
Encoding: 161 161 218
Width: 235
VWidth: 0
Flags: W
HStem: 391 20G<128.152 152.137> 476 138<126.596 214.963>
VStem: -12.8474 139.068<-108.846 25.4062> 100.711 140.136<502.446 587.554>
LayerCount: 2
Fore
SplineSet
239.779 545 m 4xd0
 233.079 507 196.613 476 158.613 476 c 4
 124.697 476 100.711 500.695 100.711 533.021 c 0
 100.711 536.913 101.059 540.916 101.779 545 c 4
 108.48 583 144.946 614 182.946 614 c 4
 216.862 614 240.847 589.306 240.847 556.981 c 0
 240.847 553.088 240.5 549.084 239.779 545 c 4xd0
126.221 -65 m 4xe0
 119.52 -103 83.0537 -134 45.0537 -134 c 4
 11.1381 -134 -12.8474 -109.306 -12.8474 -76.9808 c 0
 -12.8474 -73.0879 -12.4996 -69.0844 -11.7793 -65 c 4
 -5.0791 -27 109.152 411 147.152 411 c 4
 157.122 411 160.88 380.854 160.88 335.693 c 0
 160.88 208.714 131.163 -36.9692 126.221 -65 c 4xe0
EndSplineSet
EndChar

StartChar: questiondown
Encoding: 191 191 219
Width: 486
VWidth: -1282
Flags: W
HStem: -143.597 96.6523<92.1187 241.428> 395.396 20G<221.213 237.799> 478.787 138.193<229.332 317.432>
VStem: -36.7252 122.28<-37.9953 72.8249> 203.112 140.542<505.495 590.272> 320.689 88.606<17.722 78.0033>
LayerCount: 2
Fore
SplineSet
342.576 548.44 m 0xf8
 335.817 510.108 300.249 478.787 261.756 478.787 c 0
 227.526 478.787 203.112 502.747 203.112 535.286 c 0
 203.112 539.186 203.462 543.208 204.188 547.327 c 0
 210.947 585.659 246.518 616.98 285.009 616.98 c 0
 319.239 616.98 343.653 593.021 343.653 560.482 c 0
 343.653 556.583 343.303 552.56 342.576 548.44 c 0xf8
232.923 415.396 m 0
 242.676 415.396 245.928 403.466 245.928 386.799 c 0
 245.928 367.86 241.728 342.805 238.094 322.195 c 0
 237.62 319.509 237.155 316.896 236.711 314.384 c 8
 227.402 261.711 201.019 225.384 173.965 185.384 c 0
 120.54 104.17 98.001 77.71 87.207 16.4922 c 0
 86.2175 10.8801 85.5547 5.26529 85.5547 -0.175178 c 0
 85.5547 -25.4401 99.8486 -46.9443 162.092 -46.9443 c 0
 227.109 -46.9443 298.231 0.706055 320.689 53.3838 c 0
 329.396 71.6641 351.568 85.7666 370.949 85.7666 c 0
 393.39 85.7666 409.295 68.5089 409.295 47.3881 c 0xf4
 409.295 44.9165 409.078 42.3919 408.627 39.8359 c 0
 408.31 38.0332 407.881 36.2139 407.34 34.3838 c 0
 405.731 25.2607 356.125 -77.8232 242.186 -119.616 c 0
 203.236 -133.902 162.549 -143.597 124.662 -143.597 c 0
 70.5871 -143.597 -36.7252 -115.385 -36.7252 -20.8805 c 0
 -36.7252 -8.2606 -35.4676 3.36997 -33.5439 14.2842 c 0
 -18.8711 97.4932 45.8848 144.187 173.122 322.384 c 0
 198.083 357.091 209.504 415.396 232.923 415.396 c 0
EndSplineSet
EndChar

StartChar: sterling
Encoding: 163 163 220
Width: 651
VWidth: -1282
Flags: W
HStem: -3 92<222.718 447.804> 15.1387 91.7461<85.3632 354.865> 327 95<62.9021 125.382 232.26 369.691> 520.044 21G<472.924 483.926> 674.038 91.9756<290.418 436.032>
VStem: 125.382 92.0615<234.956 328.303> 435.765 106.124<542.818 669.176>
LayerCount: 2
Fore
SplineSet
273.14 422 m 1x7e
 341.964 421 l 2
 364.997 421 380.277 403.735 380.277 381.718 c 0
 380.277 378.882 380.023 375.967 379.5 373 c 0
 374.915 347 349.389 327 323.389 327 c 2
 217.443 328.303 l 1
 192.714 193.444 158.325 134.591 141.716 102 c 1
 169.068 104 l 2
 189.371 105.485 209.922 106.885 230.658 106.885 c 0x7e
 299.139 106.885 324.952 89 365.423 89 c 0
 439.324 89 465.038 135 498.534 135 c 0
 520.906 135 537.11 118.183 537.11 96.731 c 0
 537.11 94.2114 536.886 91.6278 536.423 89 c 0
 534.308 77 523.662 62 513.252 54 c 0
 463.728 17 405.201 -3 349.201 -3 c 0xbe
 283.979 -3 286.184 15.1387 207.991 15.1387 c 0
 192.743 15.1387 177.047 14.3926 161.022 13 c 2
 52.2588 3 l 1
 48.2588 3 l 2
 25.8866 3 9.68322 19.8173 9.68322 41.269 c 0
 9.68322 43.7886 9.90676 46.3722 10.3701 49 c 0
 17.4326 89.0537 87 116.041 125.382 329.514 c 1
 91.918 330 l 2
 68.8851 330 53.605 347.265 53.605 369.282 c 0
 53.605 372.118 53.8586 375.033 54.3818 378 c 0
 58.9658 404 84.4922 424 110.492 424 c 2
 140.977 423.625 l 1
 144.587 447.812 147.726 471.643 149.855 493.398 c 0
 152.146 516.792 151.197 544.17 156.638 575.024 c 0
 161.912 604.938 173.191 638.117 199.249 674.101 c 0
 243.196 734.788 304.967 765.492 369.435 765.999 c 0
 370.719 766.009 372.006 766.014 373.293 766.014 c 0
 437.707 766.014 504.327 752.865 534.067 676.679 c 0
 539.751 662.12 541.889 647.579 541.889 633.617 c 0
 541.889 624.023 540.88 614.702 539.316 605.837 c 0
 536.219 588.271 530.949 572.494 527.055 559.92 c 0
 519.033 534.015 493.997 520.044 473.854 520.044 c 0
 471.993 520.044 470.173 520.163 468.411 520.404 c 0
 451.256 522.746 435.765 537.114 435.765 557.945 c 0
 435.765 560.455 435.99 563.058 436.464 565.746 c 0
 436.828 567.809 437.339 569.922 438.007 572.08 c 0
 441.624 583.763 444.286 594.316 445.88 603.358 c 0
 448.103 615.96 448.252 625.626 446.028 631.321 c 0
 431.292 669.071 414.677 674.038 362.383 674.038 c 0
 359.666 674.038 356.852 674.024 353.937 674.001 c 0
 318.013 673.719 296.174 663.086 272.142 629.899 c 0
 262.231 616.214 257.322 600.929 253.929 581.682 c 0
 249.709 557.755 247.833 527.707 241.602 487 c 0
 238.366 465.867 235.368 444.342 232.26 422.503 c 1
 273.14 422 l 1x7e
EndSplineSet
EndChar

StartChar: copyright
Encoding: 169 169 221
Width: 954
VWidth: 0
Flags: W
HStem: -173.5 91<290.088 544.763> 86.123 87.4961<420.111 498.703> 328.085 86.915<447.949 530.432> 594.5 91<399.237 653.912>
VStem: 20.0237 92.4591<88.4462 321.707> 330.096 86.6282<176.678 295.068> 831.517 92.4591<190.293 423.554>
LayerCount: 2
Fore
SplineSet
333.501 242.177 m 4
 354.749 362.685 445.392 415 511.036 415 c 4
 569.615 415 606.969 374.431 606.969 343.981 c 0
 606.969 341.937 606.801 339.938 606.459 338 c 4
 602.227 314 578.877 295 554.877 295 c 4
 521.536 295 528.478 328.085 492.373 328.085 c 4
 484.24 328.085 458.663 316.394 447.464 304 c 4
 431.02 286.247 426.113 280.312 420.738 249.831 c 4
 420.058 245.972 419.37 241.72 418.649 237 c 4
 417.325 229.489 416.724 222.842 416.724 216.964 c 0
 416.724 180.441 439.933 173.619 456.995 173.619 c 4
 480.974 173.619 495.776 189.212 498.244 195 c 4
 507.065 211 527.357 224 544.357 224 c 4
 565.719 224 580.466 208.948 580.466 188.716 c 0
 580.466 186.217 580.241 183.639 579.775 181 c 4
 573.996 148.222 518.303 86.123 441.888 86.123 c 4
 384.036 86.123 330.096 124.71 330.096 205.3 c 0
 330.096 216.742 331.183 229.031 333.501 242.177 c 4
547.732 685.5 m 0
 766.871 685.5 923.976 532.101 923.976 328.6 c 0
 923.976 305.019 921.867 280.766 917.5 256 c 0
 875.446 17.502 640.8 -173.5 396.268 -173.5 c 0
 177.129 -173.5 20.0237 -20.1012 20.0237 183.4 c 0
 20.0237 206.981 22.1331 231.234 26.5 256 c 0
 68.5537 494.498 303.2 685.5 547.732 685.5 c 0
117.5 256 m 0
 114.12 236.829 112.483 218.005 112.483 199.659 c 0
 112.483 40.5464 235.618 -82.5 412.313 -82.5 c 0
 609.38 -82.5 793.803 70.5625 826.5 256 c 0
 829.88 275.171 831.517 293.995 831.517 312.341 c 0
 831.517 471.454 708.382 594.5 531.687 594.5 c 0
 334.62 594.5 150.197 441.438 117.5 256 c 0
EndSplineSet
EndChar

StartChar: registered
Encoding: 174 174 222
Width: 954
VWidth: 0
Flags: W
HStem: -173.5 91<290.088 544.763> -26.1846 75.5986<596.246 626.696> 164.436 75.2188<419.889 516.281> 409.332 72.3115<275.853 357.235> 451.341 75.5967<446.495 582.477> 538.064 20G<389.284 412.71> 594.5 91<399.237 653.912>
VStem: 20.0237 92.4591<88.4462 321.707> 273.577 67.1301<-28.6291 43.6372> 374.438 72.0566<310.609 433.983> 534.105 72.0023<50.3602 167.153> 620.805 72.1829<296.298 417.96> 831.517 92.4591<190.293 423.554>
LayerCount: 2
Fore
SplineSet
435.42 521.087 m 5xf7f8
 462.997 525.639 490.667 526.938 504.22 526.938 c 4xeff8
 641.81 526.938 692.988 451.689 692.988 376.577 c 0
 692.988 366.577 692.081 356.58 690.35 346.763 c 4
 679.984 287.975 643.521 235.235 589.872 199.791 c 5
 589.727 198.969 l 5
 600.331 180.576 606.108 161.181 606.108 137.816 c 0
 606.108 128.492 605.188 118.535 603.287 107.757 c 4
 600.969 94.6094 598.006 83.6533 596.46 74.8877 c 4
 595.34 68.5361 593.609 49.4141 602.794 49.4141 c 4
 619.968 49.4141 632.299 35.796 632.299 18.3532 c 0
 632.299 16.1611 632.105 13.9087 631.7 11.6152 c 4
 628.078 -8.92773 608.796 -26.1846 589.464 -26.1846 c 4
 547.364 -26.1846 522.922 5.82646 522.922 50.0116 c 0
 522.922 57.4432 523.613 65.2191 525.028 73.2451 c 4
 527.745 88.6523 531.277 101.286 533.017 111.146 c 4
 533.611 114.517 534.105 118.722 534.105 123.393 c 0
 534.105 137.254 529.754 155.228 510.76 167.743 c 5
 498.594 165.553 486.393 164.436 474.378 164.436 c 4
 442.919 164.436 418.514 171.545 398.777 181.713 c 5
 397.278 172.257 395.735 162.762 394.052 153.212 c 4
 379.945 73.2129 357.544 21.7617 340.707 -7.28516 c 5
 333.604 -21.2539 316.255 -31.9365 302.335 -31.9365 c 4
 285.26 -31.9365 273.577 -18.4752 273.577 -1.17655 c 0
 273.577 1.1104 273.781 3.46443 274.204 5.86328 c 4
 277.692 25.6475 303.208 44.2734 321.556 148.33 c 4
 326.826 178.221 331.016 209.651 336.812 242.521 c 5
 335.505 248.272 334.345 254.847 335.214 259.777 c 4
 336.519 267.173 339.997 273.746 344.104 279.498 c 5
 352.889 319.029 363.251 351.413 369.795 388.525 c 4
 372.55 404.148 374.255 419.546 374.438 433.983 c 5
 329.598 420.807 315.032 409.332 301.269 409.332 c 4
 284.095 409.332 271.763 422.95 271.763 440.393 c 0
 271.763 442.585 271.958 444.837 272.362 447.131 c 4
 274.826 461.101 286.713 475.892 300.1 481.644 c 4
 319.335 489.861 339.342 498.078 358.915 503.83 c 5
 357.465 508.761 357.078 515.335 357.947 520.265 c 4
 361.425 539.986 379.933 557.243 398.636 558.064 c 5
 400.183 558.064 l 6
 425.237 558.064 433.631 526.248 435.42 521.087 c 5xf7f8
488.462 239.654 m 4
 508.521 239.654 516.001 244.164 522.688 244.164 c 5
 574.797 258.784 612.331 304.566 619.432 344.835 c 4
 620.312 349.826 620.805 355.109 620.805 360.547 c 0
 620.805 401.533 592.798 451.341 491.362 451.341 c 4
 488.731 451.341 486.084 451.308 483.42 451.24 c 4
 471.047 451.24 459.158 449.597 446.495 447.953 c 5
 446.498 427.318 444.21 407.189 440.75 387.566 c 4
 432.49 340.724 419.947 305.611 412.88 270.459 c 5
 427.931 253.72 456.056 239.654 488.462 239.654 c 4
547.732 685.5 m 0
 766.871 685.5 923.976 532.101 923.976 328.6 c 0
 923.976 305.019 921.867 280.766 917.5 256 c 0
 875.446 17.502 640.8 -173.5 396.268 -173.5 c 0
 177.129 -173.5 20.0237 -20.1012 20.0237 183.4 c 0
 20.0237 206.981 22.1331 231.234 26.5 256 c 0
 68.5537 494.498 303.2 685.5 547.732 685.5 c 0
117.5 256 m 0
 114.12 236.829 112.483 218.005 112.483 199.659 c 0
 112.483 40.5464 235.618 -82.5 412.313 -82.5 c 0
 609.38 -82.5 793.803 70.5625 826.5 256 c 0
 829.88 275.171 831.517 293.995 831.517 312.341 c 0
 831.517 471.454 708.382 594.5 531.687 594.5 c 0
 334.62 594.5 150.197 441.438 117.5 256 c 0
EndSplineSet
EndChar

StartChar: yen
Encoding: 165 165 223
Width: 640
VWidth: -1282
Flags: W
HStem: -23 21G<69.014 83.7002> 236.967 94.166<132.382 255.898 406.502 519.857> 625 87<614.776 682.478> 671 20G<111.009 138.618>
LayerCount: 2
Fore
SplineSet
123.098 691 m 1xd0
 125.098 691 l 2xd0
 152.139 691 249.872 627.088 308.943 537 c 0
 329.337 505.898 335.016 441 340.139 402 c 1
 349.312 420 376.154 469.988 387.303 488 c 0
 478.533 635.388 621.846 712 650.8 712 c 2
 651.8 712 l 2
 674.172 712 690.376 695.182 690.376 673.731 c 0
 690.376 671.211 690.153 668.628 689.689 666 c 0
 687.044 651 672.694 632 657.46 625 c 0xe0
 579.936 588 510.118 524.863 464.779 451 c 0
 443.571 416.45 426.329 375.482 406.502 331.133 c 1
 422.619 331 l 1
 491.443 330 l 2
 514.476 330 529.756 312.735 529.756 290.718 c 0
 529.756 287.882 529.503 284.967 528.979 282 c 0
 524.396 256 498.868 236 472.868 236 c 2
 360.434 236.967 l 1
 317.228 159.057 255.127 77.6113 145.313 6 c 0
 144.137 5 143.137 5 141.961 4 c 2
 105.435 -16 l 2
 98.7285 -20 87.2002 -23 80.2002 -23 c 0
 57.8279 -23 41.6237 -6.18249 41.6237 15.2693 c 0
 41.6237 17.7888 41.8472 20.3723 42.3105 23 c 0
 44.9561 38 58.1299 56 72.3643 63 c 2
 105.538 81 l 1
 144.021 105.99 223.44 168.768 255.898 237.865 c 1
 240.221 238 l 1
 161.397 239 l 2
 138.365 239 123.085 256.265 123.085 278.282 c 0
 123.085 281.118 123.338 284.033 123.861 287 c 0
 128.445 313 154.012 333.214 179.973 333 c 2
 276.145 332.207 l 1
 275.736 389.16 253.184 438.049 227.54 478 c 0
 192.709 530 145.467 574 89.7568 604 c 0
 77.8718 610.044 70.4142 624.287 70.4142 638.364 c 0
 70.4142 640.591 70.6009 642.814 70.9863 645 c 0
 75.2178 669 98.9209 690 123.098 691 c 1xd0
EndSplineSet
EndChar

StartChar: uni00AD
Encoding: 173 173 224
Width: 498
VWidth: 0
Flags: W
HStem: 114 95<94.9611 401.751>
VStem: 85.6639 326.672<125.017 199.983>
LayerCount: 2
Fore
SplineSet
305.199 209 m 1
 374.022 208 l 2
 397.056 208 412.336 190.734 412.336 168.717 c 0
 412.336 165.881 412.083 162.967 411.56 160 c 0
 406.975 134 381.448 114 355.448 114 c 2
 192.801 116 l 1
 123.978 117 l 2
 100.944 117 85.6639 134.266 85.6639 156.283 c 0
 85.6639 159.119 85.9174 162.033 86.4404 165 c 0
 91.0254 191 116.552 211 142.552 211 c 2
 305.199 209 l 1
EndSplineSet
EndChar

StartChar: macron
Encoding: 175 175 225
Width: 498
VWidth: 0
Flags: W
HStem: 664 95<94.9611 401.751>
VStem: 85.6639 326.672<675.017 749.983>
LayerCount: 2
Fore
SplineSet
305.199 759 m 5
 374.022 758 l 6
 397.056 758 412.336 740.734 412.336 718.717 c 0
 412.336 715.881 412.083 712.967 411.56 710 c 4
 406.975 684 381.448 664 355.448 664 c 6
 192.801 666 l 5
 123.978 667 l 6
 100.944 667 85.6639 684.266 85.6639 706.283 c 0
 85.6639 709.119 85.9174 712.033 86.4404 715 c 4
 91.0254 741 116.552 761 142.552 761 c 6
 305.199 759 l 5
EndSplineSet
EndChar

StartChar: cedilla
Encoding: 184 184 226
Width: 302
VWidth: -1282
Flags: W
HStem: -239 87.082<112.984 192.101> -20.3398 20G<114.945 128.346>
VStem: 106.957 88.4692<-42.8135 -1.03423>
LayerCount: 2
Fore
SplineSet
195.426 -10.209 m 0
 195.426 -57.1056 281.648 -43.1075 281.648 -116.989 c 0
 281.648 -123.246 281.03 -130.133 279.688 -137.74 c 4
 268.976 -198.496 204.271 -239 141.959 -239 c 4
 71.5135 -239 24.4291 -186.104 24.4291 -151.356 c 0
 24.4291 -149.284 24.5966 -147.277 24.9365 -145.349 c 4
 29.1689 -121.349 51.5186 -102.349 75.5186 -102.349 c 4
 115.911 -102.349 103.646 -151.918 157.443 -151.918 c 4
 178.802 -151.918 192.693 -141.062 193.171 -138.349 c 6
 193.348 -137.349 l 5
 187.647 -119.734 106.957 -105.812 106.957 -25.082 c 0
 106.957 -17.4863 107.671 -9.29917 109.229 -0.461914 c 4
 109.244 -0.379883 112.396 -0.339844 117.494 -0.339844 c 0
 139.198 -0.339844 196.155 -1.06548 196.155 -2.34493 c 0
 195.904 -5.19475 195.426 -7.72343 195.426 -10.209 c 0
EndSplineSet
EndChar

StartChar: guillemotleft
Encoding: 171 171 229
Width: 638
VWidth: 0
Flags: W
HStem: 75 340
LayerCount: 2
Fore
SplineSet
580.976 415 m 4
 603.208 415 618.794 399.875 618.794 378.372 c 0
 618.794 375.676 618.549 372.88 618.041 370 c 4
 615.396 355 605.928 341 591.341 332 c 6
 441.823 244 l 5
 560.659 158 l 6
 569.961 150.665 574.692 140.008 574.692 128.196 c 0
 574.692 125.515 574.448 122.775 573.959 120 c 4
 569.562 95.0654 547.166 75 521.024 75 c 4
 513.024 75 504.377 77 497.259 82 c 6
 327.123 206 l 6
 317.031 213.317 312.032 223.279 312.032 235.348 c 0
 312.032 238.123 312.296 241.009 312.823 244 c 4
 315.645 260 325.938 273 340.524 282 c 6
 554.741 408 l 6
 563.623 413 571.976 415 580.976 415 c 4
320.976 415 m 4
 343.208 415 358.794 399.875 358.794 378.372 c 0
 358.794 375.676 358.549 372.88 358.041 370 c 4
 355.396 355 345.928 341 331.341 332 c 6
 181.823 244 l 5
 300.659 158 l 6
 309.961 150.665 314.692 140.009 314.692 128.197 c 0
 314.692 125.516 314.448 122.775 313.959 120 c 4
 309.562 95.0654 287.166 75 261.024 75 c 4
 253.024 75 244.377 77 237.259 82 c 6
 67.123 206 l 6
 57.0306 213.317 52.0315 223.279 52.0315 235.348 c 0
 52.0315 238.123 52.2958 241.009 52.8232 244 c 4
 55.6445 260 65.9375 273 80.5244 282 c 6
 294.741 408 l 6
 303.623 413 311.976 415 320.976 415 c 4
EndSplineSet
EndChar

StartChar: guillemotright
Encoding: 187 187 230
Width: 638
VWidth: 0
Flags: W
HStem: 75 340
LayerCount: 2
Fore
SplineSet
58.0244 75 m 4
 35.7909 75 20.2062 90.1245 20.2062 111.627 c 0
 20.2062 114.324 20.4513 117.12 20.959 120 c 4
 23.6045 135 33.0723 149 47.6592 158 c 6
 197.177 246 l 5
 78.3408 332 l 6
 69.0391 339.335 64.3079 349.991 64.3079 361.803 c 0
 64.3079 364.484 64.5516 367.225 65.041 370 c 4
 69.4375 394.935 91.834 415 117.976 415 c 4
 125.976 415 134.623 413 141.741 408 c 6
 311.877 284 l 6
 321.969 276.683 326.968 266.721 326.968 254.652 c 0
 326.968 251.877 326.704 248.991 326.177 246 c 4
 323.355 230 313.062 217 298.476 208 c 6
 84.2588 82 l 6
 75.377 77 67.0244 75 58.0244 75 c 4
318.024 75 m 4
 295.792 75 280.206 90.1246 280.206 111.628 c 0
 280.206 114.324 280.451 117.12 280.959 120 c 4
 283.604 135 293.072 149 307.659 158 c 6
 457.177 246 l 5
 338.341 332 l 6
 329.039 339.335 324.308 349.991 324.308 361.803 c 0
 324.308 364.484 324.552 367.225 325.041 370 c 4
 329.438 394.934 351.834 415 377.976 415 c 4
 385.976 415 394.623 413 401.741 408 c 6
 571.877 284 l 6
 581.969 276.683 586.969 266.721 586.969 254.652 c 0
 586.969 251.877 586.704 248.991 586.177 246 c 4
 583.355 230 573.062 217 558.476 208 c 6
 344.259 82 l 6
 335.377 77 327.024 75 318.024 75 c 4
EndSplineSet
EndChar

StartChar: uni00B9
Encoding: 185 185 231
Width: 307
VWidth: 0
Flags: W
HStem: 297 352<144.391 196.297> 474 21G<77.8764 97.002>
VStem: 49.7909 178.66
LayerCount: 2
Fore
SplineSet
89.1768 474 m 4x60
 66.576 474 49.7909 491.619 49.7909 513.397 c 0
 49.7909 515.884 50.0098 518.425 50.4639 521 c 4
 52.7559 534 61.0479 547 73.8115 557 c 6
 107.043 581 l 5
 143.802 625 l 5
 154.623 641 172.033 649 189.033 649 c 4
 216.736 649 230.391 628.704 228.451 606 c 6
 206.959 348 l 6
 206.834 346.741 206.66 345.49 206.441 344.248 c 4
 202.135 319.823 180.044 298.903 154.967 297 c 5
 150.967 297 l 6xa0
 126.967 297 109.141 315 111.549 340 c 6
 124.469 487 l 5
 113.733 480.596 104.827 474 89.1768 474 c 4x60
EndSplineSet
EndChar

StartChar: Eth
Encoding: 208 208 232
Width: 758
VWidth: -1282
Flags: W
HStem: -0.103516 92.0674<226.63 445.986> 311.899 94.0742<98.0495 193.532 310.042 405.525> 559.449 91.623<332.406 564.648> 626 88<173.673 215.727> 703 20G<245.438 258.683>
VStem: 238.718 93.424<408.25 560.67> 609.25 93.5235<268.846 509.807>
LayerCount: 2
Fore
SplineSet
331.283 562.417 m 1xe6
 331.76 556.651 332.142 549.733 332.142 541.401 c 0
 332.142 524.925 330.648 502.922 325.439 473.379 c 0
 321.353 450.203 315.834 427.696 310.042 405.974 c 1
 377.111 405 l 2
 400.145 405 415.424 387.734 415.424 365.717 c 0
 415.424 362.881 415.171 359.967 414.647 357 c 0
 410.062 331 384.536 311 358.536 311 c 2
 285.459 311.899 l 1
 277.524 276.442 270.277 237.759 256.435 197 c 0
 244.392 162.299 230.494 133.329 225.047 110.089 c 1
 274.751 93.9375 309.502 91.9639 331.415 91.9639 c 0
 427.417 91.9639 568.598 140.586 602.892 335.075 c 0
 606.986 358.297 609.25 381.645 609.25 404.106 c 0
 609.25 492.102 574.504 566.5 478.963 566.5 c 0
 443.242 566.5 408.053 559.449 369.908 559.449 c 0
 357.217 559.449 344.254 560.249 331.283 562.417 c 1xe6
77.3799 174 m 0
 91.3398 174 91.8877 170.643 142.07 145.033 c 1
 150.505 170.401 161.046 192.492 168.08 212 c 0
 179.169 242.756 185.595 276.788 193.532 313.034 c 1
 127.065 314 l 2
 104.033 314 88.7525 331.265 88.7525 353.282 c 0
 88.7525 356.118 89.0061 359.033 89.5293 362 c 0
 94.1133 388 119.64 408 145.64 408 c 2
 217.759 407.113 l 1
 224.33 431.379 230.253 454.537 234.141 476.587 c 0
 237.186 493.857 238.718 509.813 238.718 524.431 c 0
 238.718 574.024 221.084 608.208 185.079 626 c 0
 172.106 632.15 162.946 646.791 162.946 661.785 c 0
 162.946 663.857 163.121 665.936 163.485 668 c 0
 167.894 693 192.596 714 217.596 714 c 2
 218.596 714 l 2xd6
 219.938 714 221.47 713.856 223.083 713.607 c 1
 231.277 719.134 240.693 722.607 250.183 723 c 2
 252.183 723 l 2xce
 265.183 723 279.744 714.982 285.833 704 c 0
 294.138 689.021 319.531 651.072 384.077 651.072 c 0
 419.098 651.072 459.901 658.53 498.134 658.53 c 0
 627.306 658.53 702.774 560.803 702.774 417.151 c 0
 702.774 391.219 700.314 363.79 695.268 335.169 c 0
 657.932 123.423 496.31 -0.103516 317.257 -0.103516 c 0
 285.287 -0.103516 252.847 3.2998 213.107 13.2568 c 1
 202.397 2.23047 187.487 -5 172.817 -5 c 0
 143.686 -5 135.788 21.3799 132.312 40.627 c 1
 113.338 48.6396 75.5615 65.7373 41.0391 87 c 0
 30.0295 93.0371 22.6938 107.256 22.6938 121.317 c 0
 22.6938 123.56 22.8805 125.799 23.2686 128 c 0
 27.6768 153 52.3799 174 77.3799 174 c 0
EndSplineSet
EndChar

StartChar: AE
Encoding: 198 198 233
Width: 1028
VWidth: -1282
Flags: W
HStem: -9 91.7812<148.142 235.283> 9.33789 91.5742<653.668 837.069> 196 92<408.611 516.862> 275 93<219.396 289.391> 350.423 89.8516<680.678 822.726> 459 120<195.878 243.967> 522 21G<339.212 377.448 903.767 922.267> 604.188 91.8125<195.344 288.202 472.294 525.944> 644.885 91.1152<671.126 826.848>
VStem: 67.456 150.412<216.215 272.621> 520.735 93.5161<135.115 214.737>
LayerCount: 2
Fore
SplineSet
677.17 81 m 2x0060
 677.188 81 l 2
 677.227 81.2178 677.219 81.2002 677.17 81 c 2x0060
542.35 505.13 m 1
 499.598 457.409 448.823 423.48 413.33 320 c 0
 411.271 314 410.037 307 407.979 301 c 0
 408.175 300.931 427.577 288 459.688 288 c 0x2060
 472.836 288 508.468 293.954 532.811 329.584 c 1
 537.358 362.236 550.056 390.53 588.376 411 c 1
 564.256 437.114 547.606 468.874 542.35 505.13 c 1
522.717 199.605 m 1
 522.202 203.989 521.665 208.299 521.815 215 c 1
 497.876 204 471.642 197 446.465 196 c 0
 444.465 196 442.465 196 440.465 196 c 0x68e0
 418.465 196 399.347 201 382.229 206 c 1
 382.052 205 380.699 203 380.523 202 c 0
 358.107 127.611 326.146 61.0537 261.432 20 c 0
 237.61 4 208.671 -7 180.318 -9 c 1
 170.318 -9 l 2
 99.738 -9 55.9177 42.6456 55.9177 80.9881 c 0
 55.9177 83.735 56.1426 86.4136 56.5986 89 c 0
 61.0068 114 84.709 135 109.709 135 c 0
 125.709 135 142.594 123 147.125 109 c 0
 152.438 92.584 166.828 82.7812 184.854 82.7812 c 0
 204.774 82.7812 229.135 94.7529 250.594 123 c 0
 282.183 164.583 296.83 233.083 300.281 246 c 1
 240.742 277.098 227.926 273.535 219.396 275 c 1
 219.689 271 220.632 265 219.927 261 c 0
 219.574 259 218.221 257 217.868 255 c 0
 203.787 209.528 162.365 188 130.055 188 c 0
 103.216 188 67.456 205.938 67.456 250.369 c 0
 67.456 255.548 67.9418 261.087 68.9844 267 c 0
 79.6699 327.6 147.338 368 220.794 368 c 0
 265.594 368 309.191 351.171 328.209 342 c 1
 386.55 510.1 488.525 519.604 500.585 588 c 0
 502.725 600.132 496.89 604.188 495.252 604.188 c 0
 494.052 604.188 491.565 603.467 488.701 600 c 2
 472.175 580 l 2
 453.166 557.451 424.812 528.019 387.124 523 c 0
 383.124 523 378.948 522 375.948 522 c 0x9360
 302.477 522 296.939 601.138 250.112 608 c 0
 248.112 608 245.288 609 243.288 609 c 0
 211.154 609 190.574 584.831 187.477 567.26 c 0
 186.191 559.974 187.912 553.823 193.062 551 c 1
 201.883 567 223.998 579 240.998 579 c 0
 263.37 579 279.575 562.182 279.575 540.731 c 0
 279.575 538.211 279.351 535.628 278.888 533 c 0
 276.084 517.1 244.539 459 177.839 459 c 2
 170.839 459 l 1
 123.87 462.169 94.5708 501.854 94.5708 549.235 c 0
 94.5708 556.027 95.1728 562.977 96.4111 570 c 0
 108.075 636.15 175.776 701 255.511 701 c 0
 339.344 701 379.007 627.553 386.052 619 c 0
 387.699 617 389.522 616 390.347 615 c 1
 405.721 628.07 442.519 696 509.629 696 c 0x0560
 552.692 696 575.058 671.062 584.064 653.224 c 1
 624.808 704.942 688.994 736 754.682 736 c 0
 887.882 736 944.441 651.856 957.991 630 c 0
 961.829 624.362 964.333 614.833 964.333 606.635 c 0
 964.333 604.654 964.187 602.751 963.878 601 c 0
 959.47 576 934.767 555 909.767 555 c 0
 897.767 555 883.216 563.027 876.94 573 c 0
 840.515 630.891 775.384 644.885 742.187 644.885 c 0
 678.911 644.885 642.406 602.927 634.95 560.641 c 0
 634.062 555.604 633.63 550.571 633.63 545.578 c 0
 633.63 490.573 686.006 440.274 757.604 440.274 c 0
 792.908 440.274 808.439 451 823.429 451 c 0
 845.801 451 862.004 434.183 862.004 412.731 c 0
 862.004 410.211 861.781 407.628 861.317 405 c 0
 857.968 386 839.44 366 820.56 361 c 0
 793.749 352.794 766.514 348.484 740.17 348.484 c 0
 731.199 348.484 722.331 348.984 713.619 350 c 1
 705.619 350 l 2
 701.888 350.28 698.111 350.423 694.304 350.423 c 0
 616.007 350.423 630.247 287.989 617.685 216.744 c 0
 615.811 206.121 614.251 194.162 614.251 183.031 c 0
 614.251 170.688 616.17 159.361 621.707 152 c 0
 651.341 112.606 707.492 100.912 760.298 100.912 c 0
 837.42 100.912 845.886 136 879.291 178 c 0
 887.435 188.239 904.112 194 916.112 194 c 0
 938.485 194 954.689 177.182 954.689 155.731 c 0
 954.689 153.211 954.465 150.628 954.002 148 c 0
 952.238 138 942.592 125.817 936.535 117 c 0
 904.248 70 836.829 9.33789 741.013 9.33789 c 0x48e0
 664.642 9.33789 593.842 28 544.246 87 c 0
 528.991 105.147 520.735 133.189 520.735 168.353 c 0
 520.735 178.229 521.386 188.667 522.717 199.605 c 1
EndSplineSet
EndChar

StartChar: ae
Encoding: 230 230 234
Width: 553
VWidth: -1282
Flags: W
HStem: -2 86<95.6075 150.211 286.217 370.125> 243 86.4443<144.407 224.321 315.935 377.724>
VStem: 6.90465 87.3016<86.0758 187.784>
LayerCount: 2
Fore
SplineSet
95.2305 131 m 0
 94.5343 127.052 94.2063 123.25 94.2063 119.639 c 0
 94.2063 101.417 102.556 88.0237 114.119 85 c 1
 139.79 85 167.961 118.486 216.51 213.76 c 0
 217.511 215.802 218.538 217.827 219.591 219.834 c 2
 224.687 230 l 1
 216.921 237 206.803 242 196.979 243 c 1
 185.979 243 l 1
 137.139 238.989 102.101 169.961 95.2305 131 c 0
9.58789 133.57 m 0
 20.5391 195.679 84.7666 329 207.143 329 c 0
 210.476 329 213.889 329.444 217.222 329.444 c 0
 222.564 328.962 263.368 316.818 291.053 302.159 c 1
 315.817 319.121 343.071 329 370.143 329 c 0
 421.303 329 455.101 291.668 455.101 263.6 c 0
 455.101 261.685 454.944 259.814 454.624 258 c 1
 483.765 276.486 497.256 282 506.855 282 c 0
 528.217 282 542.964 266.948 542.964 246.716 c 0
 542.964 244.217 542.739 241.639 542.273 239 c 0
 540.334 228 530.513 212 520.278 205 c 0
 439.459 148.094 357.231 124.938 282.291 120 c 1
 287.257 95.0059 301.143 84 317.943 84 c 0
 328.343 84 355.607 92.5225 374.704 111 c 0
 383.291 120 399.525 127 410.525 127 c 0
 431.887 127 446.633 111.948 446.633 91.7147 c 0
 446.633 89.2159 446.409 86.6382 445.943 84 c 0
 439.049 44.9004 361.47 -2 302.778 -2 c 0
 257.486 -2 226.165 19.2373 208.842 50.7529 c 1
 202.791 45.3477 156.324 -1.32422 103.778 -1.32422 c 0
 44.6613 -1.32422 6.90465 41.8231 6.90465 103.957 c 0
 6.90465 113.416 7.77978 123.316 9.58789 133.57 c 0
378.452 223 m 1
 373.67 226.612 369.064 242.657 355.89 242.657 c 1
 327.231 238.956 325.249 229.875 306.808 208 c 1
 335.397 211.984 314.694 204.116 378.452 223 c 1
287.868 123.56 m 2
 287.819 123 l 2
 288.254 123.137 288.23 123.329 287.868 123.56 c 2
EndSplineSet
EndChar

StartChar: Thorn
Encoding: 222 222 235
Width: 383
VWidth: -1282
Flags: W
HStem: -255 21G<-12.592 5.58887> -3.25 86.6943<127.863 229.386> 239 86.2549<213.352 290.837> 552 20G<122.911 147.99>
VStem: 77.9814 88.3313<275.605 555.026> 271.586 87.7324<123.385 235.438>
LayerCount: 2
Fore
SplineSet
67.7412 199.198 m 0
 76.3856 248.222 77.9814 317.256 77.9814 378.779 c 0
 77.9814 414.789 77.4347 448.225 77.4347 473.571 c 0
 77.4347 493.81 77.7833 508.889 79.0371 516 c 0
 83.2686 540 110.911 572 134.911 572 c 2
 135.911 572 l 2
 160.068 572 166.313 515.502 166.313 451.014 c 0
 166.313 379.355 158.602 297.831 159.189 273 c 1
 182.175 297.812 222.815 325.255 272.257 325.255 c 0
 309.417 325.255 359.318 307.541 359.318 224.137 c 0
 359.318 209.86 357.856 193.657 354.617 175.289 c 0
 347.298 133.776 327.745 35.0273 187.581 3 c 0
 166.847 -1.16699 146.479 -3.25 125.9 -3.25 c 0
 121.785 -3.25 117.661 -3.16699 113.523 -3 c 1
 111.502 -22.7656 108.661 -44.1387 104.748 -66.335 c 0
 96.0693 -115.553 80.2969 -171.07 42.4971 -230 c 0
 34.0283 -244 13.0889 -255 -1.91113 -255 c 0
 -23.273 -255 -38.0191 -239.948 -38.0191 -219.715 c 0
 -38.0191 -217.216 -37.7942 -214.638 -37.3291 -212 c 0
 -33.3994 -189.715 2.85938 -155.347 17.1094 -74.5283 c 0
 21.8037 -47.9043 24.4385 -18.9434 28.3447 13 c 1
 24.3678 19.9314 22.3168 34.2781 22.3168 43.3984 c 0
 22.3168 45.6461 22.4414 47.5764 22.6924 49 c 0
 25.9209 67.3096 34.3545 68.9111 42.2744 92 c 1
 52.6895 134.864 62.0742 167.059 67.7412 199.198 c 0
267.756 169.875 m 0
 269.921 182.152 271.586 195.844 271.586 207.782 c 0
 271.586 225.273 268.011 239 257.194 239 c 0
 229.087 239 207.721 209.178 194.083 193 c 0
 167.088 159 144.74 123 127.863 84 c 1
 133.805 83.667 139.877 83.4443 146.024 83.4443 c 0
 213.93 83.4443 254.124 115.589 263.854 152 c 0
 265.323 157.5 266.632 163.5 267.756 169.875 c 0
EndSplineSet
EndChar

StartChar: divide
Encoding: 247 247 236
Width: 380
VWidth: 0
Flags: W
HStem: -54 138<120.456 208.823> 114 95<34.6081 341.398> 245 138<173.177 261.544>
VStem: 94.5708 140.136<-27.5542 57.5542> 147.293 140.136<271.446 356.554>
LayerCount: 2
Fore
SplineSet
244.847 209 m 1xe0
 313.67 208 l 2
 336.703 208 351.984 190.734 351.984 168.717 c 0
 351.984 165.881 351.73 162.967 351.207 160 c 0
 346.622 134 321.096 114 295.096 114 c 2
 132.448 116 l 1
 63.624 117 l 2
 40.5908 117 25.3113 134.266 25.3113 156.283 c 0
 25.3113 159.119 25.5648 162.033 26.0879 165 c 0
 30.6729 191 56.1992 211 82.1992 211 c 2
 244.847 209 l 1xe0
148.361 314 m 0
 155.062 352 191.527 383 229.527 383 c 0
 263.443 383 287.429 358.305 287.429 325.979 c 0
 287.429 322.087 287.081 318.084 286.361 314 c 0
 279.66 276 243.194 245 205.194 245 c 0
 171.279 245 147.293 269.694 147.293 302.019 c 0xe8
 147.293 305.912 147.641 309.916 148.361 314 c 0
95.6387 15 m 0
 102.34 53 138.806 84 176.806 84 c 0
 210.721 84 234.707 59.3059 234.707 26.9808 c 0
 234.707 23.0879 234.359 19.0844 233.639 15 c 0
 226.938 -23 190.473 -54 152.473 -54 c 0
 118.557 -54 94.5708 -29.3052 94.5708 3.02065 c 0xf0
 94.5708 6.91305 94.9186 10.9161 95.6387 15 c 0
EndSplineSet
EndChar

StartChar: degree
Encoding: 176 176 237
Width: 450
VWidth: 0
Flags: W
HStem: 316 94<128.418 240.864> 574 94<149.136 261.582>
VStem: 16.2706 95.4725<427.874 535.918> 278.257 95.4724<448.082 556.126>
LayerCount: 2
Fore
SplineSet
226.033 668 m 4
 312.595 668 373.729 605.087 373.729 522.613 c 0
 373.729 512.668 372.84 502.438 371 492 c 4
 353.896 395 260.967 316 163.967 316 c 4
 77.4049 316 16.2706 378.913 16.2706 461.387 c 0
 16.2706 471.332 17.1595 481.562 19 492 c 4
 36.1035 589 129.033 668 226.033 668 c 4
113 492 m 4
 112.152 487.192 111.743 482.476 111.743 477.886 c 0
 111.743 439.516 140.349 410 180.541 410 c 4
 225.541 410 269.065 447 277 492 c 4
 277.848 496.808 278.257 501.524 278.257 506.114 c 0
 278.257 544.484 249.651 574 209.459 574 c 4
 164.459 574 120.935 537 113 492 c 4
EndSplineSet
EndChar
